G04 start of page 3 for group 1 idx 1 *
G04 Title: (unknown), solder *
G04 Creator: pcb 20140316 *
G04 CreationDate: Thu 20 Aug 2020 03:13:35 AM GMT UTC *
G04 For: railfan *
G04 Format: Gerber/RS-274X *
G04 PCB-Dimensions (mil): 3000.00 1125.00 *
G04 PCB-Coordinate-Origin: lower left *
%MOIN*%
%FSLAX25Y25*%
%LNBOTTOM*%
%ADD46C,0.0480*%
%ADD45C,0.0380*%
%ADD44C,0.0430*%
%ADD43C,0.1280*%
%ADD42C,0.0300*%
%ADD41C,0.0730*%
%ADD40C,0.0200*%
%ADD39C,0.0360*%
%ADD38C,0.0600*%
%ADD37C,0.0680*%
%ADD36C,0.0800*%
%ADD35C,0.0750*%
%ADD34C,0.1440*%
%ADD33C,0.1700*%
%ADD32C,0.0700*%
%ADD31C,0.0250*%
%ADD30C,0.0001*%
G54D30*G36*
X264735Y96477D02*X265458Y96177D01*
X266713Y95876D01*
X268000Y95775D01*
X269287Y95876D01*
X270542Y96177D01*
X271734Y96671D01*
X272835Y97346D01*
X273816Y98184D01*
X274654Y99165D01*
X275329Y100266D01*
X275823Y101458D01*
X276124Y102713D01*
X276200Y104000D01*
X276124Y105287D01*
X275823Y106542D01*
X275329Y107734D01*
X274654Y108835D01*
X273816Y109816D01*
X273601Y110000D01*
X298000D01*
Y2000D01*
X264735D01*
Y9970D01*
X264750Y9969D01*
X266319Y10093D01*
X267850Y10460D01*
X269304Y11062D01*
X270646Y11885D01*
X271843Y12907D01*
X272865Y14104D01*
X273688Y15446D01*
X274290Y16900D01*
X274657Y18431D01*
X274750Y20000D01*
X274657Y21569D01*
X274290Y23100D01*
X273688Y24554D01*
X272865Y25896D01*
X271843Y27093D01*
X270646Y28115D01*
X269304Y28938D01*
X267850Y29540D01*
X266558Y29850D01*
X267850Y30160D01*
X269304Y30762D01*
X270646Y31585D01*
X271843Y32607D01*
X272865Y33804D01*
X273688Y35146D01*
X274290Y36600D01*
X274657Y38131D01*
X274750Y39700D01*
X274657Y41269D01*
X274290Y42800D01*
X273688Y44254D01*
X272865Y45596D01*
X271843Y46793D01*
X270646Y47815D01*
X269304Y48638D01*
X267850Y49240D01*
X266319Y49607D01*
X264750Y49731D01*
X264735Y49730D01*
Y51477D01*
X265458Y51177D01*
X266713Y50876D01*
X268000Y50775D01*
X269287Y50876D01*
X270542Y51177D01*
X271734Y51671D01*
X272835Y52346D01*
X273816Y53184D01*
X274654Y54165D01*
X275329Y55266D01*
X275823Y56458D01*
X276124Y57713D01*
X276200Y59000D01*
X276124Y60287D01*
X275823Y61542D01*
X275329Y62734D01*
X274654Y63835D01*
X273816Y64816D01*
X272835Y65654D01*
X271734Y66329D01*
X270542Y66823D01*
X269287Y67124D01*
X268000Y67225D01*
X266713Y67124D01*
X265458Y66823D01*
X264735Y66523D01*
Y96477D01*
G37*
G36*
X246720Y110000D02*X262399D01*
X262184Y109816D01*
X261346Y108835D01*
X260671Y107734D01*
X260177Y106542D01*
X259876Y105287D01*
X259775Y104000D01*
X259876Y102713D01*
X260177Y101458D01*
X260671Y100266D01*
X261346Y99165D01*
X262184Y98184D01*
X263165Y97346D01*
X264266Y96671D01*
X264735Y96477D01*
Y66523D01*
X264266Y66329D01*
X263165Y65654D01*
X262184Y64816D01*
X261346Y63835D01*
X260671Y62734D01*
X260177Y61542D01*
X259876Y60287D01*
X259775Y59000D01*
X259876Y57713D01*
X260177Y56458D01*
X260671Y55266D01*
X261346Y54165D01*
X262184Y53184D01*
X263165Y52346D01*
X264266Y51671D01*
X264735Y51477D01*
Y49730D01*
X263181Y49607D01*
X261650Y49240D01*
X260196Y48638D01*
X258854Y47815D01*
X257657Y46793D01*
X256635Y45596D01*
X255812Y44254D01*
X255210Y42800D01*
X254843Y41269D01*
X254719Y39700D01*
X254843Y38131D01*
X255210Y36600D01*
X255812Y35146D01*
X256635Y33804D01*
X257657Y32607D01*
X258854Y31585D01*
X260196Y30762D01*
X261650Y30160D01*
X262942Y29850D01*
X261650Y29540D01*
X260196Y28938D01*
X258854Y28115D01*
X257657Y27093D01*
X256635Y25896D01*
X255812Y24554D01*
X255210Y23100D01*
X254843Y21569D01*
X254719Y20000D01*
X254843Y18431D01*
X255210Y16900D01*
X255812Y15446D01*
X256635Y14104D01*
X257657Y12907D01*
X258854Y11885D01*
X260196Y11062D01*
X261650Y10460D01*
X263181Y10093D01*
X264735Y9970D01*
Y2000D01*
X246720D01*
Y61544D01*
X246771Y61583D01*
X246826Y61639D01*
X246870Y61704D01*
X247064Y62056D01*
X247221Y62426D01*
X247344Y62809D01*
X247433Y63200D01*
X247487Y63599D01*
X247504Y64000D01*
X247487Y64401D01*
X247433Y64800D01*
X247344Y65191D01*
X247221Y65574D01*
X247064Y65944D01*
X246874Y66298D01*
X246829Y66363D01*
X246774Y66420D01*
X246720Y66460D01*
Y71459D01*
X247022Y71951D01*
X247293Y72605D01*
X247458Y73294D01*
X247500Y74000D01*
X247458Y74706D01*
X247293Y75395D01*
X247022Y76049D01*
X246720Y76541D01*
Y81459D01*
X247022Y81951D01*
X247293Y82605D01*
X247458Y83294D01*
X247500Y84000D01*
X247458Y84706D01*
X247293Y85395D01*
X247022Y86049D01*
X246720Y86541D01*
Y91459D01*
X246795Y91581D01*
X247022Y91951D01*
X247134Y92222D01*
X247293Y92605D01*
X247419Y93129D01*
X247458Y93294D01*
Y93294D01*
X247514Y94000D01*
X247458Y94706D01*
X247293Y95395D01*
X247022Y96049D01*
X246720Y96541D01*
Y110000D01*
G37*
G36*
Y86541D02*X246652Y86653D01*
X246192Y87192D01*
X245653Y87652D01*
X245049Y88022D01*
X244395Y88293D01*
X243706Y88458D01*
X243002Y88514D01*
Y89486D01*
X243706Y89542D01*
X244395Y89707D01*
X245049Y89978D01*
X245653Y90348D01*
X246192Y90808D01*
X246652Y91347D01*
X246720Y91459D01*
Y86541D01*
G37*
G36*
Y76541D02*X246652Y76653D01*
X246192Y77192D01*
X245653Y77652D01*
X245049Y78022D01*
X244395Y78293D01*
X243706Y78458D01*
X243002Y78514D01*
Y79486D01*
X243706Y79542D01*
X244395Y79707D01*
X245049Y79978D01*
X245653Y80348D01*
X246192Y80808D01*
X246652Y81347D01*
X246720Y81459D01*
Y76541D01*
G37*
G36*
Y2000D02*X243002D01*
Y13679D01*
X243365Y14104D01*
X244188Y15446D01*
X244790Y16900D01*
X245157Y18431D01*
X245250Y20000D01*
X245157Y21569D01*
X244790Y23100D01*
X244188Y24554D01*
X243365Y25896D01*
X243002Y26321D01*
Y33379D01*
X243365Y33804D01*
X244188Y35146D01*
X244790Y36600D01*
X245157Y38131D01*
X245250Y39700D01*
X245157Y41269D01*
X244790Y42800D01*
X244188Y44254D01*
X243365Y45596D01*
X243002Y46021D01*
Y59496D01*
X243401Y59513D01*
X243800Y59567D01*
X244191Y59656D01*
X244574Y59779D01*
X244944Y59936D01*
X245298Y60126D01*
X245363Y60171D01*
X245420Y60226D01*
X245468Y60290D01*
X245504Y60360D01*
X245530Y60435D01*
X245544Y60513D01*
X245545Y60592D01*
X245533Y60671D01*
X245510Y60746D01*
X245475Y60817D01*
X245429Y60882D01*
X245374Y60939D01*
X245311Y60987D01*
X245241Y61024D01*
X245166Y61049D01*
X245088Y61063D01*
X245008Y61064D01*
X244930Y61052D01*
X244854Y61029D01*
X244784Y60993D01*
X244510Y60843D01*
X244223Y60721D01*
X243926Y60625D01*
X243621Y60556D01*
X243312Y60514D01*
X243002Y60500D01*
Y67500D01*
X243312Y67486D01*
X243621Y67444D01*
X243926Y67375D01*
X244223Y67279D01*
X244510Y67157D01*
X244786Y67010D01*
X244855Y66974D01*
X244931Y66951D01*
X245009Y66940D01*
X245087Y66941D01*
X245165Y66954D01*
X245239Y66980D01*
X245309Y67016D01*
X245372Y67064D01*
X245427Y67120D01*
X245472Y67184D01*
X245507Y67255D01*
X245530Y67330D01*
X245541Y67408D01*
X245540Y67487D01*
X245527Y67564D01*
X245501Y67639D01*
X245465Y67708D01*
X245417Y67771D01*
X245361Y67826D01*
X245296Y67870D01*
X244944Y68064D01*
X244574Y68221D01*
X244191Y68344D01*
X243800Y68433D01*
X243401Y68487D01*
X243002Y68504D01*
Y69486D01*
X243706Y69542D01*
X244395Y69707D01*
X245049Y69978D01*
X245653Y70348D01*
X246192Y70808D01*
X246652Y71347D01*
X246720Y71459D01*
Y66460D01*
X246710Y66468D01*
X246640Y66504D01*
X246565Y66530D01*
X246487Y66544D01*
X246408Y66545D01*
X246329Y66533D01*
X246254Y66510D01*
X246183Y66475D01*
X246118Y66429D01*
X246061Y66374D01*
X246013Y66311D01*
X245976Y66241D01*
X245951Y66166D01*
X245937Y66088D01*
X245936Y66008D01*
X245948Y65930D01*
X245971Y65854D01*
X246007Y65784D01*
X246157Y65510D01*
X246279Y65223D01*
X246375Y64926D01*
X246444Y64621D01*
X246486Y64312D01*
X246500Y64000D01*
X246486Y63688D01*
X246444Y63379D01*
X246375Y63074D01*
X246279Y62777D01*
X246157Y62490D01*
X246010Y62214D01*
X245974Y62145D01*
X245951Y62069D01*
X245940Y61991D01*
X245941Y61913D01*
X245954Y61835D01*
X245980Y61761D01*
X246016Y61691D01*
X246064Y61628D01*
X246120Y61573D01*
X246184Y61528D01*
X246255Y61493D01*
X246330Y61470D01*
X246408Y61459D01*
X246487Y61460D01*
X246564Y61473D01*
X246639Y61499D01*
X246708Y61535D01*
X246720Y61544D01*
Y2000D01*
G37*
G36*
X243002Y110000D02*X246720D01*
Y96541D01*
X246652Y96653D01*
X246652Y96653D01*
X246192Y97192D01*
X246057Y97307D01*
X243002Y100362D01*
Y110000D01*
G37*
G36*
X239280Y81459D02*X239348Y81347D01*
X239808Y80808D01*
X240347Y80348D01*
X240951Y79978D01*
X241605Y79707D01*
X242294Y79542D01*
X243000Y79486D01*
X243002Y79486D01*
Y78514D01*
X243000Y78514D01*
X242294Y78458D01*
X241605Y78293D01*
X240951Y78022D01*
X240347Y77652D01*
X239808Y77192D01*
X239348Y76653D01*
X239280Y76541D01*
Y81459D01*
G37*
G36*
Y91356D02*X239693Y90943D01*
X239808Y90808D01*
X240347Y90348D01*
X240347Y90348D01*
X240581Y90205D01*
X240951Y89978D01*
X241222Y89866D01*
X241605Y89707D01*
X242129Y89581D01*
X242294Y89542D01*
X242349Y89537D01*
X243000Y89486D01*
X243002Y89486D01*
Y88514D01*
X243000Y88514D01*
X242294Y88458D01*
X241605Y88293D01*
X240951Y88022D01*
X240347Y87652D01*
X239808Y87192D01*
X239348Y86653D01*
X239280Y86541D01*
Y91356D01*
G37*
G36*
X243002Y46021D02*X242343Y46793D01*
X241146Y47815D01*
X239804Y48638D01*
X239280Y48855D01*
Y61540D01*
X239290Y61532D01*
X239360Y61496D01*
X239435Y61470D01*
X239513Y61456D01*
X239592Y61455D01*
X239671Y61467D01*
X239746Y61490D01*
X239817Y61525D01*
X239882Y61571D01*
X239939Y61626D01*
X239987Y61689D01*
X240024Y61759D01*
X240049Y61834D01*
X240063Y61912D01*
X240064Y61992D01*
X240052Y62070D01*
X240029Y62146D01*
X239993Y62216D01*
X239843Y62490D01*
X239721Y62777D01*
X239625Y63074D01*
X239556Y63379D01*
X239514Y63688D01*
X239500Y64000D01*
X239514Y64312D01*
X239556Y64621D01*
X239625Y64926D01*
X239721Y65223D01*
X239843Y65510D01*
X239990Y65786D01*
X240026Y65855D01*
X240049Y65931D01*
X240060Y66009D01*
X240059Y66087D01*
X240046Y66165D01*
X240020Y66239D01*
X239984Y66309D01*
X239936Y66372D01*
X239880Y66427D01*
X239816Y66472D01*
X239745Y66507D01*
X239670Y66530D01*
X239592Y66541D01*
X239513Y66540D01*
X239436Y66527D01*
X239361Y66501D01*
X239292Y66465D01*
X239280Y66456D01*
Y71459D01*
X239348Y71347D01*
X239808Y70808D01*
X240347Y70348D01*
X240951Y69978D01*
X241605Y69707D01*
X242294Y69542D01*
X243000Y69486D01*
X243002Y69486D01*
Y68504D01*
X243000Y68504D01*
X242599Y68487D01*
X242200Y68433D01*
X241809Y68344D01*
X241426Y68221D01*
X241056Y68064D01*
X240702Y67874D01*
X240637Y67829D01*
X240580Y67774D01*
X240532Y67710D01*
X240496Y67640D01*
X240470Y67565D01*
X240456Y67487D01*
X240455Y67408D01*
X240467Y67329D01*
X240490Y67254D01*
X240525Y67183D01*
X240571Y67118D01*
X240626Y67061D01*
X240689Y67013D01*
X240759Y66976D01*
X240834Y66951D01*
X240912Y66937D01*
X240992Y66936D01*
X241070Y66948D01*
X241146Y66971D01*
X241216Y67007D01*
X241490Y67157D01*
X241777Y67279D01*
X242074Y67375D01*
X242379Y67444D01*
X242688Y67486D01*
X243000Y67500D01*
X243002Y67500D01*
Y60500D01*
X243000Y60500D01*
X242688Y60514D01*
X242379Y60556D01*
X242074Y60625D01*
X241777Y60721D01*
X241490Y60843D01*
X241214Y60990D01*
X241145Y61026D01*
X241069Y61049D01*
X240991Y61060D01*
X240913Y61059D01*
X240835Y61046D01*
X240761Y61020D01*
X240691Y60984D01*
X240628Y60936D01*
X240573Y60880D01*
X240528Y60816D01*
X240493Y60745D01*
X240470Y60670D01*
X240459Y60592D01*
X240460Y60513D01*
X240473Y60436D01*
X240499Y60361D01*
X240535Y60292D01*
X240583Y60229D01*
X240639Y60174D01*
X240704Y60130D01*
X241056Y59936D01*
X241426Y59779D01*
X241809Y59656D01*
X242200Y59567D01*
X242599Y59513D01*
X243000Y59496D01*
X243002Y59496D01*
Y46021D01*
G37*
G36*
X239280Y48855D02*X238350Y49240D01*
X237950Y49336D01*
Y92686D01*
X239280Y91356D01*
Y86541D01*
X238978Y86049D01*
X238707Y85395D01*
X238542Y84706D01*
X238486Y84000D01*
X238542Y83294D01*
X238707Y82605D01*
X238978Y81951D01*
X239280Y81459D01*
Y76541D01*
X238978Y76049D01*
X238707Y75395D01*
X238542Y74706D01*
X238486Y74000D01*
X238542Y73294D01*
X238707Y72605D01*
X238978Y71951D01*
X239280Y71459D01*
Y66456D01*
X239229Y66417D01*
X239174Y66361D01*
X239130Y66296D01*
X238936Y65944D01*
X238779Y65574D01*
X238656Y65191D01*
X238567Y64800D01*
X238513Y64401D01*
X238496Y64000D01*
X238513Y63599D01*
X238567Y63200D01*
X238656Y62809D01*
X238779Y62426D01*
X238936Y62056D01*
X239126Y61702D01*
X239171Y61637D01*
X239226Y61580D01*
X239280Y61540D01*
Y48855D01*
G37*
G36*
X243002Y26321D02*X242343Y27093D01*
X241146Y28115D01*
X239804Y28938D01*
X238350Y29540D01*
X237950Y29636D01*
Y30064D01*
X238350Y30160D01*
X239804Y30762D01*
X241146Y31585D01*
X242343Y32607D01*
X243002Y33379D01*
Y26321D01*
G37*
G36*
Y2000D02*X237950D01*
Y10364D01*
X238350Y10460D01*
X239804Y11062D01*
X241146Y11885D01*
X242343Y12907D01*
X243002Y13679D01*
Y2000D01*
G37*
G36*
X237950Y110000D02*X243002D01*
Y100362D01*
X241307Y102057D01*
X241192Y102192D01*
X240653Y102652D01*
X240653Y102652D01*
X240049Y103022D01*
X239395Y103293D01*
X239230Y103333D01*
X238706Y103458D01*
X238706Y103458D01*
X238000Y103514D01*
X237950Y103510D01*
Y110000D01*
G37*
G36*
Y29636D02*X237058Y29850D01*
X237950Y30064D01*
Y29636D01*
G37*
G36*
X233002Y10256D02*X233681Y10093D01*
X235250Y9969D01*
X236819Y10093D01*
X237950Y10364D01*
Y2000D01*
X233002D01*
Y10256D01*
G37*
G36*
Y29956D02*X233442Y29850D01*
X233002Y29744D01*
Y29956D01*
G37*
G36*
X236720Y93916D02*X237950Y92686D01*
Y49336D01*
X236819Y49607D01*
X236720Y49615D01*
Y66544D01*
X236771Y66583D01*
X236826Y66639D01*
X236870Y66704D01*
X237064Y67056D01*
X237221Y67426D01*
X237344Y67809D01*
X237433Y68200D01*
X237487Y68599D01*
X237504Y69000D01*
X237487Y69401D01*
X237433Y69800D01*
X237344Y70191D01*
X237221Y70574D01*
X237064Y70944D01*
X236874Y71298D01*
X236829Y71363D01*
X236774Y71420D01*
X236720Y71460D01*
Y76459D01*
X237022Y76951D01*
X237293Y77605D01*
X237458Y78294D01*
X237500Y79000D01*
X237458Y79706D01*
X237293Y80395D01*
X237022Y81049D01*
X236720Y81541D01*
Y86273D01*
X236733Y86288D01*
X237111Y86905D01*
X237388Y87574D01*
X237557Y88278D01*
X237600Y89000D01*
X237557Y89722D01*
X237388Y90426D01*
X237111Y91095D01*
X236733Y91712D01*
X236720Y91727D01*
Y93916D01*
G37*
G36*
Y81541D02*X236652Y81653D01*
X236192Y82192D01*
X235653Y82652D01*
X235049Y83022D01*
X234395Y83293D01*
X233706Y83458D01*
X233002Y83514D01*
Y84386D01*
X233722Y84443D01*
X234426Y84612D01*
X235095Y84889D01*
X235712Y85267D01*
X236263Y85737D01*
X236720Y86273D01*
Y81541D01*
G37*
G36*
Y49615D02*X235250Y49731D01*
X233681Y49607D01*
X233002Y49444D01*
Y64496D01*
X233401Y64513D01*
X233800Y64567D01*
X234191Y64656D01*
X234574Y64779D01*
X234944Y64936D01*
X235298Y65126D01*
X235363Y65171D01*
X235420Y65226D01*
X235468Y65290D01*
X235504Y65360D01*
X235530Y65435D01*
X235544Y65513D01*
X235545Y65592D01*
X235533Y65671D01*
X235510Y65746D01*
X235475Y65817D01*
X235429Y65882D01*
X235374Y65939D01*
X235311Y65987D01*
X235241Y66024D01*
X235166Y66049D01*
X235088Y66063D01*
X235008Y66064D01*
X234930Y66052D01*
X234854Y66029D01*
X234784Y65993D01*
X234510Y65843D01*
X234223Y65721D01*
X233926Y65625D01*
X233621Y65556D01*
X233312Y65514D01*
X233002Y65500D01*
Y72500D01*
X233312Y72486D01*
X233621Y72444D01*
X233926Y72375D01*
X234223Y72279D01*
X234510Y72157D01*
X234786Y72010D01*
X234855Y71974D01*
X234931Y71951D01*
X235009Y71940D01*
X235087Y71941D01*
X235165Y71954D01*
X235239Y71980D01*
X235309Y72016D01*
X235372Y72064D01*
X235427Y72120D01*
X235472Y72184D01*
X235507Y72255D01*
X235530Y72330D01*
X235541Y72408D01*
X235540Y72487D01*
X235527Y72564D01*
X235501Y72639D01*
X235465Y72708D01*
X235417Y72771D01*
X235361Y72826D01*
X235296Y72870D01*
X234944Y73064D01*
X234574Y73221D01*
X234191Y73344D01*
X233800Y73433D01*
X233401Y73487D01*
X233002Y73504D01*
Y74486D01*
X233706Y74542D01*
X234395Y74707D01*
X235049Y74978D01*
X235653Y75348D01*
X236192Y75808D01*
X236652Y76347D01*
X236720Y76459D01*
Y71460D01*
X236710Y71468D01*
X236640Y71504D01*
X236565Y71530D01*
X236487Y71544D01*
X236408Y71545D01*
X236329Y71533D01*
X236254Y71510D01*
X236183Y71475D01*
X236118Y71429D01*
X236061Y71374D01*
X236013Y71311D01*
X235976Y71241D01*
X235951Y71166D01*
X235937Y71088D01*
X235936Y71008D01*
X235948Y70930D01*
X235971Y70854D01*
X236007Y70784D01*
X236157Y70510D01*
X236279Y70223D01*
X236375Y69926D01*
X236444Y69621D01*
X236486Y69312D01*
X236500Y69000D01*
X236486Y68688D01*
X236444Y68379D01*
X236375Y68074D01*
X236279Y67777D01*
X236157Y67490D01*
X236010Y67214D01*
X235974Y67145D01*
X235951Y67069D01*
X235940Y66991D01*
X235941Y66913D01*
X235954Y66835D01*
X235980Y66761D01*
X236016Y66691D01*
X236064Y66628D01*
X236120Y66573D01*
X236184Y66528D01*
X236255Y66493D01*
X236330Y66470D01*
X236408Y66459D01*
X236487Y66460D01*
X236564Y66473D01*
X236639Y66499D01*
X236708Y66535D01*
X236720Y66544D01*
Y49615D01*
G37*
G36*
X233002Y94386D02*X233722Y94443D01*
X233961Y94500D01*
X236136D01*
X236720Y93916D01*
Y91727D01*
X236263Y92263D01*
X235712Y92733D01*
X235095Y93111D01*
X234426Y93388D01*
X233722Y93557D01*
X233002Y93614D01*
Y94386D01*
G37*
G36*
Y110000D02*X237950D01*
Y103510D01*
X237824Y103500D01*
X233961D01*
X233722Y103557D01*
X233002Y103614D01*
Y110000D01*
G37*
G36*
X229280Y11948D02*X229354Y11885D01*
X230696Y11062D01*
X232150Y10460D01*
X233002Y10256D01*
Y2000D01*
X229280D01*
Y11948D01*
G37*
G36*
Y31648D02*X229354Y31585D01*
X230696Y30762D01*
X232150Y30160D01*
X233002Y29956D01*
Y29744D01*
X232150Y29540D01*
X230696Y28938D01*
X229354Y28115D01*
X229280Y28052D01*
Y31648D01*
G37*
G36*
Y76459D02*X229348Y76347D01*
X229808Y75808D01*
X230347Y75348D01*
X230951Y74978D01*
X231605Y74707D01*
X232294Y74542D01*
X233000Y74486D01*
X233002Y74486D01*
Y73504D01*
X233000Y73504D01*
X232599Y73487D01*
X232200Y73433D01*
X231809Y73344D01*
X231426Y73221D01*
X231056Y73064D01*
X230702Y72874D01*
X230637Y72829D01*
X230580Y72774D01*
X230532Y72710D01*
X230496Y72640D01*
X230470Y72565D01*
X230456Y72487D01*
X230455Y72408D01*
X230467Y72329D01*
X230490Y72254D01*
X230525Y72183D01*
X230571Y72118D01*
X230626Y72061D01*
X230689Y72013D01*
X230759Y71976D01*
X230834Y71951D01*
X230912Y71937D01*
X230992Y71936D01*
X231070Y71948D01*
X231146Y71971D01*
X231216Y72007D01*
X231490Y72157D01*
X231777Y72279D01*
X232074Y72375D01*
X232379Y72444D01*
X232688Y72486D01*
X233000Y72500D01*
X233002Y72500D01*
Y65500D01*
X233000Y65500D01*
X232688Y65514D01*
X232379Y65556D01*
X232074Y65625D01*
X231777Y65721D01*
X231490Y65843D01*
X231214Y65990D01*
X231145Y66026D01*
X231069Y66049D01*
X230991Y66060D01*
X230913Y66059D01*
X230835Y66046D01*
X230761Y66020D01*
X230691Y65984D01*
X230628Y65936D01*
X230573Y65880D01*
X230528Y65816D01*
X230493Y65745D01*
X230470Y65670D01*
X230459Y65592D01*
X230460Y65513D01*
X230473Y65436D01*
X230499Y65361D01*
X230535Y65292D01*
X230583Y65229D01*
X230639Y65174D01*
X230704Y65130D01*
X231056Y64936D01*
X231426Y64779D01*
X231809Y64656D01*
X232200Y64567D01*
X232599Y64513D01*
X233000Y64496D01*
X233002Y64496D01*
Y49444D01*
X232150Y49240D01*
X230696Y48638D01*
X229354Y47815D01*
X229280Y47752D01*
Y66540D01*
X229290Y66532D01*
X229360Y66496D01*
X229435Y66470D01*
X229513Y66456D01*
X229592Y66455D01*
X229671Y66467D01*
X229746Y66490D01*
X229817Y66525D01*
X229882Y66571D01*
X229939Y66626D01*
X229987Y66689D01*
X230024Y66759D01*
X230049Y66834D01*
X230063Y66912D01*
X230064Y66992D01*
X230052Y67070D01*
X230029Y67146D01*
X229993Y67216D01*
X229843Y67490D01*
X229721Y67777D01*
X229625Y68074D01*
X229556Y68379D01*
X229514Y68688D01*
X229500Y69000D01*
X229514Y69312D01*
X229556Y69621D01*
X229625Y69926D01*
X229721Y70223D01*
X229843Y70510D01*
X229990Y70786D01*
X230026Y70855D01*
X230049Y70931D01*
X230060Y71009D01*
X230059Y71087D01*
X230046Y71165D01*
X230020Y71239D01*
X229984Y71309D01*
X229936Y71372D01*
X229880Y71427D01*
X229816Y71472D01*
X229745Y71507D01*
X229670Y71530D01*
X229592Y71541D01*
X229513Y71540D01*
X229436Y71527D01*
X229361Y71501D01*
X229292Y71465D01*
X229280Y71456D01*
Y76459D01*
G37*
G36*
Y86273D02*X229737Y85737D01*
X230288Y85267D01*
X230905Y84889D01*
X231574Y84612D01*
X232278Y84443D01*
X233000Y84386D01*
X233002Y84386D01*
Y83514D01*
X233000Y83514D01*
X232294Y83458D01*
X231605Y83293D01*
X230951Y83022D01*
X230347Y82652D01*
X229808Y82192D01*
X229348Y81653D01*
X229280Y81541D01*
Y86273D01*
G37*
G36*
Y96273D02*X229737Y95737D01*
X230288Y95267D01*
X230905Y94889D01*
X231574Y94612D01*
X232278Y94443D01*
X233000Y94386D01*
X233002Y94386D01*
Y93614D01*
X233000Y93614D01*
X232278Y93557D01*
X231574Y93388D01*
X230905Y93111D01*
X230288Y92733D01*
X229737Y92263D01*
X229280Y91727D01*
Y96273D01*
G37*
G36*
Y110000D02*X233002D01*
Y103614D01*
X233000Y103614D01*
X232278Y103557D01*
X231574Y103388D01*
X230905Y103111D01*
X230288Y102733D01*
X229737Y102263D01*
X229280Y101727D01*
Y110000D01*
G37*
G36*
X209987D02*X229280D01*
Y101727D01*
X229267Y101712D01*
X228889Y101095D01*
X228612Y100426D01*
X228443Y99722D01*
X228386Y99000D01*
X228443Y98278D01*
X228612Y97574D01*
X228889Y96905D01*
X229267Y96288D01*
X229280Y96273D01*
Y91727D01*
X229267Y91712D01*
X228889Y91095D01*
X228612Y90426D01*
X228443Y89722D01*
X228386Y89000D01*
X228443Y88278D01*
X228612Y87574D01*
X228889Y86905D01*
X229267Y86288D01*
X229280Y86273D01*
Y81541D01*
X228978Y81049D01*
X228707Y80395D01*
X228542Y79706D01*
X228486Y79000D01*
X228542Y78294D01*
X228707Y77605D01*
X228978Y76951D01*
X229280Y76459D01*
Y71456D01*
X229229Y71417D01*
X229174Y71361D01*
X229130Y71296D01*
X228936Y70944D01*
X228779Y70574D01*
X228656Y70191D01*
X228567Y69800D01*
X228513Y69401D01*
X228496Y69000D01*
X228513Y68599D01*
X228567Y68200D01*
X228656Y67809D01*
X228779Y67426D01*
X228936Y67056D01*
X229126Y66702D01*
X229171Y66637D01*
X229226Y66580D01*
X229280Y66540D01*
Y47752D01*
X228157Y46793D01*
X227135Y45596D01*
X226312Y44254D01*
X225710Y42800D01*
X225343Y41269D01*
X225219Y39700D01*
X225343Y38131D01*
X225710Y36600D01*
X226312Y35146D01*
X227135Y33804D01*
X228157Y32607D01*
X229280Y31648D01*
Y28052D01*
X228157Y27093D01*
X227135Y25896D01*
X226312Y24554D01*
X225710Y23100D01*
X225343Y21569D01*
X225219Y20000D01*
X225343Y18431D01*
X225710Y16900D01*
X226312Y15446D01*
X227135Y14104D01*
X228157Y12907D01*
X229280Y11948D01*
Y2000D01*
X209987D01*
Y20276D01*
X210000Y20275D01*
X211287Y20376D01*
X212542Y20677D01*
X213734Y21171D01*
X214835Y21846D01*
X215816Y22684D01*
X216654Y23665D01*
X217329Y24766D01*
X217823Y25958D01*
X218124Y27213D01*
X218200Y28500D01*
X218124Y29787D01*
X217823Y31042D01*
X217329Y32234D01*
X216654Y33335D01*
X215816Y34316D01*
X214835Y35154D01*
X213734Y35829D01*
X212542Y36323D01*
X211287Y36624D01*
X210000Y36725D01*
X209987Y36724D01*
Y110000D01*
G37*
G36*
X197493D02*X209987D01*
Y36724D01*
X208713Y36624D01*
X207458Y36323D01*
X206266Y35829D01*
X205165Y35154D01*
X204184Y34316D01*
X203346Y33335D01*
X202671Y32234D01*
X202177Y31042D01*
X201876Y29787D01*
X201775Y28500D01*
X201876Y27213D01*
X202177Y25958D01*
X202671Y24766D01*
X203346Y23665D01*
X204184Y22684D01*
X205165Y21846D01*
X206266Y21171D01*
X207458Y20677D01*
X208713Y20376D01*
X209987Y20276D01*
Y2000D01*
X197493D01*
Y43250D01*
X200912D01*
X201000Y43243D01*
X201353Y43271D01*
X201353Y43271D01*
X201697Y43354D01*
X202025Y43489D01*
X202327Y43674D01*
X202596Y43904D01*
X202653Y43971D01*
X204029Y45347D01*
X204096Y45404D01*
X204326Y45673D01*
X204326Y45673D01*
X204511Y45975D01*
X204646Y46303D01*
X204729Y46647D01*
X204757Y47000D01*
X204750Y47088D01*
Y49601D01*
X205153Y49848D01*
X205692Y50308D01*
X206152Y50847D01*
X206522Y51451D01*
X206793Y52105D01*
X206958Y52794D01*
X207000Y53500D01*
X206958Y54206D01*
X206793Y54895D01*
X206522Y55549D01*
X206152Y56153D01*
X205692Y56692D01*
X205153Y57152D01*
X204549Y57522D01*
X203895Y57793D01*
X203206Y57958D01*
X202500Y58014D01*
X201794Y57958D01*
X201105Y57793D01*
X200451Y57522D01*
X199847Y57152D01*
X199308Y56692D01*
X198848Y56153D01*
X198478Y55549D01*
X198207Y54895D01*
X198042Y54206D01*
X197986Y53500D01*
X198042Y52794D01*
X198207Y52105D01*
X198478Y51451D01*
X198848Y50847D01*
X199308Y50308D01*
X199847Y49848D01*
X200250Y49601D01*
Y47932D01*
X200068Y47750D01*
X197493D01*
Y58987D01*
X197500Y58986D01*
X198206Y59042D01*
X198895Y59207D01*
X199549Y59478D01*
X200153Y59848D01*
X200692Y60308D01*
X201152Y60847D01*
X201522Y61451D01*
X201793Y62105D01*
X201958Y62794D01*
X202000Y63500D01*
X201958Y64206D01*
X201793Y64895D01*
X201522Y65549D01*
X201152Y66153D01*
X200692Y66692D01*
X200153Y67152D01*
X199549Y67522D01*
X198895Y67793D01*
X198206Y67958D01*
X197500Y68014D01*
X197493Y68013D01*
Y110000D01*
G37*
G36*
Y2000D02*X192493D01*
Y43250D01*
X197493D01*
Y2000D01*
G37*
G36*
X192493Y110000D02*X197493D01*
Y68013D01*
X196794Y67958D01*
X196105Y67793D01*
X195451Y67522D01*
X194847Y67152D01*
X194308Y66692D01*
X193848Y66153D01*
X193478Y65549D01*
X193207Y64895D01*
X193042Y64206D01*
X192986Y63500D01*
X193042Y62794D01*
X193207Y62105D01*
X193478Y61451D01*
X193848Y60847D01*
X194308Y60308D01*
X194847Y59848D01*
X195451Y59478D01*
X196105Y59207D01*
X196794Y59042D01*
X197493Y58987D01*
Y47750D01*
X192493D01*
Y48886D01*
X192500Y48886D01*
X193222Y48943D01*
X193926Y49112D01*
X194595Y49389D01*
X195212Y49767D01*
X195763Y50237D01*
X196233Y50788D01*
X196611Y51405D01*
X196888Y52074D01*
X197057Y52778D01*
X197100Y53500D01*
X197057Y54222D01*
X196888Y54926D01*
X196611Y55595D01*
X196233Y56212D01*
X195763Y56763D01*
X195212Y57233D01*
X194595Y57611D01*
X193926Y57888D01*
X193222Y58057D01*
X192500Y58114D01*
X192493Y58114D01*
Y62450D01*
X192553Y62700D01*
X192600Y63500D01*
X192553Y64300D01*
X192493Y64550D01*
Y110000D01*
G37*
G36*
Y47750D02*X186220D01*
Y51044D01*
X186271Y51083D01*
X186326Y51139D01*
X186370Y51204D01*
X186564Y51556D01*
X186721Y51926D01*
X186844Y52309D01*
X186933Y52700D01*
X186987Y53099D01*
X187004Y53500D01*
X186987Y53901D01*
X186933Y54300D01*
X186844Y54691D01*
X186721Y55074D01*
X186564Y55444D01*
X186374Y55798D01*
X186329Y55863D01*
X186274Y55920D01*
X186220Y55960D01*
Y58562D01*
X186700Y58447D01*
X187500Y58384D01*
X188300Y58447D01*
X189081Y58635D01*
X189822Y58942D01*
X190507Y59361D01*
X191117Y59883D01*
X191639Y60493D01*
X192058Y61178D01*
X192365Y61919D01*
X192493Y62450D01*
Y58114D01*
X191778Y58057D01*
X191074Y57888D01*
X190405Y57611D01*
X189788Y57233D01*
X189237Y56763D01*
X188767Y56212D01*
X188389Y55595D01*
X188112Y54926D01*
X187943Y54222D01*
X187886Y53500D01*
X187943Y52778D01*
X188112Y52074D01*
X188389Y51405D01*
X188767Y50788D01*
X189237Y50237D01*
X189788Y49767D01*
X190405Y49389D01*
X191074Y49112D01*
X191778Y48943D01*
X192493Y48886D01*
Y47750D01*
G37*
G36*
Y2000D02*X186220D01*
Y43250D01*
X192493D01*
Y2000D01*
G37*
G36*
X186220Y110000D02*X192493D01*
Y64550D01*
X192365Y65081D01*
X192058Y65822D01*
X191639Y66507D01*
X191117Y67117D01*
X190507Y67639D01*
X189822Y68058D01*
X189081Y68365D01*
X188300Y68553D01*
X187500Y68616D01*
X186700Y68553D01*
X186220Y68438D01*
Y76014D01*
X186235Y76014D01*
X186465Y76069D01*
X186683Y76159D01*
X186884Y76283D01*
X187064Y76436D01*
X187217Y76616D01*
X187341Y76817D01*
X187431Y77035D01*
X187486Y77265D01*
X187500Y77500D01*
X187486Y83735D01*
X187431Y83965D01*
X187341Y84183D01*
X187217Y84384D01*
X187064Y84564D01*
X186884Y84717D01*
X186683Y84841D01*
X186465Y84931D01*
X186235Y84986D01*
X186220Y84987D01*
Y87342D01*
X186652Y87847D01*
X187022Y88451D01*
X187293Y89105D01*
X187458Y89794D01*
X187500Y90500D01*
X187458Y91206D01*
X187293Y91895D01*
X187022Y92549D01*
X186652Y93153D01*
X186220Y93658D01*
Y97342D01*
X186652Y97847D01*
X187022Y98451D01*
X187293Y99105D01*
X187458Y99794D01*
X187500Y100500D01*
X187458Y101206D01*
X187293Y101895D01*
X187022Y102549D01*
X186652Y103153D01*
X186220Y103658D01*
Y110000D01*
G37*
G36*
Y93658D02*X186192Y93692D01*
X185653Y94152D01*
X185049Y94522D01*
X184395Y94793D01*
X183706Y94958D01*
X183000Y95014D01*
X182502Y94975D01*
Y96025D01*
X183000Y95986D01*
X183706Y96042D01*
X184395Y96207D01*
X185049Y96478D01*
X185653Y96848D01*
X186192Y97308D01*
X186220Y97342D01*
Y93658D01*
G37*
G36*
Y84987D02*X186000Y85000D01*
X182502Y84992D01*
Y86025D01*
X183000Y85986D01*
X183706Y86042D01*
X184395Y86207D01*
X185049Y86478D01*
X185653Y86848D01*
X186192Y87308D01*
X186220Y87342D01*
Y84987D01*
G37*
G36*
Y68438D02*X185919Y68365D01*
X185847Y68335D01*
X182502Y71680D01*
Y76006D01*
X186220Y76014D01*
Y68438D01*
G37*
G36*
Y47750D02*X182502D01*
Y48996D01*
X182901Y49013D01*
X183300Y49067D01*
X183691Y49156D01*
X184074Y49279D01*
X184444Y49436D01*
X184798Y49626D01*
X184863Y49671D01*
X184920Y49726D01*
X184968Y49790D01*
X185004Y49860D01*
X185030Y49935D01*
X185044Y50013D01*
X185045Y50092D01*
X185033Y50171D01*
X185010Y50246D01*
X184975Y50317D01*
X184929Y50382D01*
X184874Y50439D01*
X184811Y50487D01*
X184741Y50524D01*
X184666Y50549D01*
X184588Y50563D01*
X184508Y50564D01*
X184430Y50552D01*
X184354Y50529D01*
X184284Y50493D01*
X184010Y50343D01*
X183723Y50221D01*
X183426Y50125D01*
X183121Y50056D01*
X182812Y50014D01*
X182502Y50000D01*
Y57000D01*
X182812Y56986D01*
X183121Y56944D01*
X183426Y56875D01*
X183723Y56779D01*
X184010Y56657D01*
X184286Y56510D01*
X184355Y56474D01*
X184431Y56451D01*
X184509Y56440D01*
X184587Y56441D01*
X184665Y56454D01*
X184739Y56480D01*
X184809Y56516D01*
X184872Y56564D01*
X184927Y56620D01*
X184972Y56684D01*
X185007Y56755D01*
X185030Y56830D01*
X185041Y56908D01*
X185040Y56987D01*
X185027Y57064D01*
X185001Y57139D01*
X184965Y57208D01*
X184917Y57271D01*
X184861Y57326D01*
X184796Y57370D01*
X184444Y57564D01*
X184074Y57721D01*
X183691Y57844D01*
X183300Y57933D01*
X182901Y57987D01*
X182502Y58004D01*
Y62473D01*
X182635Y61919D01*
X182942Y61178D01*
X183361Y60493D01*
X183883Y59883D01*
X184493Y59361D01*
X185178Y58942D01*
X185919Y58635D01*
X186220Y58562D01*
Y55960D01*
X186210Y55968D01*
X186140Y56004D01*
X186065Y56030D01*
X185987Y56044D01*
X185908Y56045D01*
X185829Y56033D01*
X185754Y56010D01*
X185683Y55975D01*
X185618Y55929D01*
X185561Y55874D01*
X185513Y55811D01*
X185476Y55741D01*
X185451Y55666D01*
X185437Y55588D01*
X185436Y55508D01*
X185448Y55430D01*
X185471Y55354D01*
X185507Y55284D01*
X185657Y55010D01*
X185779Y54723D01*
X185875Y54426D01*
X185944Y54121D01*
X185986Y53812D01*
X186000Y53500D01*
X185986Y53188D01*
X185944Y52879D01*
X185875Y52574D01*
X185779Y52277D01*
X185657Y51990D01*
X185510Y51714D01*
X185474Y51645D01*
X185451Y51569D01*
X185440Y51491D01*
X185441Y51413D01*
X185454Y51335D01*
X185480Y51261D01*
X185516Y51191D01*
X185564Y51128D01*
X185620Y51073D01*
X185684Y51028D01*
X185755Y50993D01*
X185830Y50970D01*
X185908Y50959D01*
X185987Y50960D01*
X186064Y50973D01*
X186139Y50999D01*
X186208Y51035D01*
X186220Y51044D01*
Y47750D01*
G37*
G36*
Y2000D02*X182502D01*
Y43250D01*
X186220D01*
Y2000D01*
G37*
G36*
X182502Y110000D02*X186220D01*
Y103658D01*
X186192Y103692D01*
X185653Y104152D01*
X185049Y104522D01*
X184395Y104793D01*
X183706Y104958D01*
X183000Y105014D01*
X182502Y104975D01*
Y110000D01*
G37*
G36*
Y47750D02*X178780D01*
Y51040D01*
X178790Y51032D01*
X178860Y50996D01*
X178935Y50970D01*
X179013Y50956D01*
X179092Y50955D01*
X179171Y50967D01*
X179246Y50990D01*
X179317Y51025D01*
X179382Y51071D01*
X179439Y51126D01*
X179487Y51189D01*
X179524Y51259D01*
X179549Y51334D01*
X179563Y51412D01*
X179564Y51492D01*
X179552Y51570D01*
X179529Y51646D01*
X179493Y51716D01*
X179343Y51990D01*
X179221Y52277D01*
X179125Y52574D01*
X179056Y52879D01*
X179014Y53188D01*
X179000Y53500D01*
X179014Y53812D01*
X179056Y54121D01*
X179125Y54426D01*
X179221Y54723D01*
X179343Y55010D01*
X179490Y55286D01*
X179526Y55355D01*
X179549Y55431D01*
X179560Y55509D01*
X179559Y55587D01*
X179546Y55665D01*
X179520Y55739D01*
X179484Y55809D01*
X179436Y55872D01*
X179380Y55927D01*
X179316Y55972D01*
X179245Y56007D01*
X179170Y56030D01*
X179092Y56041D01*
X179013Y56040D01*
X178936Y56027D01*
X178861Y56001D01*
X178792Y55965D01*
X178780Y55956D01*
Y58768D01*
X179019Y58825D01*
X179731Y59121D01*
X180389Y59524D01*
X180976Y60024D01*
X181476Y60611D01*
X181879Y61269D01*
X182175Y61981D01*
X182355Y62731D01*
X182393Y63386D01*
X182447Y62700D01*
X182502Y62473D01*
Y58004D01*
X182500Y58004D01*
X182099Y57987D01*
X181700Y57933D01*
X181309Y57844D01*
X180926Y57721D01*
X180556Y57564D01*
X180202Y57374D01*
X180137Y57329D01*
X180080Y57274D01*
X180032Y57210D01*
X179996Y57140D01*
X179970Y57065D01*
X179956Y56987D01*
X179955Y56908D01*
X179967Y56829D01*
X179990Y56754D01*
X180025Y56683D01*
X180071Y56618D01*
X180126Y56561D01*
X180189Y56513D01*
X180259Y56476D01*
X180334Y56451D01*
X180412Y56437D01*
X180492Y56436D01*
X180570Y56448D01*
X180646Y56471D01*
X180716Y56507D01*
X180990Y56657D01*
X181277Y56779D01*
X181574Y56875D01*
X181879Y56944D01*
X182188Y56986D01*
X182500Y57000D01*
X182502Y57000D01*
Y50000D01*
X182500Y50000D01*
X182188Y50014D01*
X181879Y50056D01*
X181574Y50125D01*
X181277Y50221D01*
X180990Y50343D01*
X180714Y50490D01*
X180645Y50526D01*
X180569Y50549D01*
X180491Y50560D01*
X180413Y50559D01*
X180335Y50546D01*
X180261Y50520D01*
X180191Y50484D01*
X180128Y50436D01*
X180073Y50380D01*
X180028Y50316D01*
X179993Y50245D01*
X179970Y50170D01*
X179959Y50092D01*
X179960Y50013D01*
X179973Y49936D01*
X179999Y49861D01*
X180035Y49792D01*
X180083Y49729D01*
X180139Y49674D01*
X180204Y49630D01*
X180556Y49436D01*
X180926Y49279D01*
X181309Y49156D01*
X181700Y49067D01*
X182099Y49013D01*
X182500Y48996D01*
X182502Y48996D01*
Y47750D01*
G37*
G36*
X178780D02*X169987D01*
Y59750D01*
X174346D01*
X174611Y59524D01*
X175269Y59121D01*
X175981Y58825D01*
X176731Y58645D01*
X177500Y58585D01*
X178269Y58645D01*
X178780Y58768D01*
Y55956D01*
X178729Y55917D01*
X178674Y55861D01*
X178630Y55796D01*
X178436Y55444D01*
X178279Y55074D01*
X178156Y54691D01*
X178067Y54300D01*
X178013Y53901D01*
X177996Y53500D01*
X178013Y53099D01*
X178067Y52700D01*
X178156Y52309D01*
X178279Y51926D01*
X178436Y51556D01*
X178626Y51202D01*
X178671Y51137D01*
X178726Y51080D01*
X178780Y51040D01*
Y47750D01*
G37*
G36*
X182502Y2000D02*X169987D01*
Y20276D01*
X170000Y20275D01*
X171287Y20376D01*
X172542Y20677D01*
X173734Y21171D01*
X174835Y21846D01*
X175816Y22684D01*
X176654Y23665D01*
X177329Y24766D01*
X177823Y25958D01*
X178124Y27213D01*
X178200Y28500D01*
X178124Y29787D01*
X177823Y31042D01*
X177329Y32234D01*
X176654Y33335D01*
X175816Y34316D01*
X174835Y35154D01*
X173734Y35829D01*
X172542Y36323D01*
X171287Y36624D01*
X170000Y36725D01*
X169987Y36724D01*
Y43250D01*
X182502D01*
Y2000D01*
G37*
G36*
X169987Y110000D02*X182502D01*
Y104975D01*
X182294Y104958D01*
X181605Y104793D01*
X180951Y104522D01*
X180347Y104152D01*
X179808Y103692D01*
X179348Y103153D01*
X178978Y102549D01*
X178707Y101895D01*
X178542Y101206D01*
X178486Y100500D01*
X178542Y99794D01*
X178707Y99105D01*
X178978Y98451D01*
X179348Y97847D01*
X179808Y97308D01*
X180347Y96848D01*
X180951Y96478D01*
X181605Y96207D01*
X182294Y96042D01*
X182502Y96025D01*
Y94975D01*
X182294Y94958D01*
X181605Y94793D01*
X180951Y94522D01*
X180347Y94152D01*
X179808Y93692D01*
X179348Y93153D01*
X178978Y92549D01*
X178707Y91895D01*
X178542Y91206D01*
X178486Y90500D01*
X178542Y89794D01*
X178707Y89105D01*
X178978Y88451D01*
X179348Y87847D01*
X179808Y87308D01*
X180347Y86848D01*
X180951Y86478D01*
X181605Y86207D01*
X182294Y86042D01*
X182502Y86025D01*
Y84992D01*
X179765Y84986D01*
X179535Y84931D01*
X179317Y84841D01*
X179116Y84717D01*
X178936Y84564D01*
X178783Y84384D01*
X178659Y84183D01*
X178569Y83965D01*
X178514Y83735D01*
X178500Y83500D01*
X178514Y77265D01*
X178569Y77035D01*
X178659Y76817D01*
X178783Y76616D01*
X178936Y76436D01*
X179116Y76283D01*
X179317Y76159D01*
X179535Y76069D01*
X179765Y76014D01*
X180000Y76000D01*
X182502Y76006D01*
Y71680D01*
X181653Y72529D01*
X181596Y72596D01*
X181327Y72826D01*
X181025Y73011D01*
X180697Y73146D01*
X180353Y73229D01*
X180353Y73229D01*
X180000Y73257D01*
X179912Y73250D01*
X169987D01*
Y110000D01*
G37*
G36*
Y47750D02*X154500D01*
Y59750D01*
X160500D01*
X160500Y59750D01*
X169987D01*
Y47750D01*
G37*
G36*
Y2000D02*X154500D01*
Y11773D01*
X155000Y11734D01*
X155824Y11799D01*
X156627Y11992D01*
X157391Y12308D01*
X158095Y12740D01*
X158724Y13276D01*
X159260Y13905D01*
X159692Y14609D01*
X160008Y15373D01*
X160201Y16176D01*
X160250Y17000D01*
X160201Y17824D01*
X160008Y18627D01*
X159692Y19391D01*
X159260Y20095D01*
X158724Y20724D01*
X158095Y21260D01*
X157391Y21692D01*
X156627Y22008D01*
X155824Y22201D01*
X155000Y22266D01*
X154500Y22227D01*
Y27578D01*
X154617Y27716D01*
X154741Y27917D01*
X154831Y28135D01*
X154886Y28365D01*
X154900Y28600D01*
X154886Y35635D01*
X154831Y35865D01*
X154741Y36083D01*
X154617Y36284D01*
X154500Y36422D01*
Y43250D01*
X169987D01*
Y36724D01*
X168713Y36624D01*
X167458Y36323D01*
X166266Y35829D01*
X165165Y35154D01*
X164184Y34316D01*
X163346Y33335D01*
X162671Y32234D01*
X162177Y31042D01*
X161876Y29787D01*
X161775Y28500D01*
X161876Y27213D01*
X162177Y25958D01*
X162671Y24766D01*
X163346Y23665D01*
X164184Y22684D01*
X165165Y21846D01*
X166266Y21171D01*
X167458Y20677D01*
X168713Y20376D01*
X169987Y20276D01*
Y2000D01*
G37*
G36*
X154500Y110000D02*X169987D01*
Y73250D01*
X164588D01*
X164500Y73257D01*
X164147Y73229D01*
X163803Y73146D01*
X163475Y73011D01*
X163173Y72826D01*
X163173Y72826D01*
X162904Y72596D01*
X162847Y72529D01*
X158068Y67750D01*
X154500D01*
Y70060D01*
X154675Y70481D01*
X154855Y71231D01*
X154900Y72000D01*
X154855Y72769D01*
X154675Y73519D01*
X154500Y73940D01*
Y90284D01*
X154551Y89637D01*
X154753Y88795D01*
X155084Y87995D01*
X155537Y87257D01*
X156099Y86599D01*
X156757Y86037D01*
X157495Y85584D01*
X158295Y85253D01*
X159137Y85051D01*
X160000Y84983D01*
X160863Y85051D01*
X161705Y85253D01*
X162505Y85584D01*
X163243Y86037D01*
X163901Y86599D01*
X164463Y87257D01*
X164916Y87995D01*
X165247Y88795D01*
X165449Y89637D01*
X165500Y90500D01*
X165449Y91363D01*
X165247Y92205D01*
X164916Y93005D01*
X164463Y93743D01*
X163901Y94401D01*
X163243Y94963D01*
X162505Y95416D01*
X161705Y95747D01*
X160863Y95949D01*
X160000Y96017D01*
X159137Y95949D01*
X158295Y95747D01*
X157495Y95416D01*
X156757Y94963D01*
X156099Y94401D01*
X155537Y93743D01*
X155084Y93005D01*
X154753Y92205D01*
X154551Y91363D01*
X154500Y90716D01*
Y110000D01*
G37*
G36*
Y67750D02*X152443D01*
X152889Y68024D01*
X153476Y68524D01*
X153976Y69111D01*
X154379Y69769D01*
X154500Y70060D01*
Y67750D01*
G37*
G36*
Y47750D02*X145000D01*
Y59750D01*
X154500D01*
Y47750D01*
G37*
G36*
Y2000D02*X145000D01*
Y11750D01*
X147250D01*
X147368Y11757D01*
X147482Y11785D01*
X147592Y11830D01*
X147692Y11891D01*
X147782Y11968D01*
X147859Y12058D01*
X147920Y12158D01*
X147965Y12268D01*
X147993Y12382D01*
X148002Y12500D01*
X147993Y12618D01*
X147965Y12732D01*
X147920Y12842D01*
X147859Y12942D01*
X147782Y13032D01*
X147692Y13109D01*
X147592Y13170D01*
X147482Y13215D01*
X147368Y13243D01*
X147250Y13250D01*
X145000D01*
Y20750D01*
X147250D01*
X147368Y20757D01*
X147482Y20785D01*
X147592Y20830D01*
X147692Y20891D01*
X147782Y20968D01*
X147859Y21058D01*
X147920Y21158D01*
X147965Y21268D01*
X147993Y21382D01*
X148002Y21500D01*
X147993Y21618D01*
X147965Y21732D01*
X147920Y21842D01*
X147859Y21942D01*
X147782Y22032D01*
X147692Y22109D01*
X147592Y22170D01*
X147482Y22215D01*
X147368Y22243D01*
X147250Y22250D01*
X145000D01*
Y43250D01*
X154500D01*
Y36422D01*
X154464Y36464D01*
X154284Y36617D01*
X154083Y36741D01*
X153865Y36831D01*
X153635Y36886D01*
X153400Y36900D01*
X146365Y36886D01*
X146135Y36831D01*
X145917Y36741D01*
X145716Y36617D01*
X145536Y36464D01*
X145383Y36284D01*
X145259Y36083D01*
X145169Y35865D01*
X145114Y35635D01*
X145100Y35400D01*
X145114Y28365D01*
X145169Y28135D01*
X145259Y27917D01*
X145383Y27716D01*
X145536Y27536D01*
X145716Y27383D01*
X145917Y27259D01*
X146135Y27169D01*
X146365Y27114D01*
X146600Y27100D01*
X153635Y27114D01*
X153865Y27169D01*
X154083Y27259D01*
X154284Y27383D01*
X154464Y27536D01*
X154500Y27578D01*
Y22227D01*
X154176Y22201D01*
X153373Y22008D01*
X152609Y21692D01*
X151905Y21260D01*
X151276Y20724D01*
X150740Y20095D01*
X150308Y19391D01*
X150250Y19251D01*
X150243Y19368D01*
X150215Y19482D01*
X150170Y19592D01*
X150109Y19692D01*
X150032Y19782D01*
X149942Y19859D01*
X149842Y19920D01*
X149732Y19965D01*
X149618Y19993D01*
X149500Y20002D01*
X149382Y19993D01*
X149268Y19965D01*
X149158Y19920D01*
X149058Y19859D01*
X148968Y19782D01*
X148891Y19692D01*
X148830Y19592D01*
X148785Y19482D01*
X148757Y19368D01*
X148750Y19250D01*
Y14750D01*
X148757Y14632D01*
X148785Y14518D01*
X148830Y14408D01*
X148891Y14308D01*
X148968Y14218D01*
X149058Y14141D01*
X149158Y14080D01*
X149268Y14035D01*
X149382Y14007D01*
X149500Y13998D01*
X149618Y14007D01*
X149732Y14035D01*
X149842Y14080D01*
X149942Y14141D01*
X150032Y14218D01*
X150109Y14308D01*
X150170Y14408D01*
X150215Y14518D01*
X150243Y14632D01*
X150250Y14749D01*
X150308Y14609D01*
X150740Y13905D01*
X151276Y13276D01*
X151905Y12740D01*
X152609Y12308D01*
X153373Y11992D01*
X154176Y11799D01*
X154500Y11773D01*
Y2000D01*
G37*
G36*
X145000Y110000D02*X154500D01*
Y90716D01*
X154483Y90500D01*
X154500Y90284D01*
Y73940D01*
X154379Y74231D01*
X153976Y74889D01*
X153476Y75476D01*
X152889Y75976D01*
X152231Y76379D01*
X151519Y76675D01*
X150769Y76855D01*
X150000Y76915D01*
X149231Y76855D01*
X148481Y76675D01*
X147769Y76379D01*
X147111Y75976D01*
X146524Y75476D01*
X146024Y74889D01*
X145621Y74231D01*
X145325Y73519D01*
X145145Y72769D01*
X145085Y72000D01*
X145145Y71231D01*
X145325Y70481D01*
X145621Y69769D01*
X146024Y69111D01*
X146524Y68524D01*
X147111Y68024D01*
X147557Y67750D01*
X145000D01*
Y110000D01*
G37*
G36*
Y47750D02*X127543D01*
Y67250D01*
X132401D01*
X131977Y67148D01*
X131497Y66949D01*
X131054Y66678D01*
X130659Y66341D01*
X130322Y65946D01*
X130051Y65503D01*
X129852Y65023D01*
X129731Y64518D01*
X129690Y64000D01*
X129731Y63482D01*
X129852Y62977D01*
X130051Y62497D01*
X130322Y62054D01*
X130659Y61659D01*
X131054Y61322D01*
X131497Y61051D01*
X131977Y60852D01*
X132482Y60731D01*
X133000Y60690D01*
X133518Y60731D01*
X134023Y60852D01*
X134503Y61051D01*
X134946Y61322D01*
X135341Y61659D01*
X135418Y61750D01*
X135823D01*
X135849Y61728D01*
X136225Y61497D01*
X136632Y61329D01*
X137061Y61226D01*
X137500Y61191D01*
X137939Y61226D01*
X138063Y61256D01*
X138847Y60471D01*
X138904Y60404D01*
X139173Y60174D01*
X139173Y60174D01*
X139475Y59989D01*
X139803Y59854D01*
X140147Y59771D01*
X140500Y59743D01*
X140588Y59750D01*
X145000D01*
Y47750D01*
G37*
G36*
Y2000D02*X140500D01*
Y13998D01*
X140618Y14007D01*
X140732Y14035D01*
X140842Y14080D01*
X140942Y14141D01*
X141032Y14218D01*
X141109Y14308D01*
X141170Y14408D01*
X141215Y14518D01*
X141243Y14632D01*
X141250Y14750D01*
Y19250D01*
X141243Y19368D01*
X141215Y19482D01*
X141170Y19592D01*
X141109Y19692D01*
X141032Y19782D01*
X140942Y19859D01*
X140842Y19920D01*
X140732Y19965D01*
X140618Y19993D01*
X140500Y20002D01*
Y43250D01*
X145000D01*
Y22250D01*
X142750D01*
X142632Y22243D01*
X142518Y22215D01*
X142408Y22170D01*
X142308Y22109D01*
X142218Y22032D01*
X142141Y21942D01*
X142080Y21842D01*
X142035Y21732D01*
X142007Y21618D01*
X141998Y21500D01*
X142007Y21382D01*
X142035Y21268D01*
X142080Y21158D01*
X142141Y21058D01*
X142218Y20968D01*
X142308Y20891D01*
X142408Y20830D01*
X142518Y20785D01*
X142632Y20757D01*
X142750Y20750D01*
X145000D01*
Y13250D01*
X142750D01*
X142632Y13243D01*
X142518Y13215D01*
X142408Y13170D01*
X142308Y13109D01*
X142218Y13032D01*
X142141Y12942D01*
X142080Y12842D01*
X142035Y12732D01*
X142007Y12618D01*
X141998Y12500D01*
X142007Y12382D01*
X142035Y12268D01*
X142080Y12158D01*
X142141Y12058D01*
X142218Y11968D01*
X142308Y11891D01*
X142408Y11830D01*
X142518Y11785D01*
X142632Y11757D01*
X142750Y11750D01*
X145000D01*
Y2000D01*
G37*
G36*
X140500D02*X127543D01*
Y20657D01*
X128713Y20376D01*
X130000Y20275D01*
X131287Y20376D01*
X132542Y20677D01*
X133734Y21171D01*
X134835Y21846D01*
X135816Y22684D01*
X136654Y23665D01*
X137329Y24766D01*
X137823Y25958D01*
X138124Y27213D01*
X138200Y28500D01*
X138124Y29787D01*
X137823Y31042D01*
X137329Y32234D01*
X136654Y33335D01*
X135816Y34316D01*
X134835Y35154D01*
X133734Y35829D01*
X132542Y36323D01*
X131287Y36624D01*
X130000Y36725D01*
X128713Y36624D01*
X127543Y36343D01*
Y43250D01*
X140500D01*
Y20002D01*
X140382Y19993D01*
X140268Y19965D01*
X140158Y19920D01*
X140058Y19859D01*
X139968Y19782D01*
X139891Y19692D01*
X139830Y19592D01*
X139785Y19482D01*
X139757Y19368D01*
X139750Y19250D01*
Y14750D01*
X139757Y14632D01*
X139785Y14518D01*
X139830Y14408D01*
X139891Y14308D01*
X139968Y14218D01*
X140058Y14141D01*
X140158Y14080D01*
X140268Y14035D01*
X140382Y14007D01*
X140500Y13998D01*
Y2000D01*
G37*
G36*
X140000Y110000D02*X145000D01*
Y67750D01*
X143432D01*
X140153Y71029D01*
X140096Y71096D01*
X140000Y71178D01*
Y86007D01*
X143235Y86014D01*
X143465Y86069D01*
X143683Y86159D01*
X143884Y86283D01*
X144064Y86436D01*
X144217Y86616D01*
X144341Y86817D01*
X144431Y87035D01*
X144486Y87265D01*
X144500Y87500D01*
X144486Y93735D01*
X144431Y93965D01*
X144341Y94183D01*
X144217Y94384D01*
X144064Y94564D01*
X143884Y94717D01*
X143683Y94841D01*
X143465Y94931D01*
X143235Y94986D01*
X143000Y95000D01*
X140000Y94993D01*
Y110000D01*
G37*
G36*
X127543D02*X140000D01*
Y94993D01*
X136765Y94986D01*
X136535Y94931D01*
X136317Y94841D01*
X136116Y94717D01*
X135936Y94564D01*
X135783Y94384D01*
X135659Y94183D01*
X135569Y93965D01*
X135514Y93735D01*
X135500Y93500D01*
X135514Y87265D01*
X135569Y87035D01*
X135659Y86817D01*
X135783Y86616D01*
X135936Y86436D01*
X136116Y86283D01*
X136317Y86159D01*
X136535Y86069D01*
X136765Y86014D01*
X137000Y86000D01*
X140000Y86007D01*
Y71178D01*
X139827Y71326D01*
X139525Y71511D01*
X139197Y71646D01*
X138853Y71729D01*
X138853Y71729D01*
X138500Y71757D01*
X138412Y71750D01*
X127543D01*
Y110000D01*
G37*
G36*
X89987Y42564D02*X90039Y42543D01*
X90514Y42429D01*
X91000Y42390D01*
X91486Y42429D01*
X91961Y42543D01*
X92412Y42729D01*
X92828Y42984D01*
X93139Y43250D01*
X114500D01*
X114500Y43250D01*
X122412D01*
X122500Y43243D01*
X122588Y43250D01*
X127543D01*
Y36343D01*
X127458Y36323D01*
X126266Y35829D01*
X125165Y35154D01*
X124184Y34316D01*
X123346Y33335D01*
X122671Y32234D01*
X122177Y31042D01*
X121876Y29787D01*
X121775Y28500D01*
X121876Y27213D01*
X122177Y25958D01*
X122671Y24766D01*
X123346Y23665D01*
X124184Y22684D01*
X125165Y21846D01*
X126266Y21171D01*
X127458Y20677D01*
X127543Y20657D01*
Y2000D01*
X89987D01*
Y20276D01*
X90000Y20275D01*
X91287Y20376D01*
X92542Y20677D01*
X93734Y21171D01*
X94835Y21846D01*
X95816Y22684D01*
X96654Y23665D01*
X97329Y24766D01*
X97823Y25958D01*
X98124Y27213D01*
X98200Y28500D01*
X98124Y29787D01*
X97823Y31042D01*
X97329Y32234D01*
X96654Y33335D01*
X95816Y34316D01*
X94835Y35154D01*
X93734Y35829D01*
X92542Y36323D01*
X91287Y36624D01*
X90000Y36725D01*
X89987Y36724D01*
Y42564D01*
G37*
G36*
X112493Y62023D02*X112652Y62684D01*
X112700Y63500D01*
X112652Y64316D01*
X112493Y64977D01*
Y67250D01*
X115007D01*
X114847Y67152D01*
X114308Y66692D01*
X113848Y66153D01*
X113478Y65549D01*
X113207Y64895D01*
X113042Y64206D01*
X112986Y63500D01*
X113042Y62794D01*
X113207Y62105D01*
X113478Y61451D01*
X113848Y60847D01*
X114308Y60308D01*
X114847Y59848D01*
X115451Y59478D01*
X116105Y59207D01*
X116794Y59042D01*
X117500Y58986D01*
X118206Y59042D01*
X118895Y59207D01*
X119549Y59478D01*
X120153Y59848D01*
X120692Y60308D01*
X121152Y60847D01*
X121522Y61451D01*
X121793Y62105D01*
X121958Y62794D01*
X122000Y63500D01*
X121958Y64206D01*
X121793Y64895D01*
X121522Y65549D01*
X121152Y66153D01*
X120692Y66692D01*
X120153Y67152D01*
X119993Y67250D01*
X127543D01*
Y47750D01*
X124750D01*
Y49601D01*
X125153Y49848D01*
X125692Y50308D01*
X126152Y50847D01*
X126522Y51451D01*
X126793Y52105D01*
X126958Y52794D01*
X127000Y53500D01*
X126958Y54206D01*
X126793Y54895D01*
X126522Y55549D01*
X126152Y56153D01*
X125692Y56692D01*
X125153Y57152D01*
X124549Y57522D01*
X123895Y57793D01*
X123206Y57958D01*
X122500Y58014D01*
X121794Y57958D01*
X121105Y57793D01*
X120451Y57522D01*
X119847Y57152D01*
X119308Y56692D01*
X118848Y56153D01*
X118478Y55549D01*
X118207Y54895D01*
X118042Y54206D01*
X117986Y53500D01*
X118042Y52794D01*
X118207Y52105D01*
X118478Y51451D01*
X118848Y50847D01*
X119308Y50308D01*
X119847Y49848D01*
X120250Y49601D01*
Y47750D01*
X114500D01*
X114500Y47750D01*
X112493D01*
Y48987D01*
X112500Y48986D01*
X113206Y49042D01*
X113895Y49207D01*
X114549Y49478D01*
X115153Y49848D01*
X115692Y50308D01*
X116152Y50847D01*
X116522Y51451D01*
X116793Y52105D01*
X116958Y52794D01*
X117000Y53500D01*
X116958Y54206D01*
X116793Y54895D01*
X116522Y55549D01*
X116152Y56153D01*
X115692Y56692D01*
X115153Y57152D01*
X114549Y57522D01*
X113895Y57793D01*
X113206Y57958D01*
X112500Y58014D01*
X112493Y58013D01*
Y62023D01*
G37*
G36*
Y64977D02*X112461Y65112D01*
X112148Y65868D01*
X111720Y66566D01*
X111188Y67188D01*
X111116Y67250D01*
X112493D01*
Y64977D01*
G37*
G36*
X106220Y58459D02*X106684Y58348D01*
X107500Y58284D01*
X108316Y58348D01*
X109112Y58539D01*
X109868Y58852D01*
X110566Y59280D01*
X111188Y59812D01*
X111720Y60434D01*
X112148Y61132D01*
X112461Y61888D01*
X112493Y62023D01*
Y58013D01*
X111794Y57958D01*
X111105Y57793D01*
X110451Y57522D01*
X109847Y57152D01*
X109308Y56692D01*
X108848Y56153D01*
X108478Y55549D01*
X108207Y54895D01*
X108042Y54206D01*
X107986Y53500D01*
X108042Y52794D01*
X108207Y52105D01*
X108478Y51451D01*
X108848Y50847D01*
X109308Y50308D01*
X109847Y49848D01*
X110451Y49478D01*
X111105Y49207D01*
X111794Y49042D01*
X112493Y48987D01*
Y47750D01*
X106220D01*
Y51044D01*
X106271Y51083D01*
X106326Y51139D01*
X106370Y51204D01*
X106564Y51556D01*
X106721Y51926D01*
X106844Y52309D01*
X106933Y52700D01*
X106987Y53099D01*
X107004Y53500D01*
X106987Y53901D01*
X106933Y54300D01*
X106844Y54691D01*
X106721Y55074D01*
X106564Y55444D01*
X106374Y55798D01*
X106329Y55863D01*
X106274Y55920D01*
X106220Y55960D01*
Y58459D01*
G37*
G36*
X102502Y62044D02*X102539Y61888D01*
X102852Y61132D01*
X103280Y60434D01*
X103812Y59812D01*
X104434Y59280D01*
X105132Y58852D01*
X105888Y58539D01*
X106220Y58459D01*
Y55960D01*
X106210Y55968D01*
X106140Y56004D01*
X106065Y56030D01*
X105987Y56044D01*
X105908Y56045D01*
X105829Y56033D01*
X105754Y56010D01*
X105683Y55975D01*
X105618Y55929D01*
X105561Y55874D01*
X105513Y55811D01*
X105476Y55741D01*
X105451Y55666D01*
X105437Y55588D01*
X105436Y55508D01*
X105448Y55430D01*
X105471Y55354D01*
X105507Y55284D01*
X105657Y55010D01*
X105779Y54723D01*
X105875Y54426D01*
X105944Y54121D01*
X105986Y53812D01*
X106000Y53500D01*
X105986Y53188D01*
X105944Y52879D01*
X105875Y52574D01*
X105779Y52277D01*
X105657Y51990D01*
X105510Y51714D01*
X105474Y51645D01*
X105451Y51569D01*
X105440Y51491D01*
X105441Y51413D01*
X105454Y51335D01*
X105480Y51261D01*
X105516Y51191D01*
X105564Y51128D01*
X105620Y51073D01*
X105684Y51028D01*
X105755Y50993D01*
X105830Y50970D01*
X105908Y50959D01*
X105987Y50960D01*
X106064Y50973D01*
X106139Y50999D01*
X106208Y51035D01*
X106220Y51044D01*
Y47750D01*
X102502D01*
Y48996D01*
X102901Y49013D01*
X103300Y49067D01*
X103691Y49156D01*
X104074Y49279D01*
X104444Y49436D01*
X104798Y49626D01*
X104863Y49671D01*
X104920Y49726D01*
X104968Y49790D01*
X105004Y49860D01*
X105030Y49935D01*
X105044Y50013D01*
X105045Y50092D01*
X105033Y50171D01*
X105010Y50246D01*
X104975Y50317D01*
X104929Y50382D01*
X104874Y50439D01*
X104811Y50487D01*
X104741Y50524D01*
X104666Y50549D01*
X104588Y50563D01*
X104508Y50564D01*
X104430Y50552D01*
X104354Y50529D01*
X104284Y50493D01*
X104010Y50343D01*
X103723Y50221D01*
X103426Y50125D01*
X103121Y50056D01*
X102812Y50014D01*
X102502Y50000D01*
Y57000D01*
X102812Y56986D01*
X103121Y56944D01*
X103426Y56875D01*
X103723Y56779D01*
X104010Y56657D01*
X104286Y56510D01*
X104355Y56474D01*
X104431Y56451D01*
X104509Y56440D01*
X104587Y56441D01*
X104665Y56454D01*
X104739Y56480D01*
X104809Y56516D01*
X104872Y56564D01*
X104927Y56620D01*
X104972Y56684D01*
X105007Y56755D01*
X105030Y56830D01*
X105041Y56908D01*
X105040Y56987D01*
X105027Y57064D01*
X105001Y57139D01*
X104965Y57208D01*
X104917Y57271D01*
X104861Y57326D01*
X104796Y57370D01*
X104444Y57564D01*
X104074Y57721D01*
X103691Y57844D01*
X103300Y57933D01*
X102901Y57987D01*
X102502Y58004D01*
Y62044D01*
G37*
G36*
X98780Y58459D02*X99112Y58539D01*
X99868Y58852D01*
X100566Y59280D01*
X101188Y59812D01*
X101720Y60434D01*
X102148Y61132D01*
X102461Y61888D01*
X102500Y62052D01*
X102502Y62044D01*
Y58004D01*
X102500Y58004D01*
X102099Y57987D01*
X101700Y57933D01*
X101309Y57844D01*
X100926Y57721D01*
X100556Y57564D01*
X100202Y57374D01*
X100137Y57329D01*
X100080Y57274D01*
X100032Y57210D01*
X99996Y57140D01*
X99970Y57065D01*
X99956Y56987D01*
X99955Y56908D01*
X99967Y56829D01*
X99990Y56754D01*
X100025Y56683D01*
X100071Y56618D01*
X100126Y56561D01*
X100189Y56513D01*
X100259Y56476D01*
X100334Y56451D01*
X100412Y56437D01*
X100492Y56436D01*
X100570Y56448D01*
X100646Y56471D01*
X100716Y56507D01*
X100990Y56657D01*
X101277Y56779D01*
X101574Y56875D01*
X101879Y56944D01*
X102188Y56986D01*
X102500Y57000D01*
X102502Y57000D01*
Y50000D01*
X102500Y50000D01*
X102188Y50014D01*
X101879Y50056D01*
X101574Y50125D01*
X101277Y50221D01*
X100990Y50343D01*
X100714Y50490D01*
X100645Y50526D01*
X100569Y50549D01*
X100491Y50560D01*
X100413Y50559D01*
X100335Y50546D01*
X100261Y50520D01*
X100191Y50484D01*
X100128Y50436D01*
X100073Y50380D01*
X100028Y50316D01*
X99993Y50245D01*
X99970Y50170D01*
X99959Y50092D01*
X99960Y50013D01*
X99973Y49936D01*
X99999Y49861D01*
X100035Y49792D01*
X100083Y49729D01*
X100139Y49674D01*
X100204Y49630D01*
X100556Y49436D01*
X100926Y49279D01*
X101309Y49156D01*
X101700Y49067D01*
X102099Y49013D01*
X102500Y48996D01*
X102502Y48996D01*
Y47750D01*
X98780D01*
Y51040D01*
X98790Y51032D01*
X98860Y50996D01*
X98935Y50970D01*
X99013Y50956D01*
X99092Y50955D01*
X99171Y50967D01*
X99246Y50990D01*
X99317Y51025D01*
X99382Y51071D01*
X99439Y51126D01*
X99487Y51189D01*
X99524Y51259D01*
X99549Y51334D01*
X99563Y51412D01*
X99564Y51492D01*
X99552Y51570D01*
X99529Y51646D01*
X99493Y51716D01*
X99343Y51990D01*
X99221Y52277D01*
X99125Y52574D01*
X99056Y52879D01*
X99014Y53188D01*
X99000Y53500D01*
X99014Y53812D01*
X99056Y54121D01*
X99125Y54426D01*
X99221Y54723D01*
X99343Y55010D01*
X99490Y55286D01*
X99526Y55355D01*
X99549Y55431D01*
X99560Y55509D01*
X99559Y55587D01*
X99546Y55665D01*
X99520Y55739D01*
X99484Y55809D01*
X99436Y55872D01*
X99380Y55927D01*
X99316Y55972D01*
X99245Y56007D01*
X99170Y56030D01*
X99092Y56041D01*
X99013Y56040D01*
X98936Y56027D01*
X98861Y56001D01*
X98792Y55965D01*
X98780Y55956D01*
Y58459D01*
G37*
G36*
X89987Y67831D02*X92588Y65230D01*
X92539Y65112D01*
X92348Y64316D01*
X92284Y63500D01*
X92348Y62684D01*
X92539Y61888D01*
X92852Y61132D01*
X93280Y60434D01*
X93812Y59812D01*
X94434Y59280D01*
X95132Y58852D01*
X95888Y58539D01*
X96684Y58348D01*
X97500Y58284D01*
X98316Y58348D01*
X98780Y58459D01*
Y55956D01*
X98729Y55917D01*
X98674Y55861D01*
X98630Y55796D01*
X98436Y55444D01*
X98279Y55074D01*
X98156Y54691D01*
X98067Y54300D01*
X98013Y53901D01*
X97996Y53500D01*
X98013Y53099D01*
X98067Y52700D01*
X98156Y52309D01*
X98279Y51926D01*
X98436Y51556D01*
X98626Y51202D01*
X98671Y51137D01*
X98726Y51080D01*
X98780Y51040D01*
Y47750D01*
X93139D01*
X92828Y48016D01*
X92412Y48271D01*
X91961Y48457D01*
X91486Y48571D01*
X91000Y48610D01*
X90514Y48571D01*
X90039Y48457D01*
X89987Y48436D01*
Y67831D01*
G37*
G36*
X64735Y70111D02*X64951Y69978D01*
X65605Y69707D01*
X66294Y69542D01*
X67000Y69486D01*
X67706Y69542D01*
X68395Y69707D01*
X69049Y69978D01*
X69653Y70348D01*
X70192Y70808D01*
X70652Y71347D01*
X70899Y71750D01*
X86068D01*
X89987Y67831D01*
Y48436D01*
X89588Y48271D01*
X89172Y48016D01*
X88861Y47750D01*
X88787D01*
X88770Y47770D01*
X88387Y48097D01*
X87957Y48360D01*
X87492Y48553D01*
X87002Y48670D01*
X86500Y48710D01*
X85998Y48670D01*
X85508Y48553D01*
X85043Y48360D01*
X84613Y48097D01*
X84230Y47770D01*
X83903Y47387D01*
X83640Y46957D01*
X83447Y46492D01*
X83330Y46002D01*
X83290Y45500D01*
X83330Y44998D01*
X83447Y44508D01*
X83640Y44043D01*
X83903Y43613D01*
X84230Y43230D01*
X84613Y42903D01*
X85043Y42640D01*
X85508Y42447D01*
X85998Y42330D01*
X86500Y42290D01*
X87002Y42330D01*
X87492Y42447D01*
X87957Y42640D01*
X88387Y42903D01*
X88770Y43230D01*
X88787Y43250D01*
X88861D01*
X89172Y42984D01*
X89588Y42729D01*
X89987Y42564D01*
Y36724D01*
X88713Y36624D01*
X87458Y36323D01*
X86266Y35829D01*
X85165Y35154D01*
X84184Y34316D01*
X83346Y33335D01*
X82671Y32234D01*
X82177Y31042D01*
X81876Y29787D01*
X81775Y28500D01*
X81876Y27213D01*
X82177Y25958D01*
X82671Y24766D01*
X83346Y23665D01*
X84184Y22684D01*
X85165Y21846D01*
X86266Y21171D01*
X87458Y20677D01*
X88713Y20376D01*
X89987Y20276D01*
Y2000D01*
X64735D01*
Y9970D01*
X64750Y9969D01*
X66319Y10093D01*
X67850Y10460D01*
X69304Y11062D01*
X70646Y11885D01*
X71843Y12907D01*
X72865Y14104D01*
X73688Y15446D01*
X74290Y16900D01*
X74657Y18431D01*
X74750Y20000D01*
X74657Y21569D01*
X74290Y23100D01*
X73688Y24554D01*
X72865Y25896D01*
X71843Y27093D01*
X70646Y28115D01*
X69304Y28938D01*
X67850Y29540D01*
X66558Y29850D01*
X67850Y30160D01*
X69304Y30762D01*
X70646Y31585D01*
X71843Y32607D01*
X72865Y33804D01*
X73688Y35146D01*
X74290Y36600D01*
X74657Y38131D01*
X74750Y39700D01*
X74657Y41269D01*
X74290Y42800D01*
X73688Y44254D01*
X72865Y45596D01*
X71843Y46793D01*
X70646Y47815D01*
X69304Y48638D01*
X67850Y49240D01*
X66319Y49607D01*
X64750Y49731D01*
X64735Y49730D01*
Y60111D01*
X64951Y59978D01*
X65605Y59707D01*
X66294Y59542D01*
X67000Y59486D01*
X67706Y59542D01*
X68395Y59707D01*
X69049Y59978D01*
X69653Y60348D01*
X70192Y60808D01*
X70652Y61347D01*
X71022Y61951D01*
X71293Y62605D01*
X71458Y63294D01*
X71500Y64000D01*
X71458Y64706D01*
X71293Y65395D01*
X71022Y66049D01*
X70652Y66653D01*
X70192Y67192D01*
X69653Y67652D01*
X69049Y68022D01*
X68395Y68293D01*
X67706Y68458D01*
X67000Y68514D01*
X66294Y68458D01*
X65605Y68293D01*
X64951Y68022D01*
X64735Y67889D01*
Y70111D01*
G37*
G36*
Y80111D02*X64951Y79978D01*
X65605Y79707D01*
X66294Y79542D01*
X67000Y79486D01*
X67706Y79542D01*
X68395Y79707D01*
X69049Y79978D01*
X69653Y80348D01*
X70192Y80808D01*
X70652Y81347D01*
X70899Y81750D01*
X72568D01*
X77847Y76471D01*
X77904Y76404D01*
X78085Y76250D01*
X70899D01*
X70652Y76653D01*
X70192Y77192D01*
X69653Y77652D01*
X69049Y78022D01*
X68395Y78293D01*
X67706Y78458D01*
X67000Y78514D01*
X66294Y78458D01*
X65605Y78293D01*
X64951Y78022D01*
X64735Y77889D01*
Y80111D01*
G37*
G36*
X111500Y110000D02*X127543D01*
Y71750D01*
X111500D01*
Y85007D01*
X115735Y85014D01*
X115965Y85069D01*
X116183Y85159D01*
X116384Y85283D01*
X116564Y85436D01*
X116717Y85616D01*
X116841Y85817D01*
X116931Y86035D01*
X116986Y86265D01*
X117000Y86500D01*
X116986Y94735D01*
X116931Y94965D01*
X116841Y95183D01*
X116717Y95384D01*
X116564Y95564D01*
X116384Y95717D01*
X116183Y95841D01*
X115965Y95931D01*
X115735Y95986D01*
X115500Y96000D01*
X111500Y95993D01*
Y110000D01*
G37*
G36*
X95993D02*X111500D01*
Y95993D01*
X107265Y95986D01*
X107035Y95931D01*
X106817Y95841D01*
X106616Y95717D01*
X106436Y95564D01*
X106283Y95384D01*
X106159Y95183D01*
X106069Y94965D01*
X106014Y94735D01*
X106000Y94500D01*
X106014Y86265D01*
X106069Y86035D01*
X106159Y85817D01*
X106283Y85616D01*
X106436Y85436D01*
X106616Y85283D01*
X106817Y85159D01*
X107035Y85069D01*
X107265Y85014D01*
X107500Y85000D01*
X111500Y85007D01*
Y71750D01*
X102432D01*
X95993Y78189D01*
Y87645D01*
X96078Y87681D01*
X96179Y87743D01*
X96269Y87819D01*
X96345Y87909D01*
X96405Y88011D01*
X96622Y88480D01*
X96789Y88969D01*
X96909Y89472D01*
X96982Y89984D01*
X97006Y90500D01*
X96982Y91016D01*
X96909Y91528D01*
X96789Y92031D01*
X96622Y92520D01*
X96410Y92992D01*
X96349Y93093D01*
X96272Y93184D01*
X96182Y93261D01*
X96080Y93323D01*
X95993Y93360D01*
Y110000D01*
G37*
G36*
X91502D02*X95993D01*
Y93360D01*
X95971Y93369D01*
X95855Y93397D01*
X95737Y93406D01*
X95619Y93397D01*
X95503Y93370D01*
X95393Y93324D01*
X95292Y93262D01*
X95202Y93186D01*
X95124Y93095D01*
X95062Y92994D01*
X95016Y92885D01*
X94989Y92769D01*
X94979Y92651D01*
X94988Y92532D01*
X95016Y92417D01*
X95063Y92308D01*
X95221Y91968D01*
X95342Y91612D01*
X95430Y91247D01*
X95482Y90875D01*
X95500Y90500D01*
X95482Y90125D01*
X95430Y89753D01*
X95342Y89388D01*
X95221Y89032D01*
X95067Y88690D01*
X95020Y88582D01*
X94993Y88467D01*
X94983Y88349D01*
X94993Y88232D01*
X95021Y88117D01*
X95066Y88008D01*
X95128Y87907D01*
X95205Y87818D01*
X95295Y87741D01*
X95395Y87680D01*
X95504Y87635D01*
X95619Y87607D01*
X95737Y87598D01*
X95855Y87608D01*
X95969Y87635D01*
X95993Y87645D01*
Y78189D01*
X94653Y79529D01*
X94596Y79596D01*
X94327Y79826D01*
X94327Y79826D01*
X94212Y79896D01*
X94025Y80011D01*
X93793Y80107D01*
X93697Y80146D01*
X93353Y80229D01*
X93000Y80257D01*
X92912Y80250D01*
X91502D01*
Y84994D01*
X92016Y85018D01*
X92528Y85091D01*
X93031Y85211D01*
X93520Y85378D01*
X93992Y85590D01*
X94093Y85651D01*
X94184Y85728D01*
X94261Y85818D01*
X94323Y85920D01*
X94369Y86029D01*
X94397Y86145D01*
X94406Y86263D01*
X94397Y86381D01*
X94370Y86497D01*
X94324Y86607D01*
X94262Y86708D01*
X94186Y86798D01*
X94095Y86876D01*
X93994Y86938D01*
X93885Y86984D01*
X93769Y87011D01*
X93651Y87021D01*
X93532Y87012D01*
X93417Y86984D01*
X93308Y86937D01*
X92968Y86779D01*
X92612Y86658D01*
X92247Y86570D01*
X91875Y86518D01*
X91502Y86500D01*
Y94500D01*
X91875Y94482D01*
X92247Y94430D01*
X92612Y94342D01*
X92968Y94221D01*
X93310Y94067D01*
X93418Y94020D01*
X93533Y93993D01*
X93651Y93983D01*
X93768Y93993D01*
X93883Y94021D01*
X93992Y94066D01*
X94093Y94128D01*
X94182Y94205D01*
X94259Y94295D01*
X94320Y94395D01*
X94365Y94504D01*
X94393Y94619D01*
X94402Y94737D01*
X94392Y94855D01*
X94365Y94969D01*
X94319Y95078D01*
X94257Y95179D01*
X94181Y95269D01*
X94091Y95345D01*
X93989Y95405D01*
X93520Y95622D01*
X93031Y95789D01*
X92528Y95909D01*
X92016Y95982D01*
X91502Y96006D01*
Y110000D01*
G37*
G36*
X87007D02*X91502D01*
Y96006D01*
X91500Y96006D01*
X90984Y95982D01*
X90472Y95909D01*
X89969Y95789D01*
X89480Y95622D01*
X89008Y95410D01*
X88907Y95349D01*
X88816Y95272D01*
X88739Y95182D01*
X88677Y95080D01*
X88631Y94971D01*
X88603Y94855D01*
X88594Y94737D01*
X88603Y94619D01*
X88630Y94503D01*
X88676Y94393D01*
X88738Y94292D01*
X88814Y94202D01*
X88905Y94124D01*
X89006Y94062D01*
X89115Y94016D01*
X89231Y93989D01*
X89349Y93979D01*
X89468Y93988D01*
X89583Y94016D01*
X89692Y94063D01*
X90032Y94221D01*
X90388Y94342D01*
X90753Y94430D01*
X91125Y94482D01*
X91500Y94500D01*
X91502Y94500D01*
Y86500D01*
X91500Y86500D01*
X91125Y86518D01*
X90753Y86570D01*
X90388Y86658D01*
X90032Y86779D01*
X89690Y86933D01*
X89582Y86980D01*
X89467Y87007D01*
X89349Y87017D01*
X89232Y87007D01*
X89117Y86979D01*
X89008Y86934D01*
X88907Y86872D01*
X88818Y86795D01*
X88741Y86705D01*
X88680Y86605D01*
X88635Y86496D01*
X88607Y86381D01*
X88598Y86263D01*
X88608Y86145D01*
X88635Y86031D01*
X88681Y85922D01*
X88743Y85821D01*
X88819Y85731D01*
X88909Y85655D01*
X89011Y85595D01*
X89480Y85378D01*
X89969Y85211D01*
X90472Y85091D01*
X90984Y85018D01*
X91500Y84994D01*
X91502Y84994D01*
Y80250D01*
X87007D01*
Y87640D01*
X87029Y87631D01*
X87145Y87603D01*
X87263Y87594D01*
X87381Y87603D01*
X87497Y87630D01*
X87607Y87676D01*
X87708Y87738D01*
X87798Y87814D01*
X87876Y87905D01*
X87938Y88006D01*
X87984Y88115D01*
X88011Y88231D01*
X88021Y88349D01*
X88012Y88468D01*
X87984Y88583D01*
X87937Y88692D01*
X87779Y89032D01*
X87658Y89388D01*
X87570Y89753D01*
X87518Y90125D01*
X87500Y90500D01*
X87518Y90875D01*
X87570Y91247D01*
X87658Y91612D01*
X87779Y91968D01*
X87933Y92310D01*
X87980Y92418D01*
X88007Y92533D01*
X88017Y92651D01*
X88007Y92768D01*
X87979Y92883D01*
X87934Y92992D01*
X87872Y93093D01*
X87795Y93182D01*
X87705Y93259D01*
X87605Y93320D01*
X87496Y93365D01*
X87381Y93393D01*
X87263Y93402D01*
X87145Y93392D01*
X87031Y93365D01*
X87007Y93355D01*
Y110000D01*
G37*
G36*
X70720D02*X87007D01*
Y93355D01*
X86922Y93319D01*
X86821Y93257D01*
X86731Y93181D01*
X86655Y93091D01*
X86595Y92989D01*
X86378Y92520D01*
X86211Y92031D01*
X86091Y91528D01*
X86018Y91016D01*
X85994Y90500D01*
X86018Y89984D01*
X86091Y89472D01*
X86211Y88969D01*
X86378Y88480D01*
X86590Y88008D01*
X86651Y87907D01*
X86728Y87816D01*
X86818Y87739D01*
X86920Y87677D01*
X87007Y87640D01*
Y80250D01*
X80432D01*
X75153Y85529D01*
X75096Y85596D01*
X74827Y85826D01*
X74827Y85826D01*
X74712Y85896D01*
X74525Y86011D01*
X74293Y86107D01*
X74197Y86146D01*
X73853Y86229D01*
X73500Y86257D01*
X73412Y86250D01*
X70899D01*
X70720Y86541D01*
Y91544D01*
X70771Y91583D01*
X70826Y91639D01*
X70870Y91704D01*
X71064Y92056D01*
X71221Y92426D01*
X71344Y92809D01*
X71433Y93200D01*
X71487Y93599D01*
X71504Y94000D01*
X71487Y94401D01*
X71433Y94800D01*
X71344Y95191D01*
X71221Y95574D01*
X71064Y95944D01*
X70874Y96298D01*
X70829Y96363D01*
X70774Y96420D01*
X70720Y96460D01*
Y110000D01*
G37*
G36*
X64735D02*X70720D01*
Y96460D01*
X70710Y96468D01*
X70640Y96504D01*
X70565Y96530D01*
X70487Y96544D01*
X70408Y96545D01*
X70329Y96533D01*
X70254Y96510D01*
X70183Y96475D01*
X70118Y96429D01*
X70061Y96374D01*
X70013Y96311D01*
X69976Y96241D01*
X69951Y96166D01*
X69937Y96088D01*
X69936Y96008D01*
X69948Y95930D01*
X69971Y95854D01*
X70007Y95784D01*
X70157Y95510D01*
X70279Y95223D01*
X70375Y94926D01*
X70444Y94621D01*
X70486Y94312D01*
X70500Y94000D01*
X70486Y93688D01*
X70444Y93379D01*
X70375Y93074D01*
X70279Y92777D01*
X70157Y92490D01*
X70010Y92214D01*
X69974Y92145D01*
X69951Y92069D01*
X69940Y91991D01*
X69941Y91913D01*
X69954Y91835D01*
X69980Y91761D01*
X70016Y91691D01*
X70064Y91628D01*
X70120Y91573D01*
X70184Y91528D01*
X70255Y91493D01*
X70330Y91470D01*
X70408Y91459D01*
X70487Y91460D01*
X70564Y91473D01*
X70639Y91499D01*
X70708Y91535D01*
X70720Y91544D01*
Y86541D01*
X70652Y86653D01*
X70192Y87192D01*
X69653Y87652D01*
X69049Y88022D01*
X68395Y88293D01*
X67706Y88458D01*
X67000Y88514D01*
X66294Y88458D01*
X65605Y88293D01*
X64951Y88022D01*
X64735Y87889D01*
Y90113D01*
X65056Y89936D01*
X65426Y89779D01*
X65809Y89656D01*
X66200Y89567D01*
X66599Y89513D01*
X67000Y89496D01*
X67401Y89513D01*
X67800Y89567D01*
X68191Y89656D01*
X68574Y89779D01*
X68944Y89936D01*
X69298Y90126D01*
X69363Y90171D01*
X69420Y90226D01*
X69468Y90290D01*
X69504Y90360D01*
X69530Y90435D01*
X69544Y90513D01*
X69545Y90592D01*
X69533Y90671D01*
X69510Y90746D01*
X69475Y90817D01*
X69429Y90882D01*
X69374Y90939D01*
X69311Y90987D01*
X69241Y91024D01*
X69166Y91049D01*
X69088Y91063D01*
X69008Y91064D01*
X68930Y91052D01*
X68854Y91029D01*
X68784Y90993D01*
X68510Y90843D01*
X68223Y90721D01*
X67926Y90625D01*
X67621Y90556D01*
X67312Y90514D01*
X67000Y90500D01*
X66688Y90514D01*
X66379Y90556D01*
X66074Y90625D01*
X65777Y90721D01*
X65490Y90843D01*
X65214Y90990D01*
X65145Y91026D01*
X65069Y91049D01*
X64991Y91060D01*
X64913Y91059D01*
X64835Y91046D01*
X64761Y91020D01*
X64735Y91007D01*
Y96990D01*
X64759Y96976D01*
X64834Y96951D01*
X64912Y96937D01*
X64992Y96936D01*
X65070Y96948D01*
X65146Y96971D01*
X65216Y97007D01*
X65490Y97157D01*
X65777Y97279D01*
X66074Y97375D01*
X66379Y97444D01*
X66688Y97486D01*
X67000Y97500D01*
X67312Y97486D01*
X67621Y97444D01*
X67926Y97375D01*
X68223Y97279D01*
X68510Y97157D01*
X68786Y97010D01*
X68855Y96974D01*
X68931Y96951D01*
X69009Y96940D01*
X69087Y96941D01*
X69165Y96954D01*
X69239Y96980D01*
X69309Y97016D01*
X69372Y97064D01*
X69427Y97120D01*
X69472Y97184D01*
X69507Y97255D01*
X69530Y97330D01*
X69541Y97408D01*
X69540Y97487D01*
X69527Y97564D01*
X69501Y97639D01*
X69465Y97708D01*
X69417Y97771D01*
X69361Y97826D01*
X69296Y97870D01*
X68944Y98064D01*
X68574Y98221D01*
X68191Y98344D01*
X67800Y98433D01*
X67401Y98487D01*
X67000Y98504D01*
X66599Y98487D01*
X66200Y98433D01*
X65809Y98344D01*
X65426Y98221D01*
X65056Y98064D01*
X64735Y97892D01*
Y110000D01*
G37*
G36*
X57002Y13674D02*X57657Y12907D01*
X58854Y11885D01*
X60196Y11062D01*
X61650Y10460D01*
X63181Y10093D01*
X64735Y9970D01*
Y2000D01*
X57002D01*
Y13674D01*
G37*
G36*
Y33374D02*X57657Y32607D01*
X58854Y31585D01*
X60196Y30762D01*
X61650Y30160D01*
X62942Y29850D01*
X61650Y29540D01*
X60196Y28938D01*
X58854Y28115D01*
X57657Y27093D01*
X57002Y26326D01*
Y33374D01*
G37*
G36*
X63280Y61459D02*X63348Y61347D01*
X63808Y60808D01*
X64347Y60348D01*
X64735Y60111D01*
Y49730D01*
X63280Y49615D01*
Y61459D01*
G37*
G36*
Y71459D02*X63348Y71347D01*
X63808Y70808D01*
X64347Y70348D01*
X64735Y70111D01*
Y67889D01*
X64347Y67652D01*
X63808Y67192D01*
X63348Y66653D01*
X63280Y66541D01*
Y71459D01*
G37*
G36*
Y81459D02*X63348Y81347D01*
X63808Y80808D01*
X64347Y80348D01*
X64735Y80111D01*
Y77889D01*
X64347Y77652D01*
X63808Y77192D01*
X63348Y76653D01*
X63280Y76541D01*
Y81459D01*
G37*
G36*
Y110000D02*X64735D01*
Y97892D01*
X64702Y97874D01*
X64637Y97829D01*
X64580Y97774D01*
X64532Y97710D01*
X64496Y97640D01*
X64470Y97565D01*
X64456Y97487D01*
X64455Y97408D01*
X64467Y97329D01*
X64490Y97254D01*
X64525Y97183D01*
X64571Y97118D01*
X64626Y97061D01*
X64689Y97013D01*
X64735Y96990D01*
Y91007D01*
X64691Y90984D01*
X64628Y90936D01*
X64573Y90880D01*
X64528Y90816D01*
X64493Y90745D01*
X64470Y90670D01*
X64459Y90592D01*
X64460Y90513D01*
X64473Y90436D01*
X64499Y90361D01*
X64535Y90292D01*
X64583Y90229D01*
X64639Y90174D01*
X64704Y90130D01*
X64735Y90113D01*
Y87889D01*
X64347Y87652D01*
X63808Y87192D01*
X63348Y86653D01*
X63280Y86541D01*
Y91540D01*
X63290Y91532D01*
X63360Y91496D01*
X63435Y91470D01*
X63513Y91456D01*
X63592Y91455D01*
X63671Y91467D01*
X63746Y91490D01*
X63817Y91525D01*
X63882Y91571D01*
X63939Y91626D01*
X63987Y91689D01*
X64024Y91759D01*
X64049Y91834D01*
X64063Y91912D01*
X64064Y91992D01*
X64052Y92070D01*
X64029Y92146D01*
X63993Y92216D01*
X63843Y92490D01*
X63721Y92777D01*
X63625Y93074D01*
X63556Y93379D01*
X63514Y93688D01*
X63500Y94000D01*
X63514Y94312D01*
X63556Y94621D01*
X63625Y94926D01*
X63721Y95223D01*
X63843Y95510D01*
X63990Y95786D01*
X64026Y95855D01*
X64049Y95931D01*
X64060Y96009D01*
X64059Y96087D01*
X64046Y96165D01*
X64020Y96239D01*
X63984Y96309D01*
X63936Y96372D01*
X63880Y96427D01*
X63816Y96472D01*
X63745Y96507D01*
X63670Y96530D01*
X63592Y96541D01*
X63513Y96540D01*
X63436Y96527D01*
X63361Y96501D01*
X63292Y96465D01*
X63280Y96456D01*
Y110000D01*
G37*
G36*
X60720D02*X63280D01*
Y96456D01*
X63229Y96417D01*
X63174Y96361D01*
X63130Y96296D01*
X62936Y95944D01*
X62779Y95574D01*
X62656Y95191D01*
X62567Y94800D01*
X62513Y94401D01*
X62496Y94000D01*
X62513Y93599D01*
X62567Y93200D01*
X62656Y92809D01*
X62779Y92426D01*
X62936Y92056D01*
X63126Y91702D01*
X63171Y91637D01*
X63226Y91580D01*
X63280Y91540D01*
Y86541D01*
X62978Y86049D01*
X62707Y85395D01*
X62542Y84706D01*
X62486Y84000D01*
X62542Y83294D01*
X62707Y82605D01*
X62978Y81951D01*
X63280Y81459D01*
Y76541D01*
X62978Y76049D01*
X62707Y75395D01*
X62542Y74706D01*
X62486Y74000D01*
X62542Y73294D01*
X62707Y72605D01*
X62978Y71951D01*
X63280Y71459D01*
Y66541D01*
X62978Y66049D01*
X62707Y65395D01*
X62542Y64706D01*
X62486Y64000D01*
X62542Y63294D01*
X62707Y62605D01*
X62978Y61951D01*
X63280Y61459D01*
Y49615D01*
X63181Y49607D01*
X61650Y49240D01*
X60720Y48855D01*
Y66459D01*
X61022Y66951D01*
X61293Y67605D01*
X61458Y68294D01*
X61500Y69000D01*
X61458Y69706D01*
X61293Y70395D01*
X61022Y71049D01*
X60720Y71541D01*
Y76459D01*
X61022Y76951D01*
X61293Y77605D01*
X61458Y78294D01*
X61500Y79000D01*
X61458Y79706D01*
X61293Y80395D01*
X61022Y81049D01*
X60720Y81541D01*
Y86459D01*
X61022Y86951D01*
X61293Y87605D01*
X61458Y88294D01*
X61500Y89000D01*
X61458Y89706D01*
X61293Y90395D01*
X61022Y91049D01*
X60720Y91541D01*
Y96544D01*
X60771Y96583D01*
X60826Y96639D01*
X60870Y96704D01*
X61064Y97056D01*
X61221Y97426D01*
X61344Y97809D01*
X61433Y98200D01*
X61487Y98599D01*
X61504Y99000D01*
X61487Y99401D01*
X61433Y99800D01*
X61344Y100191D01*
X61221Y100574D01*
X61064Y100944D01*
X60874Y101298D01*
X60829Y101363D01*
X60774Y101420D01*
X60720Y101460D01*
Y110000D01*
G37*
G36*
Y81541D02*X60652Y81653D01*
X60192Y82192D01*
X59653Y82652D01*
X59049Y83022D01*
X58395Y83293D01*
X57706Y83458D01*
X57002Y83514D01*
Y84486D01*
X57706Y84542D01*
X58395Y84707D01*
X59049Y84978D01*
X59653Y85348D01*
X60192Y85808D01*
X60652Y86347D01*
X60720Y86459D01*
Y81541D01*
G37*
G36*
Y71541D02*X60652Y71653D01*
X60192Y72192D01*
X59653Y72652D01*
X59049Y73022D01*
X58395Y73293D01*
X57706Y73458D01*
X57002Y73514D01*
Y74486D01*
X57706Y74542D01*
X58395Y74707D01*
X59049Y74978D01*
X59653Y75348D01*
X60192Y75808D01*
X60652Y76347D01*
X60720Y76459D01*
Y71541D01*
G37*
G36*
Y48855D02*X60196Y48638D01*
X58854Y47815D01*
X57657Y46793D01*
X57002Y46026D01*
Y64486D01*
X57706Y64542D01*
X58395Y64707D01*
X59049Y64978D01*
X59653Y65348D01*
X60192Y65808D01*
X60652Y66347D01*
X60720Y66459D01*
Y48855D01*
G37*
G36*
X57002Y110000D02*X60720D01*
Y101460D01*
X60710Y101468D01*
X60640Y101504D01*
X60565Y101530D01*
X60487Y101544D01*
X60408Y101545D01*
X60329Y101533D01*
X60254Y101510D01*
X60183Y101475D01*
X60118Y101429D01*
X60061Y101374D01*
X60013Y101311D01*
X59976Y101241D01*
X59951Y101166D01*
X59937Y101088D01*
X59936Y101008D01*
X59948Y100930D01*
X59971Y100854D01*
X60007Y100784D01*
X60157Y100510D01*
X60279Y100223D01*
X60375Y99926D01*
X60444Y99621D01*
X60486Y99312D01*
X60500Y99000D01*
X60486Y98688D01*
X60444Y98379D01*
X60375Y98074D01*
X60279Y97777D01*
X60157Y97490D01*
X60010Y97214D01*
X59974Y97145D01*
X59951Y97069D01*
X59940Y96991D01*
X59941Y96913D01*
X59954Y96835D01*
X59980Y96761D01*
X60016Y96691D01*
X60064Y96628D01*
X60120Y96573D01*
X60184Y96528D01*
X60255Y96493D01*
X60330Y96470D01*
X60408Y96459D01*
X60487Y96460D01*
X60564Y96473D01*
X60639Y96499D01*
X60708Y96535D01*
X60720Y96544D01*
Y91541D01*
X60652Y91653D01*
X60192Y92192D01*
X59653Y92652D01*
X59049Y93022D01*
X58395Y93293D01*
X57706Y93458D01*
X57002Y93514D01*
Y94496D01*
X57401Y94513D01*
X57800Y94567D01*
X58191Y94656D01*
X58574Y94779D01*
X58944Y94936D01*
X59298Y95126D01*
X59363Y95171D01*
X59420Y95226D01*
X59468Y95290D01*
X59504Y95360D01*
X59530Y95435D01*
X59544Y95513D01*
X59545Y95592D01*
X59533Y95671D01*
X59510Y95746D01*
X59475Y95817D01*
X59429Y95882D01*
X59374Y95939D01*
X59311Y95987D01*
X59241Y96024D01*
X59166Y96049D01*
X59088Y96063D01*
X59008Y96064D01*
X58930Y96052D01*
X58854Y96029D01*
X58784Y95993D01*
X58510Y95843D01*
X58223Y95721D01*
X57926Y95625D01*
X57621Y95556D01*
X57312Y95514D01*
X57002Y95500D01*
Y102500D01*
X57312Y102486D01*
X57621Y102444D01*
X57926Y102375D01*
X58223Y102279D01*
X58510Y102157D01*
X58786Y102010D01*
X58855Y101974D01*
X58931Y101951D01*
X59009Y101940D01*
X59087Y101941D01*
X59165Y101954D01*
X59239Y101980D01*
X59309Y102016D01*
X59372Y102064D01*
X59427Y102120D01*
X59472Y102184D01*
X59507Y102255D01*
X59530Y102330D01*
X59541Y102408D01*
X59540Y102487D01*
X59527Y102564D01*
X59501Y102639D01*
X59465Y102708D01*
X59417Y102771D01*
X59361Y102826D01*
X59296Y102870D01*
X58944Y103064D01*
X58574Y103221D01*
X58191Y103344D01*
X57800Y103433D01*
X57401Y103487D01*
X57002Y103504D01*
Y110000D01*
G37*
G36*
X53280Y66459D02*X53348Y66347D01*
X53808Y65808D01*
X54347Y65348D01*
X54951Y64978D01*
X55605Y64707D01*
X56294Y64542D01*
X57000Y64486D01*
X57002Y64486D01*
Y46026D01*
X56635Y45596D01*
X55812Y44254D01*
X55210Y42800D01*
X54843Y41269D01*
X54719Y39700D01*
X54843Y38131D01*
X55210Y36600D01*
X55812Y35146D01*
X56635Y33804D01*
X57002Y33374D01*
Y26326D01*
X56635Y25896D01*
X55812Y24554D01*
X55210Y23100D01*
X54843Y21569D01*
X54719Y20000D01*
X54843Y18431D01*
X55210Y16900D01*
X55812Y15446D01*
X56635Y14104D01*
X57002Y13674D01*
Y2000D01*
X53280D01*
Y66459D01*
G37*
G36*
Y76459D02*X53348Y76347D01*
X53808Y75808D01*
X54347Y75348D01*
X54951Y74978D01*
X55605Y74707D01*
X56294Y74542D01*
X57000Y74486D01*
X57002Y74486D01*
Y73514D01*
X57000Y73514D01*
X56294Y73458D01*
X55605Y73293D01*
X54951Y73022D01*
X54347Y72652D01*
X53808Y72192D01*
X53348Y71653D01*
X53280Y71541D01*
Y76459D01*
G37*
G36*
Y86459D02*X53348Y86347D01*
X53808Y85808D01*
X54347Y85348D01*
X54951Y84978D01*
X55605Y84707D01*
X56294Y84542D01*
X57000Y84486D01*
X57002Y84486D01*
Y83514D01*
X57000Y83514D01*
X56294Y83458D01*
X55605Y83293D01*
X54951Y83022D01*
X54347Y82652D01*
X53808Y82192D01*
X53348Y81653D01*
X53280Y81541D01*
Y86459D01*
G37*
G36*
Y110000D02*X57002D01*
Y103504D01*
X57000Y103504D01*
X56599Y103487D01*
X56200Y103433D01*
X55809Y103344D01*
X55426Y103221D01*
X55056Y103064D01*
X54702Y102874D01*
X54637Y102829D01*
X54580Y102774D01*
X54532Y102710D01*
X54496Y102640D01*
X54470Y102565D01*
X54456Y102487D01*
X54455Y102408D01*
X54467Y102329D01*
X54490Y102254D01*
X54525Y102183D01*
X54571Y102118D01*
X54626Y102061D01*
X54689Y102013D01*
X54759Y101976D01*
X54834Y101951D01*
X54912Y101937D01*
X54992Y101936D01*
X55070Y101948D01*
X55146Y101971D01*
X55216Y102007D01*
X55490Y102157D01*
X55777Y102279D01*
X56074Y102375D01*
X56379Y102444D01*
X56688Y102486D01*
X57000Y102500D01*
X57002Y102500D01*
Y95500D01*
X57000Y95500D01*
X56688Y95514D01*
X56379Y95556D01*
X56074Y95625D01*
X55777Y95721D01*
X55490Y95843D01*
X55214Y95990D01*
X55145Y96026D01*
X55069Y96049D01*
X54991Y96060D01*
X54913Y96059D01*
X54835Y96046D01*
X54761Y96020D01*
X54691Y95984D01*
X54628Y95936D01*
X54573Y95880D01*
X54528Y95816D01*
X54493Y95745D01*
X54470Y95670D01*
X54459Y95592D01*
X54460Y95513D01*
X54473Y95436D01*
X54499Y95361D01*
X54535Y95292D01*
X54583Y95229D01*
X54639Y95174D01*
X54704Y95130D01*
X55056Y94936D01*
X55426Y94779D01*
X55809Y94656D01*
X56200Y94567D01*
X56599Y94513D01*
X57000Y94496D01*
X57002Y94496D01*
Y93514D01*
X57000Y93514D01*
X56294Y93458D01*
X55605Y93293D01*
X54951Y93022D01*
X54347Y92652D01*
X53808Y92192D01*
X53348Y91653D01*
X53280Y91541D01*
Y96540D01*
X53290Y96532D01*
X53360Y96496D01*
X53435Y96470D01*
X53513Y96456D01*
X53592Y96455D01*
X53671Y96467D01*
X53746Y96490D01*
X53817Y96525D01*
X53882Y96571D01*
X53939Y96626D01*
X53987Y96689D01*
X54024Y96759D01*
X54049Y96834D01*
X54063Y96912D01*
X54064Y96992D01*
X54052Y97070D01*
X54029Y97146D01*
X53993Y97216D01*
X53843Y97490D01*
X53721Y97777D01*
X53625Y98074D01*
X53556Y98379D01*
X53514Y98688D01*
X53500Y99000D01*
X53514Y99312D01*
X53556Y99621D01*
X53625Y99926D01*
X53721Y100223D01*
X53843Y100510D01*
X53990Y100786D01*
X54026Y100855D01*
X54049Y100931D01*
X54060Y101009D01*
X54059Y101087D01*
X54046Y101165D01*
X54020Y101239D01*
X53984Y101309D01*
X53936Y101372D01*
X53880Y101427D01*
X53816Y101472D01*
X53745Y101507D01*
X53670Y101530D01*
X53592Y101541D01*
X53513Y101540D01*
X53436Y101527D01*
X53361Y101501D01*
X53292Y101465D01*
X53280Y101456D01*
Y110000D01*
G37*
G36*
X35235Y96464D02*X35734Y96671D01*
X36835Y97346D01*
X37816Y98184D01*
X38654Y99165D01*
X39329Y100266D01*
X39823Y101458D01*
X40124Y102713D01*
X40200Y104000D01*
X40124Y105287D01*
X39823Y106542D01*
X39329Y107734D01*
X38654Y108835D01*
X37816Y109816D01*
X37601Y110000D01*
X53280D01*
Y101456D01*
X53229Y101417D01*
X53174Y101361D01*
X53130Y101296D01*
X52936Y100944D01*
X52779Y100574D01*
X52656Y100191D01*
X52567Y99800D01*
X52513Y99401D01*
X52496Y99000D01*
X52513Y98599D01*
X52567Y98200D01*
X52656Y97809D01*
X52779Y97426D01*
X52936Y97056D01*
X53126Y96702D01*
X53171Y96637D01*
X53226Y96580D01*
X53280Y96540D01*
Y91541D01*
X52978Y91049D01*
X52707Y90395D01*
X52542Y89706D01*
X52486Y89000D01*
X52542Y88294D01*
X52707Y87605D01*
X52978Y86951D01*
X53280Y86459D01*
Y81541D01*
X52978Y81049D01*
X52707Y80395D01*
X52542Y79706D01*
X52486Y79000D01*
X52542Y78294D01*
X52707Y77605D01*
X52978Y76951D01*
X53280Y76459D01*
Y71541D01*
X52978Y71049D01*
X52707Y70395D01*
X52542Y69706D01*
X52486Y69000D01*
X52542Y68294D01*
X52707Y67605D01*
X52978Y66951D01*
X53280Y66459D01*
Y2000D01*
X35235D01*
Y9970D01*
X35250Y9969D01*
X36819Y10093D01*
X38350Y10460D01*
X39804Y11062D01*
X41146Y11885D01*
X42343Y12907D01*
X43365Y14104D01*
X44188Y15446D01*
X44790Y16900D01*
X45157Y18431D01*
X45250Y20000D01*
X45157Y21569D01*
X44790Y23100D01*
X44188Y24554D01*
X43365Y25896D01*
X42343Y27093D01*
X41146Y28115D01*
X39804Y28938D01*
X38350Y29540D01*
X37058Y29850D01*
X38350Y30160D01*
X39804Y30762D01*
X41146Y31585D01*
X42343Y32607D01*
X43365Y33804D01*
X44188Y35146D01*
X44790Y36600D01*
X45157Y38131D01*
X45250Y39700D01*
X45157Y41269D01*
X44790Y42800D01*
X44188Y44254D01*
X43365Y45596D01*
X42343Y46793D01*
X41146Y47815D01*
X39804Y48638D01*
X38350Y49240D01*
X36819Y49607D01*
X35250Y49731D01*
X35235Y49730D01*
Y51464D01*
X35734Y51671D01*
X36835Y52346D01*
X37816Y53184D01*
X38654Y54165D01*
X39329Y55266D01*
X39823Y56458D01*
X40124Y57713D01*
X40200Y59000D01*
X40124Y60287D01*
X39823Y61542D01*
X39329Y62734D01*
X38654Y63835D01*
X37816Y64816D01*
X36835Y65654D01*
X35734Y66329D01*
X35235Y66536D01*
Y96464D01*
G37*
G36*
X2500Y110000D02*X26399D01*
X26184Y109816D01*
X25346Y108835D01*
X24671Y107734D01*
X24177Y106542D01*
X23876Y105287D01*
X23775Y104000D01*
X23876Y102713D01*
X24177Y101458D01*
X24671Y100266D01*
X25346Y99165D01*
X26184Y98184D01*
X27165Y97346D01*
X28266Y96671D01*
X29458Y96177D01*
X30713Y95876D01*
X32000Y95775D01*
X33287Y95876D01*
X34542Y96177D01*
X35235Y96464D01*
Y66536D01*
X34542Y66823D01*
X33287Y67124D01*
X32000Y67225D01*
X30713Y67124D01*
X29458Y66823D01*
X28266Y66329D01*
X27165Y65654D01*
X26184Y64816D01*
X25346Y63835D01*
X24671Y62734D01*
X24177Y61542D01*
X23876Y60287D01*
X23775Y59000D01*
X23876Y57713D01*
X24177Y56458D01*
X24671Y55266D01*
X25346Y54165D01*
X26184Y53184D01*
X27165Y52346D01*
X28266Y51671D01*
X29458Y51177D01*
X30713Y50876D01*
X32000Y50775D01*
X33287Y50876D01*
X34542Y51177D01*
X35235Y51464D01*
Y49730D01*
X33681Y49607D01*
X32150Y49240D01*
X30696Y48638D01*
X29354Y47815D01*
X28157Y46793D01*
X27135Y45596D01*
X26312Y44254D01*
X25710Y42800D01*
X25343Y41269D01*
X25219Y39700D01*
X25343Y38131D01*
X25710Y36600D01*
X26312Y35146D01*
X27135Y33804D01*
X28157Y32607D01*
X29354Y31585D01*
X30696Y30762D01*
X32150Y30160D01*
X33442Y29850D01*
X32150Y29540D01*
X30696Y28938D01*
X29354Y28115D01*
X28157Y27093D01*
X27135Y25896D01*
X26312Y24554D01*
X25710Y23100D01*
X25343Y21569D01*
X25219Y20000D01*
X25343Y18431D01*
X25710Y16900D01*
X26312Y15446D01*
X27135Y14104D01*
X28157Y12907D01*
X29354Y11885D01*
X30696Y11062D01*
X32150Y10460D01*
X33681Y10093D01*
X35235Y9970D01*
Y2000D01*
X2500D01*
Y110000D01*
G37*
G54D31*X122500Y45500D02*X194500D01*
X193000D02*X201000D01*
X202500Y47000D01*
Y53500D01*
X187500Y63500D02*X180000Y71000D01*
X164500D01*
X176000Y62000D02*X177500Y63500D01*
X101500Y69500D02*X138500D01*
X164500Y71000D02*X159000Y65500D01*
X138500Y69500D02*X142500Y65500D01*
X159000D01*
X160750Y67250D01*
X133000Y64000D02*X137500D01*
X138500D01*
X140500Y62000D01*
X161000D01*
X160500D02*X176000D01*
X122500Y53500D02*Y45500D01*
X107500D01*
X67000Y74000D02*X87000D01*
X97500Y63500D01*
X91000Y45500D02*X114500D01*
X91000D02*X86500D01*
X67000Y84000D02*X73500D01*
X79500Y78000D01*
X93000D01*
X107500Y63500D01*
G54D32*X233000Y99000D02*X238000D01*
X243000Y94000D01*
G54D33*X35250Y20000D03*
Y39700D03*
X64750Y20000D03*
Y39700D03*
G54D32*X57000Y99000D03*
Y89000D03*
Y79000D03*
Y69000D03*
G54D34*X32000Y104000D03*
Y59000D03*
G54D32*X67000Y94000D03*
Y84000D03*
Y74000D03*
Y64000D03*
G54D34*X90000Y28500D03*
G54D30*G36*
X141250Y20750D02*Y13250D01*
X148750D01*
Y20750D01*
X141250D01*
G37*
G54D35*X155000Y17000D03*
G54D30*G36*
X146600Y35400D02*Y28600D01*
X153400D01*
Y35400D01*
X146600D01*
G37*
G54D34*X130000Y28500D03*
X170000D03*
G54D32*X177500Y63500D03*
X182500Y53500D03*
X187500Y63500D03*
X192500Y53500D03*
X197500Y63500D03*
X202500Y53500D03*
G54D33*X235250Y20000D03*
G54D34*X210000Y28500D03*
G54D30*G36*
X107500Y94500D02*Y86500D01*
X115500D01*
Y94500D01*
X107500D01*
G37*
G54D36*X91500Y90500D03*
G54D37*X150000Y72000D03*
G54D30*G36*
X137000Y93500D02*Y87500D01*
X143000D01*
Y93500D01*
X137000D01*
G37*
G54D38*X160000Y90500D03*
G54D30*G36*
X180000Y83500D02*Y77500D01*
X186000D01*
Y83500D01*
X180000D01*
G37*
G54D38*X183000Y90500D03*
Y100500D03*
G54D32*X97500Y63500D03*
X102500Y53500D03*
X107500Y63500D03*
X112500Y53500D03*
X117500Y63500D03*
X122500Y53500D03*
G54D33*X235250Y39700D03*
X264750Y20000D03*
Y39700D03*
G54D34*X268000Y59000D03*
Y104000D03*
G54D32*X243000Y64000D03*
Y74000D03*
Y84000D03*
Y94000D03*
X233000Y69000D03*
Y79000D03*
Y89000D03*
Y99000D03*
G54D39*X91000Y45500D03*
X133000Y64000D03*
X137500D03*
X86500Y45500D03*
G54D40*G54D41*G54D42*G54D43*G54D42*G54D43*G54D44*G54D45*G54D43*G54D42*G54D41*G54D43*G54D46*G54D45*G54D42*G54D41*G54D43*G54D42*M02*
