G04 start of page 7 for group -4062 idx -4062 *
G04 Title: (unknown), soldermask *
G04 Creator: pcb 20140316 *
G04 CreationDate: Thu 20 Aug 2020 03:13:35 AM GMT UTC *
G04 For: railfan *
G04 Format: Gerber/RS-274X *
G04 PCB-Dimensions (mil): 3000.00 1125.00 *
G04 PCB-Coordinate-Origin: lower left *
%MOIN*%
%FSLAX25Y25*%
%LNBOTTOMMASK*%
%ADD72C,0.0660*%
%ADD71C,0.0740*%
%ADD70C,0.0860*%
%ADD69C,0.0810*%
%ADD68C,0.0001*%
%ADD67C,0.1500*%
%ADD66C,0.0760*%
%ADD65C,0.1760*%
G54D65*X35250Y20000D03*
Y39700D03*
X64750Y20000D03*
Y39700D03*
G54D66*X57000Y99000D03*
Y89000D03*
Y79000D03*
Y69000D03*
G54D67*X32000Y104000D03*
Y59000D03*
G54D66*X67000Y94000D03*
Y84000D03*
Y74000D03*
Y64000D03*
G54D67*X90000Y28500D03*
G54D68*G36*
X140950Y21050D02*Y12950D01*
X149050D01*
Y21050D01*
X140950D01*
G37*
G54D69*X155000Y17000D03*
G54D68*G36*
X146300Y35700D02*Y28300D01*
X153700D01*
Y35700D01*
X146300D01*
G37*
G54D67*X130000Y28500D03*
X170000D03*
G54D66*X177500Y63500D03*
X182500Y53500D03*
X187500Y63500D03*
X192500Y53500D03*
X197500Y63500D03*
X202500Y53500D03*
G54D65*X235250Y20000D03*
G54D67*X210000Y28500D03*
G54D68*G36*
X107200Y94800D02*Y86200D01*
X115800D01*
Y94800D01*
X107200D01*
G37*
G54D70*X91500Y90500D03*
G54D71*X150000Y72000D03*
G54D68*G36*
X136700Y93800D02*Y87200D01*
X143300D01*
Y93800D01*
X136700D01*
G37*
G54D72*X160000Y90500D03*
G54D68*G36*
X179700Y83800D02*Y77200D01*
X186300D01*
Y83800D01*
X179700D01*
G37*
G54D72*X183000Y90500D03*
Y100500D03*
G54D66*X97500Y63500D03*
X102500Y53500D03*
X107500Y63500D03*
X112500Y53500D03*
X117500Y63500D03*
X122500Y53500D03*
G54D65*X235250Y39700D03*
X264750Y20000D03*
Y39700D03*
G54D67*X268000Y59000D03*
Y104000D03*
G54D66*X243000Y64000D03*
Y74000D03*
Y84000D03*
Y94000D03*
X233000Y69000D03*
Y79000D03*
Y89000D03*
Y99000D03*
M02*
