G04 start of page 6 for group -4063 idx -4063 *
G04 Title: (unknown), componentmask *
G04 Creator: pcb 20140316 *
G04 CreationDate: Thu 20 Aug 2020 03:13:35 AM GMT UTC *
G04 For: railfan *
G04 Format: Gerber/RS-274X *
G04 PCB-Dimensions (mil): 3000.00 1125.00 *
G04 PCB-Coordinate-Origin: lower left *
%MOIN*%
%FSLAX25Y25*%
%LNTOPMASK*%
%ADD64R,0.0300X0.0300*%
%ADD63C,0.0600*%
%ADD62C,0.0660*%
%ADD61C,0.0740*%
%ADD60C,0.0860*%
%ADD59C,0.0810*%
%ADD58C,0.0001*%
%ADD57C,0.1500*%
%ADD56C,0.0760*%
%ADD55C,0.1760*%
G54D55*X35250Y20000D03*
Y39700D03*
X64750Y20000D03*
Y39700D03*
G54D56*X57000Y99000D03*
Y89000D03*
Y79000D03*
Y69000D03*
G54D57*X32000Y104000D03*
Y59000D03*
G54D56*X67000Y94000D03*
Y84000D03*
Y74000D03*
Y64000D03*
G54D57*X90000Y28500D03*
G54D58*G36*
X140950Y21050D02*Y12950D01*
X149050D01*
Y21050D01*
X140950D01*
G37*
G54D59*X155000Y17000D03*
G54D58*G36*
X146300Y35700D02*Y28300D01*
X153700D01*
Y35700D01*
X146300D01*
G37*
G54D57*X130000Y28500D03*
X170000D03*
G54D56*X177500Y63500D03*
X182500Y53500D03*
X187500Y63500D03*
X192500Y53500D03*
X197500Y63500D03*
X202500Y53500D03*
G54D55*X235250Y20000D03*
G54D57*X210000Y28500D03*
G54D58*G36*
X107200Y94800D02*Y86200D01*
X115800D01*
Y94800D01*
X107200D01*
G37*
G54D60*X91500Y90500D03*
G54D61*X150000Y72000D03*
G54D58*G36*
X136700Y93800D02*Y87200D01*
X143300D01*
Y93800D01*
X136700D01*
G37*
G54D62*X160000Y90500D03*
G54D58*G36*
X179700Y83800D02*Y77200D01*
X186300D01*
Y83800D01*
X179700D01*
G37*
G54D62*X183000Y90500D03*
Y100500D03*
G54D56*X97500Y63500D03*
X102500Y53500D03*
X107500Y63500D03*
X112500Y53500D03*
X117500Y63500D03*
X122500Y53500D03*
G54D55*X235250Y39700D03*
X264750Y20000D03*
Y39700D03*
G54D57*X268000Y59000D03*
Y104000D03*
G54D56*X243000Y64000D03*
Y74000D03*
Y84000D03*
Y94000D03*
X233000Y69000D03*
Y79000D03*
Y89000D03*
Y99000D03*
G54D63*X207000Y87900D03*
G54D64*X205500Y86400D02*X208500D01*
G54D63*X207000Y81100D03*
G54D64*X205500Y82600D02*X208500D01*
M02*
