M48
INCH
T54C0.020
T53C0.048
T52C0.038
T51C0.043
T50C0.128
T49C0.030
T48C0.073
%
T54
X008650Y004550
X009100Y004550
X013300Y006400
X013750Y006400
T49
X005700Y009900
X005700Y008900
X005700Y007900
X005700Y006900
X006700Y009400
X006700Y008400
X006700Y007400
X006700Y006400
X009750Y006350
X010250Y005350
X010750Y006350
X011250Y005350
X011750Y006350
X012250Y005350
X017750Y006350
X018250Y005350
X018750Y006350
X019250Y005350
X019750Y006350
X020250Y005350
X023300Y009900
X023300Y008900
X023300Y007900
X023300Y006900
X024300Y009400
X024300Y008400
X024300Y007400
X024300Y006400
T52
X014000Y009050
X015000Y007200
X015000Y003200
X016000Y009050
X018300Y010050
X018300Y009050
X018300Y008050
T51
X014500Y001700
X015500Y001700
T53
X009150Y009050
X011150Y009050
T48
X003525Y003970
X003525Y002000
X006475Y003970
X006475Y002000
X023525Y003970
X023525Y002000
X026475Y003970
X026475Y002000
T50
X003200Y010400
X003200Y005900
X009000Y002850
X013000Y002850
X017000Y002850
X021000Y002850
X026800Y010400
X026800Y005900
M30
