G04 start of page 12 for group -3984 idx -3984 *
G04 Title: (unknown), fab *
G04 Creator: pcb 20140316 *
G04 CreationDate: Thu 20 Aug 2020 03:13:35 AM GMT UTC *
G04 For: railfan *
G04 Format: Gerber/RS-274X *
G04 PCB-Dimensions (mil): 3000.00 1125.00 *
G04 PCB-Coordinate-Origin: lower left *
%MOIN*%
%FSLAX25Y25*%
%LNFAB*%
%ADD82C,0.0100*%
%ADD81C,0.0060*%
%ADD80R,0.0080X0.0080*%
G54D80*X32000Y107200D02*Y100800D01*
X28800Y104000D02*X35200D01*
X30400Y105600D02*X33600D01*
X30400D02*Y102400D01*
X33600D01*
Y105600D02*Y102400D01*
X32000Y62200D02*Y55800D01*
X28800Y59000D02*X35200D01*
X30400Y60600D02*X33600D01*
X30400D02*Y57400D01*
X33600D01*
Y60600D02*Y57400D01*
X268000Y62200D02*Y55800D01*
X264800Y59000D02*X271200D01*
X266400Y60600D02*X269600D01*
X266400D02*Y57400D01*
X269600D01*
Y60600D02*Y57400D01*
X268000Y107200D02*Y100800D01*
X264800Y104000D02*X271200D01*
X266400Y105600D02*X269600D01*
X266400D02*Y102400D01*
X269600D01*
Y105600D02*Y102400D01*
X90000Y31700D02*Y25300D01*
X86800Y28500D02*X93200D01*
X88400Y30100D02*X91600D01*
X88400D02*Y26900D01*
X91600D01*
Y30100D02*Y26900D01*
X130000Y31700D02*Y25300D01*
X126800Y28500D02*X133200D01*
X128400Y30100D02*X131600D01*
X128400D02*Y26900D01*
X131600D01*
Y30100D02*Y26900D01*
X170000Y31700D02*Y25300D01*
X166800Y28500D02*X173200D01*
X168400Y30100D02*X171600D01*
X168400D02*Y26900D01*
X171600D01*
Y30100D02*Y26900D01*
X210000Y31700D02*Y25300D01*
X206800Y28500D02*X213200D01*
X208400Y30100D02*X211600D01*
X208400D02*Y26900D01*
X211600D01*
Y30100D02*Y26900D01*
X15000Y126950D02*Y120550D01*
X11800Y123750D02*X18200D01*
X13400Y125350D02*X16600D01*
X13400D02*Y122150D01*
X16600D01*
Y125350D02*Y122150D01*
G54D81*X135000Y126000D02*Y125250D01*
X136500Y123750D01*
X138000Y125250D01*
Y126000D02*Y125250D01*
X136500Y123750D02*Y120000D01*
X139800Y123000D02*X142050D01*
X139800Y120000D02*X142800D01*
X139800Y126000D02*Y120000D01*
Y126000D02*X142800D01*
X147600D02*X148350Y125250D01*
X145350Y126000D02*X147600D01*
X144600Y125250D02*X145350Y126000D01*
X144600Y125250D02*Y123750D01*
X145350Y123000D01*
X147600D01*
X148350Y122250D01*
Y120750D01*
X147600Y120000D02*X148350Y120750D01*
X145350Y120000D02*X147600D01*
X144600Y120750D02*X145350Y120000D01*
X98000Y120750D02*X98750Y120000D01*
X98000Y122250D02*Y120750D01*
Y122250D02*X98750Y123000D01*
X100250D01*
X101000Y122250D01*
Y120750D01*
X100250Y120000D02*X101000Y120750D01*
X98750Y120000D02*X100250D01*
X98000Y123750D02*X98750Y123000D01*
X98000Y125250D02*Y123750D01*
Y125250D02*X98750Y126000D01*
X100250D01*
X101000Y125250D01*
Y123750D01*
X100250Y123000D02*X101000Y123750D01*
X45000Y120750D02*X45750Y120000D01*
X45000Y125250D02*Y120750D01*
Y125250D02*X45750Y126000D01*
X47250D01*
X48000Y125250D01*
Y120750D01*
X47250Y120000D02*X48000Y120750D01*
X45750Y120000D02*X47250D01*
X45000Y121500D02*X48000Y124500D01*
X49800Y120000D02*X50550D01*
X53100D02*X54600D01*
X53850Y126000D02*Y120000D01*
X52350Y124500D02*X53850Y126000D01*
X56400Y125250D02*X57150Y126000D01*
X59400D01*
X60150Y125250D01*
Y123750D01*
X56400Y120000D02*X60150Y123750D01*
X56400Y120000D02*X60150D01*
X61950Y120750D02*X62700Y120000D01*
X61950Y122250D02*Y120750D01*
Y122250D02*X62700Y123000D01*
X64200D01*
X64950Y122250D01*
Y120750D01*
X64200Y120000D02*X64950Y120750D01*
X62700Y120000D02*X64200D01*
X61950Y123750D02*X62700Y123000D01*
X61950Y125250D02*Y123750D01*
Y125250D02*X62700Y126000D01*
X64200D01*
X64950Y125250D01*
Y123750D01*
X64200Y123000D02*X64950Y123750D01*
X35250Y20000D02*Y16800D01*
Y20000D02*X38023Y21600D01*
X35250Y20000D02*X32477Y21600D01*
X33650Y20000D02*G75*G03X36850Y20000I1600J0D01*G01*
G75*G03X33650Y20000I-1600J0D01*G01*
X35250Y39700D02*Y36500D01*
Y39700D02*X38023Y41300D01*
X35250Y39700D02*X32477Y41300D01*
X33650Y39700D02*G75*G03X36850Y39700I1600J0D01*G01*
G75*G03X33650Y39700I-1600J0D01*G01*
X64750Y20000D02*Y16800D01*
Y20000D02*X67523Y21600D01*
X64750Y20000D02*X61977Y21600D01*
X63150Y20000D02*G75*G03X66350Y20000I1600J0D01*G01*
G75*G03X63150Y20000I-1600J0D01*G01*
X64750Y39700D02*Y36500D01*
Y39700D02*X67523Y41300D01*
X64750Y39700D02*X61977Y41300D01*
X63150Y39700D02*G75*G03X66350Y39700I1600J0D01*G01*
G75*G03X63150Y39700I-1600J0D01*G01*
X235250Y20000D02*Y16800D01*
Y20000D02*X238023Y21600D01*
X235250Y20000D02*X232477Y21600D01*
X233650Y20000D02*G75*G03X236850Y20000I1600J0D01*G01*
G75*G03X233650Y20000I-1600J0D01*G01*
X235250Y39700D02*Y36500D01*
Y39700D02*X238023Y41300D01*
X235250Y39700D02*X232477Y41300D01*
X233650Y39700D02*G75*G03X236850Y39700I1600J0D01*G01*
G75*G03X233650Y39700I-1600J0D01*G01*
X264750Y20000D02*Y16800D01*
Y20000D02*X267523Y21600D01*
X264750Y20000D02*X261977Y21600D01*
X263150Y20000D02*G75*G03X266350Y20000I1600J0D01*G01*
G75*G03X263150Y20000I-1600J0D01*G01*
X264750Y39700D02*Y36500D01*
Y39700D02*X267523Y41300D01*
X264750Y39700D02*X261977Y41300D01*
X263150Y39700D02*G75*G03X266350Y39700I1600J0D01*G01*
G75*G03X263150Y39700I-1600J0D01*G01*
X15000Y138750D02*Y135550D01*
Y138750D02*X17773Y140350D01*
X15000Y138750D02*X12227Y140350D01*
X13400Y138750D02*G75*G03X16600Y138750I1600J0D01*G01*
G75*G03X13400Y138750I-1600J0D01*G01*
X135000Y141000D02*Y140250D01*
X136500Y138750D01*
X138000Y140250D01*
Y141000D02*Y140250D01*
X136500Y138750D02*Y135000D01*
X139800Y138000D02*X142050D01*
X139800Y135000D02*X142800D01*
X139800Y141000D02*Y135000D01*
Y141000D02*X142800D01*
X147600D02*X148350Y140250D01*
X145350Y141000D02*X147600D01*
X144600Y140250D02*X145350Y141000D01*
X144600Y140250D02*Y138750D01*
X145350Y138000D01*
X147600D01*
X148350Y137250D01*
Y135750D01*
X147600Y135000D02*X148350Y135750D01*
X145350Y135000D02*X147600D01*
X144600Y135750D02*X145350Y135000D01*
X98000Y135750D02*X98750Y135000D01*
X98000Y137250D02*Y135750D01*
Y137250D02*X98750Y138000D01*
X100250D01*
X101000Y137250D01*
Y135750D01*
X100250Y135000D02*X101000Y135750D01*
X98750Y135000D02*X100250D01*
X98000Y138750D02*X98750Y138000D01*
X98000Y140250D02*Y138750D01*
Y140250D02*X98750Y141000D01*
X100250D01*
X101000Y140250D01*
Y138750D01*
X100250Y138000D02*X101000Y138750D01*
X45000Y135750D02*X45750Y135000D01*
X45000Y140250D02*Y135750D01*
Y140250D02*X45750Y141000D01*
X47250D01*
X48000Y140250D01*
Y135750D01*
X47250Y135000D02*X48000Y135750D01*
X45750Y135000D02*X47250D01*
X45000Y136500D02*X48000Y139500D01*
X49800Y135000D02*X50550D01*
X52350Y135750D02*X53100Y135000D01*
X52350Y140250D02*Y135750D01*
Y140250D02*X53100Y141000D01*
X54600D01*
X55350Y140250D01*
Y135750D01*
X54600Y135000D02*X55350Y135750D01*
X53100Y135000D02*X54600D01*
X52350Y136500D02*X55350Y139500D01*
X57150Y135000D02*X60900Y138750D01*
Y141000D02*Y138750D01*
X57150Y141000D02*X60900D01*
X62700Y140250D02*X63450Y141000D01*
X64950D01*
X65700Y140250D01*
Y135750D01*
X64950Y135000D02*X65700Y135750D01*
X63450Y135000D02*X64950D01*
X62700Y135750D02*X63450Y135000D01*
Y138000D02*X65700D01*
X109900Y92100D02*X113100D01*
X109900D02*Y88900D01*
X113100D01*
Y92100D02*Y88900D01*
X89900Y92100D02*X93100D01*
X89900D02*Y88900D01*
X93100D01*
Y92100D02*Y88900D01*
X13400Y155350D02*X16600D01*
X13400D02*Y152150D01*
X16600D01*
Y155350D02*Y152150D01*
X135000Y156000D02*Y155250D01*
X136500Y153750D01*
X138000Y155250D01*
Y156000D02*Y155250D01*
X136500Y153750D02*Y150000D01*
X139800Y153000D02*X142050D01*
X139800Y150000D02*X142800D01*
X139800Y156000D02*Y150000D01*
Y156000D02*X142800D01*
X147600D02*X148350Y155250D01*
X145350Y156000D02*X147600D01*
X144600Y155250D02*X145350Y156000D01*
X144600Y155250D02*Y153750D01*
X145350Y153000D01*
X147600D01*
X148350Y152250D01*
Y150750D01*
X147600Y150000D02*X148350Y150750D01*
X145350Y150000D02*X147600D01*
X144600Y150750D02*X145350Y150000D01*
X98000Y155250D02*X98750Y156000D01*
X101000D01*
X101750Y155250D01*
Y153750D01*
X98000Y150000D02*X101750Y153750D01*
X98000Y150000D02*X101750D01*
X45000Y150750D02*X45750Y150000D01*
X45000Y155250D02*Y150750D01*
Y155250D02*X45750Y156000D01*
X47250D01*
X48000Y155250D01*
Y150750D01*
X47250Y150000D02*X48000Y150750D01*
X45750Y150000D02*X47250D01*
X45000Y151500D02*X48000Y154500D01*
X49800Y150000D02*X50550D01*
X52350Y150750D02*X53100Y150000D01*
X52350Y155250D02*Y150750D01*
Y155250D02*X53100Y156000D01*
X54600D01*
X55350Y155250D01*
Y150750D01*
X54600Y150000D02*X55350Y150750D01*
X53100Y150000D02*X54600D01*
X52350Y151500D02*X55350Y154500D01*
X57150Y153000D02*X60150Y156000D01*
X57150Y153000D02*X60900D01*
X60150Y156000D02*Y150000D01*
X62700Y150750D02*X63450Y150000D01*
X62700Y152250D02*Y150750D01*
Y152250D02*X63450Y153000D01*
X64950D01*
X65700Y152250D01*
Y150750D01*
X64950Y150000D02*X65700Y150750D01*
X63450Y150000D02*X64950D01*
X62700Y153750D02*X63450Y153000D01*
X62700Y155250D02*Y153750D01*
Y155250D02*X63450Y156000D01*
X64950D01*
X65700Y155250D01*
Y153750D01*
X64950Y153000D02*X65700Y153750D01*
X144200Y17000D02*G75*G03X145800Y17000I800J0D01*G01*
G75*G03X144200Y17000I-800J0D01*G01*
X154200D02*G75*G03X155800Y17000I800J0D01*G01*
G75*G03X154200Y17000I-800J0D01*G01*
X14200Y168750D02*G75*G03X15800Y168750I800J0D01*G01*
G75*G03X14200Y168750I-800J0D01*G01*
X135000Y171000D02*Y170250D01*
X136500Y168750D01*
X138000Y170250D01*
Y171000D02*Y170250D01*
X136500Y168750D02*Y165000D01*
X139800Y168000D02*X142050D01*
X139800Y165000D02*X142800D01*
X139800Y171000D02*Y165000D01*
Y171000D02*X142800D01*
X147600D02*X148350Y170250D01*
X145350Y171000D02*X147600D01*
X144600Y170250D02*X145350Y171000D01*
X144600Y170250D02*Y168750D01*
X145350Y168000D01*
X147600D01*
X148350Y167250D01*
Y165750D01*
X147600Y165000D02*X148350Y165750D01*
X145350Y165000D02*X147600D01*
X144600Y165750D02*X145350Y165000D01*
X98000Y170250D02*X98750Y171000D01*
X101000D01*
X101750Y170250D01*
Y168750D01*
X98000Y165000D02*X101750Y168750D01*
X98000Y165000D02*X101750D01*
X45000Y165750D02*X45750Y165000D01*
X45000Y170250D02*Y165750D01*
Y170250D02*X45750Y171000D01*
X47250D01*
X48000Y170250D01*
Y165750D01*
X47250Y165000D02*X48000Y165750D01*
X45750Y165000D02*X47250D01*
X45000Y166500D02*X48000Y169500D01*
X49800Y165000D02*X50550D01*
X52350Y165750D02*X53100Y165000D01*
X52350Y170250D02*Y165750D01*
Y170250D02*X53100Y171000D01*
X54600D01*
X55350Y170250D01*
Y165750D01*
X54600Y165000D02*X55350Y165750D01*
X53100Y165000D02*X54600D01*
X52350Y166500D02*X55350Y169500D01*
X57150Y168000D02*X60150Y171000D01*
X57150Y168000D02*X60900D01*
X60150Y171000D02*Y165000D01*
X62700Y170250D02*X63450Y171000D01*
X64950D01*
X65700Y170250D01*
Y165750D01*
X64950Y165000D02*X65700Y165750D01*
X63450Y165000D02*X64950D01*
X62700Y165750D02*X63450Y165000D01*
Y168000D02*X65700D01*
X148800Y33200D02*X151200Y30800D01*
X148800D02*X151200Y33200D01*
X148800Y73200D02*X151200Y70800D01*
X148800D02*X151200Y73200D01*
X138800Y91700D02*X141200Y89300D01*
X138800D02*X141200Y91700D01*
X158800D02*X161200Y89300D01*
X158800D02*X161200Y91700D01*
X181800Y81700D02*X184200Y79300D01*
X181800D02*X184200Y81700D01*
X181800Y91700D02*X184200Y89300D01*
X181800D02*X184200Y91700D01*
X181800Y101700D02*X184200Y99300D01*
X181800D02*X184200Y101700D01*
X13800Y184950D02*X16200Y182550D01*
X13800D02*X16200Y184950D01*
X135000Y186000D02*Y185250D01*
X136500Y183750D01*
X138000Y185250D01*
Y186000D02*Y185250D01*
X136500Y183750D02*Y180000D01*
X139800Y183000D02*X142050D01*
X139800Y180000D02*X142800D01*
X139800Y186000D02*Y180000D01*
Y186000D02*X142800D01*
X147600D02*X148350Y185250D01*
X145350Y186000D02*X147600D01*
X144600Y185250D02*X145350Y186000D01*
X144600Y185250D02*Y183750D01*
X145350Y183000D01*
X147600D01*
X148350Y182250D01*
Y180750D01*
X147600Y180000D02*X148350Y180750D01*
X145350Y180000D02*X147600D01*
X144600Y180750D02*X145350Y180000D01*
X98000D02*X101750Y183750D01*
Y186000D02*Y183750D01*
X98000Y186000D02*X101750D01*
X45000Y180750D02*X45750Y180000D01*
X45000Y185250D02*Y180750D01*
Y185250D02*X45750Y186000D01*
X47250D01*
X48000Y185250D01*
Y180750D01*
X47250Y180000D02*X48000Y180750D01*
X45750Y180000D02*X47250D01*
X45000Y181500D02*X48000Y184500D01*
X49800Y180000D02*X50550D01*
X52350Y180750D02*X53100Y180000D01*
X52350Y185250D02*Y180750D01*
Y185250D02*X53100Y186000D01*
X54600D01*
X55350Y185250D01*
Y180750D01*
X54600Y180000D02*X55350Y180750D01*
X53100Y180000D02*X54600D01*
X52350Y181500D02*X55350Y184500D01*
X57150Y185250D02*X57900Y186000D01*
X59400D01*
X60150Y185250D01*
Y180750D01*
X59400Y180000D02*X60150Y180750D01*
X57900Y180000D02*X59400D01*
X57150Y180750D02*X57900Y180000D01*
Y183000D02*X60150D01*
X61950Y180750D02*X62700Y180000D01*
X61950Y182250D02*Y180750D01*
Y182250D02*X62700Y183000D01*
X64200D01*
X64950Y182250D01*
Y180750D01*
X64200Y180000D02*X64950Y180750D01*
X62700Y180000D02*X64200D01*
X61950Y183750D02*X62700Y183000D01*
X61950Y185250D02*Y183750D01*
Y185250D02*X62700Y186000D01*
X64200D01*
X64950Y185250D01*
Y183750D01*
X64200Y183000D02*X64950Y183750D01*
X57000Y100600D02*Y97400D01*
X55400Y99000D02*X58600D01*
X67000Y95600D02*Y92400D01*
X65400Y94000D02*X68600D01*
X57000Y90600D02*Y87400D01*
X55400Y89000D02*X58600D01*
X67000Y85600D02*Y82400D01*
X65400Y84000D02*X68600D01*
X57000Y80600D02*Y77400D01*
X55400Y79000D02*X58600D01*
X67000Y75600D02*Y72400D01*
X65400Y74000D02*X68600D01*
X57000Y70600D02*Y67400D01*
X55400Y69000D02*X58600D01*
X67000Y65600D02*Y62400D01*
X65400Y64000D02*X68600D01*
X243000Y65600D02*Y62400D01*
X241400Y64000D02*X244600D01*
X233000Y70600D02*Y67400D01*
X231400Y69000D02*X234600D01*
X243000Y75600D02*Y72400D01*
X241400Y74000D02*X244600D01*
X233000Y80600D02*Y77400D01*
X231400Y79000D02*X234600D01*
X243000Y85600D02*Y82400D01*
X241400Y84000D02*X244600D01*
X233000Y90600D02*Y87400D01*
X231400Y89000D02*X234600D01*
X243000Y95600D02*Y92400D01*
X241400Y94000D02*X244600D01*
X233000Y100600D02*Y97400D01*
X231400Y99000D02*X234600D01*
X97500Y65100D02*Y61900D01*
X95900Y63500D02*X99100D01*
X102500Y55100D02*Y51900D01*
X100900Y53500D02*X104100D01*
X107500Y65100D02*Y61900D01*
X105900Y63500D02*X109100D01*
X112500Y55100D02*Y51900D01*
X110900Y53500D02*X114100D01*
X117500Y65100D02*Y61900D01*
X115900Y63500D02*X119100D01*
X122500Y55100D02*Y51900D01*
X120900Y53500D02*X124100D01*
X177500Y65100D02*Y61900D01*
X175900Y63500D02*X179100D01*
X182500Y55100D02*Y51900D01*
X180900Y53500D02*X184100D01*
X187500Y65100D02*Y61900D01*
X185900Y63500D02*X189100D01*
X192500Y55100D02*Y51900D01*
X190900Y53500D02*X194100D01*
X197500Y65100D02*Y61900D01*
X195900Y63500D02*X199100D01*
X202500Y55100D02*Y51900D01*
X200900Y53500D02*X204100D01*
X15000Y200350D02*Y197150D01*
X13400Y198750D02*X16600D01*
X135000Y201000D02*Y200250D01*
X136500Y198750D01*
X138000Y200250D01*
Y201000D02*Y200250D01*
X136500Y198750D02*Y195000D01*
X139800Y198000D02*X142050D01*
X139800Y195000D02*X142800D01*
X139800Y201000D02*Y195000D01*
Y201000D02*X142800D01*
X147600D02*X148350Y200250D01*
X145350Y201000D02*X147600D01*
X144600Y200250D02*X145350Y201000D01*
X144600Y200250D02*Y198750D01*
X145350Y198000D01*
X147600D01*
X148350Y197250D01*
Y195750D01*
X147600Y195000D02*X148350Y195750D01*
X145350Y195000D02*X147600D01*
X144600Y195750D02*X145350Y195000D01*
X98000Y200250D02*X98750Y201000D01*
X101000D01*
X101750Y200250D01*
Y198750D01*
X98000Y195000D02*X101750Y198750D01*
X98000Y195000D02*X101750D01*
X103550Y195750D02*X104300Y195000D01*
X103550Y197250D02*Y195750D01*
Y197250D02*X104300Y198000D01*
X105800D01*
X106550Y197250D01*
Y195750D01*
X105800Y195000D02*X106550Y195750D01*
X104300Y195000D02*X105800D01*
X103550Y198750D02*X104300Y198000D01*
X103550Y200250D02*Y198750D01*
Y200250D02*X104300Y201000D01*
X105800D01*
X106550Y200250D01*
Y198750D01*
X105800Y198000D02*X106550Y198750D01*
X45000Y195750D02*X45750Y195000D01*
X45000Y200250D02*Y195750D01*
Y200250D02*X45750Y201000D01*
X47250D01*
X48000Y200250D01*
Y195750D01*
X47250Y195000D02*X48000Y195750D01*
X45750Y195000D02*X47250D01*
X45000Y196500D02*X48000Y199500D01*
X49800Y195000D02*X50550D01*
X52350Y195750D02*X53100Y195000D01*
X52350Y200250D02*Y195750D01*
Y200250D02*X53100Y201000D01*
X54600D01*
X55350Y200250D01*
Y195750D01*
X54600Y195000D02*X55350Y195750D01*
X53100Y195000D02*X54600D01*
X52350Y196500D02*X55350Y199500D01*
X57150Y200250D02*X57900Y201000D01*
X59400D01*
X60150Y200250D01*
Y195750D01*
X59400Y195000D02*X60150Y195750D01*
X57900Y195000D02*X59400D01*
X57150Y195750D02*X57900Y195000D01*
Y198000D02*X60150D01*
X61950Y195750D02*X62700Y195000D01*
X61950Y200250D02*Y195750D01*
Y200250D02*X62700Y201000D01*
X64200D01*
X64950Y200250D01*
Y195750D01*
X64200Y195000D02*X64950Y195750D01*
X62700Y195000D02*X64200D01*
X61950Y196500D02*X64950Y199500D01*
X91000Y45500D02*Y43900D01*
Y45500D02*X92387Y46300D01*
X91000Y45500D02*X89613Y46300D01*
X133000Y64000D02*Y62400D01*
Y64000D02*X134387Y64800D01*
X133000Y64000D02*X131613Y64800D01*
X137500Y64000D02*Y62400D01*
Y64000D02*X138887Y64800D01*
X137500Y64000D02*X136113Y64800D01*
X86500Y45500D02*Y43900D01*
Y45500D02*X87887Y46300D01*
X86500Y45500D02*X85113Y46300D01*
X15000Y213750D02*Y212150D01*
Y213750D02*X16387Y214550D01*
X15000Y213750D02*X13613Y214550D01*
X135000Y216000D02*Y215250D01*
X136500Y213750D01*
X138000Y215250D01*
Y216000D02*Y215250D01*
X136500Y213750D02*Y210000D01*
X139800Y213000D02*X142050D01*
X139800Y210000D02*X142800D01*
X139800Y216000D02*Y210000D01*
Y216000D02*X142800D01*
X147600D02*X148350Y215250D01*
X145350Y216000D02*X147600D01*
X144600Y215250D02*X145350Y216000D01*
X144600Y215250D02*Y213750D01*
X145350Y213000D01*
X147600D01*
X148350Y212250D01*
Y210750D01*
X147600Y210000D02*X148350Y210750D01*
X145350Y210000D02*X147600D01*
X144600Y210750D02*X145350Y210000D01*
X98000Y213000D02*X101000Y216000D01*
X98000Y213000D02*X101750D01*
X101000Y216000D02*Y210000D01*
X45000Y210750D02*X45750Y210000D01*
X45000Y215250D02*Y210750D01*
Y215250D02*X45750Y216000D01*
X47250D01*
X48000Y215250D01*
Y210750D01*
X47250Y210000D02*X48000Y210750D01*
X45750Y210000D02*X47250D01*
X45000Y211500D02*X48000Y214500D01*
X49800Y210000D02*X50550D01*
X52350Y210750D02*X53100Y210000D01*
X52350Y215250D02*Y210750D01*
Y215250D02*X53100Y216000D01*
X54600D01*
X55350Y215250D01*
Y210750D01*
X54600Y210000D02*X55350Y210750D01*
X53100Y210000D02*X54600D01*
X52350Y211500D02*X55350Y214500D01*
X57150Y215250D02*X57900Y216000D01*
X60150D01*
X60900Y215250D01*
Y213750D01*
X57150Y210000D02*X60900Y213750D01*
X57150Y210000D02*X60900D01*
X62700Y210750D02*X63450Y210000D01*
X62700Y215250D02*Y210750D01*
Y215250D02*X63450Y216000D01*
X64950D01*
X65700Y215250D01*
Y210750D01*
X64950Y210000D02*X65700Y210750D01*
X63450Y210000D02*X64950D01*
X62700Y211500D02*X65700Y214500D01*
X3000Y231000D02*X3750Y230250D01*
X750Y231000D02*X3000D01*
X0Y230250D02*X750Y231000D01*
X0Y230250D02*Y228750D01*
X750Y228000D01*
X3000D01*
X3750Y227250D01*
Y225750D01*
X3000Y225000D02*X3750Y225750D01*
X750Y225000D02*X3000D01*
X0Y225750D02*X750Y225000D01*
X5550Y228000D02*Y225750D01*
X6300Y225000D01*
X8550Y228000D02*Y223500D01*
X7800Y222750D02*X8550Y223500D01*
X6300Y222750D02*X7800D01*
X5550Y223500D02*X6300Y222750D01*
Y225000D02*X7800D01*
X8550Y225750D01*
X11100Y227250D02*Y225000D01*
Y227250D02*X11850Y228000D01*
X12600D01*
X13350Y227250D01*
Y225000D01*
Y227250D02*X14100Y228000D01*
X14850D01*
X15600Y227250D01*
Y225000D01*
X10350Y228000D02*X11100Y227250D01*
X17400Y231000D02*Y225000D01*
Y225750D02*X18150Y225000D01*
X19650D01*
X20400Y225750D01*
Y227250D02*Y225750D01*
X19650Y228000D02*X20400Y227250D01*
X18150Y228000D02*X19650D01*
X17400Y227250D02*X18150Y228000D01*
X22200Y227250D02*Y225750D01*
Y227250D02*X22950Y228000D01*
X24450D01*
X25200Y227250D01*
Y225750D01*
X24450Y225000D02*X25200Y225750D01*
X22950Y225000D02*X24450D01*
X22200Y225750D02*X22950Y225000D01*
X27000Y231000D02*Y225750D01*
X27750Y225000D01*
X0Y221750D02*X29250D01*
X41750Y231000D02*Y225000D01*
X44000Y231000D02*X44750Y230250D01*
Y225750D01*
X44000Y225000D02*X44750Y225750D01*
X41000Y225000D02*X44000D01*
X41000Y231000D02*X44000D01*
X46550Y229500D02*Y228750D01*
Y227250D02*Y225000D01*
X50300Y228000D02*X51050Y227250D01*
X48800Y228000D02*X50300D01*
X48050Y227250D02*X48800Y228000D01*
X48050Y227250D02*Y225750D01*
X48800Y225000D01*
X51050Y228000D02*Y225750D01*
X51800Y225000D01*
X48800D02*X50300D01*
X51050Y225750D01*
X54350Y227250D02*Y225000D01*
Y227250D02*X55100Y228000D01*
X55850D01*
X56600Y227250D01*
Y225000D01*
Y227250D02*X57350Y228000D01*
X58100D01*
X58850Y227250D01*
Y225000D01*
X53600Y228000D02*X54350Y227250D01*
X60650Y225000D02*X61400D01*
X65900Y225750D02*X66650Y225000D01*
X65900Y230250D02*X66650Y231000D01*
X65900Y230250D02*Y225750D01*
X68450Y231000D02*X69950D01*
X69200D02*Y225000D01*
X68450D02*X69950D01*
X72500Y227250D02*Y225000D01*
Y227250D02*X73250Y228000D01*
X74000D01*
X74750Y227250D01*
Y225000D01*
X71750Y228000D02*X72500Y227250D01*
X77300Y228000D02*X79550D01*
X76550Y227250D02*X77300Y228000D01*
X76550Y227250D02*Y225750D01*
X77300Y225000D01*
X79550D01*
X81350Y231000D02*Y225000D01*
Y227250D02*X82100Y228000D01*
X83600D01*
X84350Y227250D01*
Y225000D01*
X86150Y231000D02*X86900Y230250D01*
Y225750D01*
X86150Y225000D02*X86900Y225750D01*
X41000Y221750D02*X88700D01*
X95750Y225000D02*X98000D01*
X95000Y225750D02*X95750Y225000D01*
X95000Y230250D02*Y225750D01*
Y230250D02*X95750Y231000D01*
X98000D01*
X99800Y227250D02*Y225750D01*
Y227250D02*X100550Y228000D01*
X102050D01*
X102800Y227250D01*
Y225750D01*
X102050Y225000D02*X102800Y225750D01*
X100550Y225000D02*X102050D01*
X99800Y225750D02*X100550Y225000D01*
X104600Y228000D02*Y225750D01*
X105350Y225000D01*
X106850D01*
X107600Y225750D01*
Y228000D02*Y225750D01*
X110150Y227250D02*Y225000D01*
Y227250D02*X110900Y228000D01*
X111650D01*
X112400Y227250D01*
Y225000D01*
X109400Y228000D02*X110150Y227250D01*
X114950Y231000D02*Y225750D01*
X115700Y225000D01*
X114200Y228750D02*X115700D01*
X95000Y221750D02*X117200D01*
X130750Y231000D02*Y225000D01*
X130000Y231000D02*X133000D01*
X133750Y230250D01*
Y228750D01*
X133000Y228000D02*X133750Y228750D01*
X130750Y228000D02*X133000D01*
X135550Y231000D02*Y225750D01*
X136300Y225000D01*
X140050Y228000D02*X140800Y227250D01*
X138550Y228000D02*X140050D01*
X137800Y227250D02*X138550Y228000D01*
X137800Y227250D02*Y225750D01*
X138550Y225000D01*
X140800Y228000D02*Y225750D01*
X141550Y225000D01*
X138550D02*X140050D01*
X140800Y225750D01*
X144100Y231000D02*Y225750D01*
X144850Y225000D01*
X143350Y228750D02*X144850D01*
X147100Y225000D02*X149350D01*
X146350Y225750D02*X147100Y225000D01*
X146350Y227250D02*Y225750D01*
Y227250D02*X147100Y228000D01*
X148600D01*
X149350Y227250D01*
X146350Y226500D02*X149350D01*
Y227250D02*Y226500D01*
X154150Y231000D02*Y225000D01*
X153400D02*X154150Y225750D01*
X151900Y225000D02*X153400D01*
X151150Y225750D02*X151900Y225000D01*
X151150Y227250D02*Y225750D01*
Y227250D02*X151900Y228000D01*
X153400D01*
X154150Y227250D01*
X157450Y228000D02*Y227250D01*
Y225750D02*Y225000D01*
X155950Y230250D02*Y229500D01*
Y230250D02*X156700Y231000D01*
X158200D01*
X158950Y230250D01*
Y229500D01*
X157450Y228000D02*X158950Y229500D01*
X130000Y221750D02*X160750D01*
X0Y246000D02*X3000D01*
X1500D02*Y240000D01*
X4800Y246000D02*Y240000D01*
Y242250D02*X5550Y243000D01*
X7050D01*
X7800Y242250D01*
Y240000D01*
X10350D02*X12600D01*
X9600Y240750D02*X10350Y240000D01*
X9600Y242250D02*Y240750D01*
Y242250D02*X10350Y243000D01*
X11850D01*
X12600Y242250D01*
X9600Y241500D02*X12600D01*
Y242250D02*Y241500D01*
X15150Y242250D02*Y240000D01*
Y242250D02*X15900Y243000D01*
X17400D01*
X14400D02*X15150Y242250D01*
X19950Y240000D02*X22200D01*
X19200Y240750D02*X19950Y240000D01*
X19200Y242250D02*Y240750D01*
Y242250D02*X19950Y243000D01*
X21450D01*
X22200Y242250D01*
X19200Y241500D02*X22200D01*
Y242250D02*Y241500D01*
X28950Y243000D02*X29700Y242250D01*
X27450Y243000D02*X28950D01*
X26700Y242250D02*X27450Y243000D01*
X26700Y242250D02*Y240750D01*
X27450Y240000D01*
X29700Y243000D02*Y240750D01*
X30450Y240000D01*
X27450D02*X28950D01*
X29700Y240750D01*
X33000Y242250D02*Y240000D01*
Y242250D02*X33750Y243000D01*
X35250D01*
X32250D02*X33000Y242250D01*
X37800Y240000D02*X40050D01*
X37050Y240750D02*X37800Y240000D01*
X37050Y242250D02*Y240750D01*
Y242250D02*X37800Y243000D01*
X39300D01*
X40050Y242250D01*
X37050Y241500D02*X40050D01*
Y242250D02*Y241500D01*
X44550Y240000D02*X48300Y243750D01*
Y246000D02*Y243750D01*
X44550Y246000D02*X48300D01*
X55800D02*Y240000D01*
X55050D02*X55800Y240750D01*
X53550Y240000D02*X55050D01*
X52800Y240750D02*X53550Y240000D01*
X52800Y242250D02*Y240750D01*
Y242250D02*X53550Y243000D01*
X55050D01*
X55800Y242250D01*
X57600Y244500D02*Y243750D01*
Y242250D02*Y240000D01*
X59850Y245250D02*Y240000D01*
Y245250D02*X60600Y246000D01*
X61350D01*
X59100Y243000D02*X60600D01*
X63600Y245250D02*Y240000D01*
Y245250D02*X64350Y246000D01*
X65100D01*
X62850Y243000D02*X64350D01*
X67350Y240000D02*X69600D01*
X66600Y240750D02*X67350Y240000D01*
X66600Y242250D02*Y240750D01*
Y242250D02*X67350Y243000D01*
X68850D01*
X69600Y242250D01*
X66600Y241500D02*X69600D01*
Y242250D02*Y241500D01*
X72150Y242250D02*Y240000D01*
Y242250D02*X72900Y243000D01*
X74400D01*
X71400D02*X72150Y242250D01*
X76950Y240000D02*X79200D01*
X76200Y240750D02*X76950Y240000D01*
X76200Y242250D02*Y240750D01*
Y242250D02*X76950Y243000D01*
X78450D01*
X79200Y242250D01*
X76200Y241500D02*X79200D01*
Y242250D02*Y241500D01*
X81750Y242250D02*Y240000D01*
Y242250D02*X82500Y243000D01*
X83250D01*
X84000Y242250D01*
Y240000D01*
X81000Y243000D02*X81750Y242250D01*
X86550Y246000D02*Y240750D01*
X87300Y240000D01*
X85800Y243750D02*X87300D01*
X94500Y246000D02*Y240000D01*
X93750D02*X94500Y240750D01*
X92250Y240000D02*X93750D01*
X91500Y240750D02*X92250Y240000D01*
X91500Y242250D02*Y240750D01*
Y242250D02*X92250Y243000D01*
X93750D01*
X94500Y242250D01*
X97050D02*Y240000D01*
Y242250D02*X97800Y243000D01*
X99300D01*
X96300D02*X97050Y242250D01*
X101100Y244500D02*Y243750D01*
Y242250D02*Y240000D01*
X102600Y246000D02*Y240750D01*
X103350Y240000D01*
X104850Y246000D02*Y240750D01*
X105600Y240000D01*
X110550D02*X112800D01*
X113550Y240750D01*
X112800Y241500D02*X113550Y240750D01*
X110550Y241500D02*X112800D01*
X109800Y242250D02*X110550Y241500D01*
X109800Y242250D02*X110550Y243000D01*
X112800D01*
X113550Y242250D01*
X109800Y240750D02*X110550Y240000D01*
X115350Y244500D02*Y243750D01*
Y242250D02*Y240000D01*
X116850Y243000D02*X119850D01*
X116850Y240000D02*X119850Y243000D01*
X116850Y240000D02*X119850D01*
X122400D02*X124650D01*
X121650Y240750D02*X122400Y240000D01*
X121650Y242250D02*Y240750D01*
Y242250D02*X122400Y243000D01*
X123900D01*
X124650Y242250D01*
X121650Y241500D02*X124650D01*
Y242250D02*Y241500D01*
X127200Y240000D02*X129450D01*
X130200Y240750D01*
X129450Y241500D02*X130200Y240750D01*
X127200Y241500D02*X129450D01*
X126450Y242250D02*X127200Y241500D01*
X126450Y242250D02*X127200Y243000D01*
X129450D01*
X130200Y242250D01*
X126450Y240750D02*X127200Y240000D01*
X134700Y243000D02*Y240750D01*
X135450Y240000D01*
X136950D01*
X137700Y240750D01*
Y243000D02*Y240750D01*
X140250Y240000D02*X142500D01*
X143250Y240750D01*
X142500Y241500D02*X143250Y240750D01*
X140250Y241500D02*X142500D01*
X139500Y242250D02*X140250Y241500D01*
X139500Y242250D02*X140250Y243000D01*
X142500D01*
X143250Y242250D01*
X139500Y240750D02*X140250Y240000D01*
X145800D02*X148050D01*
X145050Y240750D02*X145800Y240000D01*
X145050Y242250D02*Y240750D01*
Y242250D02*X145800Y243000D01*
X147300D01*
X148050Y242250D01*
X145050Y241500D02*X148050D01*
Y242250D02*Y241500D01*
X152850Y246000D02*Y240000D01*
X152100D02*X152850Y240750D01*
X150600Y240000D02*X152100D01*
X149850Y240750D02*X150600Y240000D01*
X149850Y242250D02*Y240750D01*
Y242250D02*X150600Y243000D01*
X152100D01*
X152850Y242250D01*
X157350Y244500D02*Y243750D01*
Y242250D02*Y240000D01*
X159600Y242250D02*Y240000D01*
Y242250D02*X160350Y243000D01*
X161100D01*
X161850Y242250D01*
Y240000D01*
X158850Y243000D02*X159600Y242250D01*
X167100Y246000D02*Y240750D01*
X167850Y240000D01*
X166350Y243750D02*X167850D01*
X169350Y246000D02*Y240000D01*
Y242250D02*X170100Y243000D01*
X171600D01*
X172350Y242250D01*
Y240000D01*
X174150Y244500D02*Y243750D01*
Y242250D02*Y240000D01*
X176400D02*X178650D01*
X179400Y240750D01*
X178650Y241500D02*X179400Y240750D01*
X176400Y241500D02*X178650D01*
X175650Y242250D02*X176400Y241500D01*
X175650Y242250D02*X176400Y243000D01*
X178650D01*
X179400Y242250D01*
X175650Y240750D02*X176400Y240000D01*
X183900Y246000D02*Y240750D01*
X184650Y240000D01*
X188400Y243000D02*X189150Y242250D01*
X186900Y243000D02*X188400D01*
X186150Y242250D02*X186900Y243000D01*
X186150Y242250D02*Y240750D01*
X186900Y240000D01*
X189150Y243000D02*Y240750D01*
X189900Y240000D01*
X186900D02*X188400D01*
X189150Y240750D01*
X191700Y243000D02*Y240750D01*
X192450Y240000D01*
X194700Y243000D02*Y238500D01*
X193950Y237750D02*X194700Y238500D01*
X192450Y237750D02*X193950D01*
X191700Y238500D02*X192450Y237750D01*
Y240000D02*X193950D01*
X194700Y240750D01*
X196500Y242250D02*Y240750D01*
Y242250D02*X197250Y243000D01*
X198750D01*
X199500Y242250D01*
Y240750D01*
X198750Y240000D02*X199500Y240750D01*
X197250Y240000D02*X198750D01*
X196500Y240750D02*X197250Y240000D01*
X201300Y243000D02*Y240750D01*
X202050Y240000D01*
X203550D01*
X204300Y240750D01*
Y243000D02*Y240750D01*
X206850Y246000D02*Y240750D01*
X207600Y240000D01*
X206100Y243750D02*X207600D01*
X209100Y238500D02*X210600Y240000D01*
X215100Y246000D02*X218100D01*
X215100D02*Y243000D01*
X215850Y243750D01*
X217350D01*
X218100Y243000D01*
Y240750D01*
X217350Y240000D02*X218100Y240750D01*
X215850Y240000D02*X217350D01*
X215100Y240750D02*X215850Y240000D01*
X219900D02*X222900Y243000D01*
Y245250D02*Y243000D01*
X222150Y246000D02*X222900Y245250D01*
X220650Y246000D02*X222150D01*
X219900Y245250D02*X220650Y246000D01*
X219900Y245250D02*Y243750D01*
X220650Y243000D01*
X222900D01*
X227400Y246000D02*Y240000D01*
Y242250D02*X228150Y243000D01*
X229650D01*
X230400Y242250D01*
Y240000D01*
X232200Y242250D02*Y240750D01*
Y242250D02*X232950Y243000D01*
X234450D01*
X235200Y242250D01*
Y240750D01*
X234450Y240000D02*X235200Y240750D01*
X232950Y240000D02*X234450D01*
X232200Y240750D02*X232950Y240000D01*
X237000Y246000D02*Y240750D01*
X237750Y240000D01*
X240000D02*X242250D01*
X239250Y240750D02*X240000Y240000D01*
X239250Y242250D02*Y240750D01*
Y242250D02*X240000Y243000D01*
X241500D01*
X242250Y242250D01*
X239250Y241500D02*X242250D01*
Y242250D02*Y241500D01*
X244800Y240000D02*X247050D01*
X247800Y240750D01*
X247050Y241500D02*X247800Y240750D01*
X244800Y241500D02*X247050D01*
X244050Y242250D02*X244800Y241500D01*
X244050Y242250D02*X244800Y243000D01*
X247050D01*
X247800Y242250D01*
X244050Y240750D02*X244800Y240000D01*
X253050Y246000D02*Y240750D01*
X253800Y240000D01*
X252300Y243750D02*X253800D01*
X255300Y242250D02*Y240750D01*
Y242250D02*X256050Y243000D01*
X257550D01*
X258300Y242250D01*
Y240750D01*
X257550Y240000D02*X258300Y240750D01*
X256050Y240000D02*X257550D01*
X255300Y240750D02*X256050Y240000D01*
X260850Y246000D02*Y240750D01*
X261600Y240000D01*
X260100Y243750D02*X261600D01*
X265350Y243000D02*X266100Y242250D01*
X263850Y243000D02*X265350D01*
X263100Y242250D02*X263850Y243000D01*
X263100Y242250D02*Y240750D01*
X263850Y240000D01*
X266100Y243000D02*Y240750D01*
X266850Y240000D01*
X263850D02*X265350D01*
X266100Y240750D01*
X268650Y246000D02*Y240750D01*
X269400Y240000D01*
G54D82*X0Y-12500D02*X300000D01*
Y112500D02*X0D01*
Y0D01*
X300000D01*
Y112500D01*
G54D81*X63675Y-9500D02*X66675D01*
X67425Y-8750D01*
Y-7250D02*Y-8750D01*
X66675Y-6500D02*X67425Y-7250D01*
X64425Y-6500D02*X66675D01*
X64425Y-3500D02*Y-9500D01*
X63675Y-3500D02*X66675D01*
X67425Y-4250D01*
Y-5750D01*
X66675Y-6500D02*X67425Y-5750D01*
X69225Y-7250D02*Y-8750D01*
Y-7250D02*X69975Y-6500D01*
X71475D01*
X72225Y-7250D01*
Y-8750D01*
X71475Y-9500D02*X72225Y-8750D01*
X69975Y-9500D02*X71475D01*
X69225Y-8750D02*X69975Y-9500D01*
X76275Y-6500D02*X77025Y-7250D01*
X74775Y-6500D02*X76275D01*
X74025Y-7250D02*X74775Y-6500D01*
X74025Y-7250D02*Y-8750D01*
X74775Y-9500D01*
X77025Y-6500D02*Y-8750D01*
X77775Y-9500D01*
X74775D02*X76275D01*
X77025Y-8750D01*
X80325Y-7250D02*Y-9500D01*
Y-7250D02*X81075Y-6500D01*
X82575D01*
X79575D02*X80325Y-7250D01*
X87375Y-3500D02*Y-9500D01*
X86625D02*X87375Y-8750D01*
X85125Y-9500D02*X86625D01*
X84375Y-8750D02*X85125Y-9500D01*
X84375Y-7250D02*Y-8750D01*
Y-7250D02*X85125Y-6500D01*
X86625D01*
X87375Y-7250D01*
X91875D02*Y-8750D01*
Y-7250D02*X92625Y-6500D01*
X94125D01*
X94875Y-7250D01*
Y-8750D01*
X94125Y-9500D02*X94875Y-8750D01*
X92625Y-9500D02*X94125D01*
X91875Y-8750D02*X92625Y-9500D01*
X96675Y-6500D02*Y-8750D01*
X97425Y-9500D01*
X98925D01*
X99675Y-8750D01*
Y-6500D02*Y-8750D01*
X102225Y-3500D02*Y-8750D01*
X102975Y-9500D01*
X101475Y-5750D02*X102975D01*
X104475Y-3500D02*Y-8750D01*
X105225Y-9500D01*
X106725Y-5000D02*Y-5750D01*
Y-7250D02*Y-9500D01*
X108975Y-7250D02*Y-9500D01*
Y-7250D02*X109725Y-6500D01*
X110475D01*
X111225Y-7250D01*
Y-9500D01*
X108225Y-6500D02*X108975Y-7250D01*
X113775Y-9500D02*X116025D01*
X113025Y-8750D02*X113775Y-9500D01*
X113025Y-7250D02*Y-8750D01*
Y-7250D02*X113775Y-6500D01*
X115275D01*
X116025Y-7250D01*
X113025Y-8000D02*X116025D01*
Y-7250D02*Y-8000D01*
X120525Y-5000D02*Y-5750D01*
Y-7250D02*Y-9500D01*
X122775D02*X125025D01*
X125775Y-8750D01*
X125025Y-8000D02*X125775Y-8750D01*
X122775Y-8000D02*X125025D01*
X122025Y-7250D02*X122775Y-8000D01*
X122025Y-7250D02*X122775Y-6500D01*
X125025D01*
X125775Y-7250D01*
X122025Y-8750D02*X122775Y-9500D01*
X131025Y-3500D02*Y-8750D01*
X131775Y-9500D01*
X130275Y-5750D02*X131775D01*
X133275Y-3500D02*Y-9500D01*
Y-7250D02*X134025Y-6500D01*
X135525D01*
X136275Y-7250D01*
Y-9500D01*
X138825D02*X141075D01*
X138075Y-8750D02*X138825Y-9500D01*
X138075Y-7250D02*Y-8750D01*
Y-7250D02*X138825Y-6500D01*
X140325D01*
X141075Y-7250D01*
X138075Y-8000D02*X141075D01*
Y-7250D02*Y-8000D01*
X146325Y-6500D02*X148575D01*
X145575Y-7250D02*X146325Y-6500D01*
X145575Y-7250D02*Y-8750D01*
X146325Y-9500D01*
X148575D01*
X151125D02*X153375D01*
X150375Y-8750D02*X151125Y-9500D01*
X150375Y-7250D02*Y-8750D01*
Y-7250D02*X151125Y-6500D01*
X152625D01*
X153375Y-7250D01*
X150375Y-8000D02*X153375D01*
Y-7250D02*Y-8000D01*
X155925Y-7250D02*Y-9500D01*
Y-7250D02*X156675Y-6500D01*
X157425D01*
X158175Y-7250D01*
Y-9500D01*
X155175Y-6500D02*X155925Y-7250D01*
X160725Y-3500D02*Y-8750D01*
X161475Y-9500D01*
X159975Y-5750D02*X161475D01*
X163725Y-9500D02*X165975D01*
X162975Y-8750D02*X163725Y-9500D01*
X162975Y-7250D02*Y-8750D01*
Y-7250D02*X163725Y-6500D01*
X165225D01*
X165975Y-7250D01*
X162975Y-8000D02*X165975D01*
Y-7250D02*Y-8000D01*
X168525Y-7250D02*Y-9500D01*
Y-7250D02*X169275Y-6500D01*
X170775D01*
X167775D02*X168525Y-7250D01*
X172575Y-3500D02*Y-8750D01*
X173325Y-9500D01*
X174825Y-5000D02*Y-5750D01*
Y-7250D02*Y-9500D01*
X177075Y-7250D02*Y-9500D01*
Y-7250D02*X177825Y-6500D01*
X178575D01*
X179325Y-7250D01*
Y-9500D01*
X176325Y-6500D02*X177075Y-7250D01*
X181875Y-9500D02*X184125D01*
X181125Y-8750D02*X181875Y-9500D01*
X181125Y-7250D02*Y-8750D01*
Y-7250D02*X181875Y-6500D01*
X183375D01*
X184125Y-7250D01*
X181125Y-8000D02*X184125D01*
Y-7250D02*Y-8000D01*
X188625Y-7250D02*Y-8750D01*
Y-7250D02*X189375Y-6500D01*
X190875D01*
X191625Y-7250D01*
Y-8750D01*
X190875Y-9500D02*X191625Y-8750D01*
X189375Y-9500D02*X190875D01*
X188625Y-8750D02*X189375Y-9500D01*
X194175Y-4250D02*Y-9500D01*
Y-4250D02*X194925Y-3500D01*
X195675D01*
X193425Y-6500D02*X194925D01*
X200625Y-3500D02*Y-8750D01*
X201375Y-9500D01*
X199875Y-5750D02*X201375D01*
X202875Y-3500D02*Y-9500D01*
Y-7250D02*X203625Y-6500D01*
X205125D01*
X205875Y-7250D01*
Y-9500D01*
X207675Y-5000D02*Y-5750D01*
Y-7250D02*Y-9500D01*
X209925D02*X212175D01*
X212925Y-8750D01*
X212175Y-8000D02*X212925Y-8750D01*
X209925Y-8000D02*X212175D01*
X209175Y-7250D02*X209925Y-8000D01*
X209175Y-7250D02*X209925Y-6500D01*
X212175D01*
X212925Y-7250D01*
X209175Y-8750D02*X209925Y-9500D01*
X218175Y-7250D02*Y-11750D01*
X217425Y-6500D02*X218175Y-7250D01*
X218925Y-6500D01*
X220425D01*
X221175Y-7250D01*
Y-8750D01*
X220425Y-9500D02*X221175Y-8750D01*
X218925Y-9500D02*X220425D01*
X218175Y-8750D02*X218925Y-9500D01*
X225225Y-6500D02*X225975Y-7250D01*
X223725Y-6500D02*X225225D01*
X222975Y-7250D02*X223725Y-6500D01*
X222975Y-7250D02*Y-8750D01*
X223725Y-9500D01*
X225975Y-6500D02*Y-8750D01*
X226725Y-9500D01*
X223725D02*X225225D01*
X225975Y-8750D01*
X229275Y-3500D02*Y-8750D01*
X230025Y-9500D01*
X228525Y-5750D02*X230025D01*
X231525Y-3500D02*Y-9500D01*
Y-7250D02*X232275Y-6500D01*
X233775D01*
X234525Y-7250D01*
Y-9500D01*
X200750Y141000D02*Y135000D01*
X203000Y141000D02*X203750Y140250D01*
Y135750D01*
X203000Y135000D02*X203750Y135750D01*
X200000Y135000D02*X203000D01*
X200000Y141000D02*X203000D01*
X207800Y138000D02*X208550Y137250D01*
X206300Y138000D02*X207800D01*
X205550Y137250D02*X206300Y138000D01*
X205550Y137250D02*Y135750D01*
X206300Y135000D01*
X208550Y138000D02*Y135750D01*
X209300Y135000D01*
X206300D02*X207800D01*
X208550Y135750D01*
X211850Y141000D02*Y135750D01*
X212600Y135000D01*
X211100Y138750D02*X212600D01*
X214850Y135000D02*X217100D01*
X214100Y135750D02*X214850Y135000D01*
X214100Y137250D02*Y135750D01*
Y137250D02*X214850Y138000D01*
X216350D01*
X217100Y137250D01*
X214100Y136500D02*X217100D01*
Y137250D02*Y136500D01*
X218900Y138750D02*X219650D01*
X218900Y137250D02*X219650D01*
X224150Y141000D02*X227150D01*
X225650D02*Y135000D01*
X228950Y141000D02*Y135000D01*
Y137250D02*X229700Y138000D01*
X231200D01*
X231950Y137250D01*
Y135000D01*
X233750Y138000D02*Y135750D01*
X234500Y135000D01*
X236000D01*
X236750Y135750D01*
Y138000D02*Y135750D01*
X241250Y140250D02*X242000Y141000D01*
X244250D01*
X245000Y140250D01*
Y138750D01*
X241250Y135000D02*X245000Y138750D01*
X241250Y135000D02*X245000D01*
X246800Y135750D02*X247550Y135000D01*
X246800Y140250D02*Y135750D01*
Y140250D02*X247550Y141000D01*
X249050D01*
X249800Y140250D01*
Y135750D01*
X249050Y135000D02*X249800Y135750D01*
X247550Y135000D02*X249050D01*
X246800Y136500D02*X249800Y139500D01*
X254300Y140250D02*Y135000D01*
Y140250D02*X255050Y141000D01*
X257300D01*
X258050Y140250D01*
Y135000D01*
X254300Y138000D02*X258050D01*
X259850D02*Y135750D01*
X260600Y135000D01*
X262100D01*
X262850Y135750D01*
Y138000D02*Y135750D01*
X266900Y138000D02*X267650Y137250D01*
X265400Y138000D02*X266900D01*
X264650Y137250D02*X265400Y138000D01*
X264650Y137250D02*Y135750D01*
X265400Y135000D01*
X266900D01*
X267650Y135750D01*
X264650Y133500D02*X265400Y132750D01*
X266900D01*
X267650Y133500D01*
Y138000D02*Y133500D01*
X272150Y140250D02*X272900Y141000D01*
X275150D01*
X275900Y140250D01*
Y138750D01*
X272150Y135000D02*X275900Y138750D01*
X272150Y135000D02*X275900D01*
X277700Y135750D02*X278450Y135000D01*
X277700Y140250D02*Y135750D01*
Y140250D02*X278450Y141000D01*
X279950D01*
X280700Y140250D01*
Y135750D01*
X279950Y135000D02*X280700Y135750D01*
X278450Y135000D02*X279950D01*
X277700Y136500D02*X280700Y139500D01*
X282500Y140250D02*X283250Y141000D01*
X285500D01*
X286250Y140250D01*
Y138750D01*
X282500Y135000D02*X286250Y138750D01*
X282500Y135000D02*X286250D01*
X288050Y135750D02*X288800Y135000D01*
X288050Y140250D02*Y135750D01*
Y140250D02*X288800Y141000D01*
X290300D01*
X291050Y140250D01*
Y135750D01*
X290300Y135000D02*X291050Y135750D01*
X288800Y135000D02*X290300D01*
X288050Y136500D02*X291050Y139500D01*
X295550Y135750D02*X296300Y135000D01*
X295550Y140250D02*Y135750D01*
Y140250D02*X296300Y141000D01*
X297800D01*
X298550Y140250D01*
Y135750D01*
X297800Y135000D02*X298550Y135750D01*
X296300Y135000D02*X297800D01*
X295550Y136500D02*X298550Y139500D01*
X300350Y140250D02*X301100Y141000D01*
X302600D01*
X303350Y140250D01*
Y135750D01*
X302600Y135000D02*X303350Y135750D01*
X301100Y135000D02*X302600D01*
X300350Y135750D02*X301100Y135000D01*
Y138000D02*X303350D01*
X305150Y138750D02*X305900D01*
X305150Y137250D02*X305900D01*
X308450Y135000D02*X309950D01*
X309200Y141000D02*Y135000D01*
X307700Y139500D02*X309200Y141000D01*
X311750Y140250D02*X312500Y141000D01*
X314000D01*
X314750Y140250D01*
Y135750D01*
X314000Y135000D02*X314750Y135750D01*
X312500Y135000D02*X314000D01*
X311750Y135750D02*X312500Y135000D01*
Y138000D02*X314750D01*
X316550Y138750D02*X317300D01*
X316550Y137250D02*X317300D01*
X319100Y140250D02*X319850Y141000D01*
X321350D01*
X322100Y140250D01*
Y135750D01*
X321350Y135000D02*X322100Y135750D01*
X319850Y135000D02*X321350D01*
X319100Y135750D02*X319850Y135000D01*
Y138000D02*X322100D01*
X323900Y141000D02*X326900D01*
X323900D02*Y138000D01*
X324650Y138750D01*
X326150D01*
X326900Y138000D01*
Y135750D01*
X326150Y135000D02*X326900Y135750D01*
X324650Y135000D02*X326150D01*
X323900Y135750D02*X324650Y135000D01*
X331400Y140250D02*Y135000D01*
Y140250D02*X332150Y141000D01*
X334400D01*
X335150Y140250D01*
Y135000D01*
X331400Y138000D02*X335150D01*
X336950Y141000D02*Y135000D01*
Y141000D02*X339200Y138750D01*
X341450Y141000D01*
Y135000D01*
X348950Y141000D02*X349700Y140250D01*
X346700Y141000D02*X348950D01*
X345950Y140250D02*X346700Y141000D01*
X345950Y140250D02*Y135750D01*
X346700Y135000D01*
X348950D01*
X349700Y135750D01*
Y137250D02*Y135750D01*
X348950Y138000D02*X349700Y137250D01*
X347450Y138000D02*X348950D01*
X351500Y141000D02*Y135000D01*
Y141000D02*X353750Y138750D01*
X356000Y141000D01*
Y135000D01*
X357800Y141000D02*X360800D01*
X359300D02*Y135000D01*
X365300Y141000D02*Y135750D01*
X366050Y135000D01*
X367550D01*
X368300Y135750D01*
Y141000D02*Y135750D01*
X370100Y141000D02*X373100D01*
X371600D02*Y135000D01*
X375650D02*X377900D01*
X374900Y135750D02*X375650Y135000D01*
X374900Y140250D02*Y135750D01*
Y140250D02*X375650Y141000D01*
X377900D01*
X200000Y155250D02*Y150000D01*
Y155250D02*X200750Y156000D01*
X203000D01*
X203750Y155250D01*
Y150000D01*
X200000Y153000D02*X203750D01*
X205550D02*Y150750D01*
X206300Y150000D01*
X207800D01*
X208550Y150750D01*
Y153000D02*Y150750D01*
X211100Y156000D02*Y150750D01*
X211850Y150000D01*
X210350Y153750D02*X211850D01*
X213350Y156000D02*Y150000D01*
Y152250D02*X214100Y153000D01*
X215600D01*
X216350Y152250D01*
Y150000D01*
X218150Y152250D02*Y150750D01*
Y152250D02*X218900Y153000D01*
X220400D01*
X221150Y152250D01*
Y150750D01*
X220400Y150000D02*X221150Y150750D01*
X218900Y150000D02*X220400D01*
X218150Y150750D02*X218900Y150000D01*
X223700Y152250D02*Y150000D01*
Y152250D02*X224450Y153000D01*
X225950D01*
X222950D02*X223700Y152250D01*
X227750Y153750D02*X228500D01*
X227750Y152250D02*X228500D01*
X233000Y156000D02*Y150000D01*
Y156000D02*X235250Y153750D01*
X237500Y156000D01*
Y150000D01*
X239300Y154500D02*Y153750D01*
Y152250D02*Y150000D01*
X241550Y153000D02*X243800D01*
X240800Y152250D02*X241550Y153000D01*
X240800Y152250D02*Y150750D01*
X241550Y150000D01*
X243800D01*
X245600Y156000D02*Y150000D01*
Y152250D02*X246350Y153000D01*
X247850D01*
X248600Y152250D01*
Y150000D01*
X252650Y153000D02*X253400Y152250D01*
X251150Y153000D02*X252650D01*
X250400Y152250D02*X251150Y153000D01*
X250400Y152250D02*Y150750D01*
X251150Y150000D01*
X253400Y153000D02*Y150750D01*
X254150Y150000D01*
X251150D02*X252650D01*
X253400Y150750D01*
X256700Y150000D02*X258950D01*
X255950Y150750D02*X256700Y150000D01*
X255950Y152250D02*Y150750D01*
Y152250D02*X256700Y153000D01*
X258200D01*
X258950Y152250D01*
X255950Y151500D02*X258950D01*
Y152250D02*Y151500D01*
X260750Y156000D02*Y150750D01*
X261500Y150000D01*
X266450Y156000D02*Y150000D01*
X265700Y156000D02*X268700D01*
X269450Y155250D01*
Y153750D01*
X268700Y153000D02*X269450Y153750D01*
X266450Y153000D02*X268700D01*
X272000Y150000D02*X274250D01*
X271250Y150750D02*X272000Y150000D01*
X271250Y152250D02*Y150750D01*
Y152250D02*X272000Y153000D01*
X273500D01*
X274250Y152250D01*
X271250Y151500D02*X274250D01*
Y152250D02*Y151500D01*
X276800Y156000D02*Y150750D01*
X277550Y150000D01*
X276050Y153750D02*X277550D01*
X279800Y150000D02*X282050D01*
X279050Y150750D02*X279800Y150000D01*
X279050Y152250D02*Y150750D01*
Y152250D02*X279800Y153000D01*
X281300D01*
X282050Y152250D01*
X279050Y151500D02*X282050D01*
Y152250D02*Y151500D01*
X284600Y152250D02*Y150000D01*
Y152250D02*X285350Y153000D01*
X286850D01*
X283850D02*X284600Y152250D01*
X289400Y150000D02*X291650D01*
X292400Y150750D01*
X291650Y151500D02*X292400Y150750D01*
X289400Y151500D02*X291650D01*
X288650Y152250D02*X289400Y151500D01*
X288650Y152250D02*X289400Y153000D01*
X291650D01*
X292400Y152250D01*
X288650Y150750D02*X289400Y150000D01*
X294950D02*X297200D01*
X294200Y150750D02*X294950Y150000D01*
X294200Y152250D02*Y150750D01*
Y152250D02*X294950Y153000D01*
X296450D01*
X297200Y152250D01*
X294200Y151500D02*X297200D01*
Y152250D02*Y151500D01*
X299750Y152250D02*Y150000D01*
Y152250D02*X300500Y153000D01*
X301250D01*
X302000Y152250D01*
Y150000D01*
X299000Y153000D02*X299750Y152250D01*
X200000Y171000D02*X203000D01*
X201500D02*Y165000D01*
X204800Y169500D02*Y168750D01*
Y167250D02*Y165000D01*
X207050Y171000D02*Y165750D01*
X207800Y165000D01*
X206300Y168750D02*X207800D01*
X209300Y171000D02*Y165750D01*
X210050Y165000D01*
X212300D02*X214550D01*
X211550Y165750D02*X212300Y165000D01*
X211550Y167250D02*Y165750D01*
Y167250D02*X212300Y168000D01*
X213800D01*
X214550Y167250D01*
X211550Y166500D02*X214550D01*
Y167250D02*Y166500D01*
X216350Y168750D02*X217100D01*
X216350Y167250D02*X217100D01*
X221600Y165750D02*X222350Y165000D01*
X221600Y170250D02*X222350Y171000D01*
X221600Y170250D02*Y165750D01*
X224150Y168000D02*Y165750D01*
X224900Y165000D01*
X226400D01*
X227150Y165750D01*
Y168000D02*Y165750D01*
X229700Y167250D02*Y165000D01*
Y167250D02*X230450Y168000D01*
X231200D01*
X231950Y167250D01*
Y165000D01*
X228950Y168000D02*X229700Y167250D01*
X233750Y171000D02*Y165000D01*
Y167250D02*X236000Y165000D01*
X233750Y167250D02*X235250Y168750D01*
X238550Y167250D02*Y165000D01*
Y167250D02*X239300Y168000D01*
X240050D01*
X240800Y167250D01*
Y165000D01*
X237800Y168000D02*X238550Y167250D01*
X242600D02*Y165750D01*
Y167250D02*X243350Y168000D01*
X244850D01*
X245600Y167250D01*
Y165750D01*
X244850Y165000D02*X245600Y165750D01*
X243350Y165000D02*X244850D01*
X242600Y165750D02*X243350Y165000D01*
X247400Y168000D02*Y165750D01*
X248150Y165000D01*
X248900D01*
X249650Y165750D01*
Y168000D02*Y165750D01*
X250400Y165000D01*
X251150D01*
X251900Y165750D01*
Y168000D02*Y165750D01*
X254450Y167250D02*Y165000D01*
Y167250D02*X255200Y168000D01*
X255950D01*
X256700Y167250D01*
Y165000D01*
X253700Y168000D02*X254450Y167250D01*
X258500Y171000D02*X259250Y170250D01*
Y165750D01*
X258500Y165000D02*X259250Y165750D01*
X263750Y168000D02*X266750D01*
X271250Y171000D02*Y165000D01*
Y171000D02*X274250D01*
X271250Y168000D02*X273500D01*
X278300D02*X279050Y167250D01*
X276800Y168000D02*X278300D01*
X276050Y167250D02*X276800Y168000D01*
X276050Y167250D02*Y165750D01*
X276800Y165000D01*
X279050Y168000D02*Y165750D01*
X279800Y165000D01*
X276800D02*X278300D01*
X279050Y165750D01*
X281600Y171000D02*Y165000D01*
Y165750D02*X282350Y165000D01*
X283850D01*
X284600Y165750D01*
Y167250D02*Y165750D01*
X283850Y168000D02*X284600Y167250D01*
X282350Y168000D02*X283850D01*
X281600Y167250D02*X282350Y168000D01*
X287150Y167250D02*Y165000D01*
Y167250D02*X287900Y168000D01*
X289400D01*
X286400D02*X287150Y167250D01*
X291200Y169500D02*Y168750D01*
Y167250D02*Y165000D01*
X293450Y168000D02*X295700D01*
X292700Y167250D02*X293450Y168000D01*
X292700Y167250D02*Y165750D01*
X293450Y165000D01*
X295700D01*
X299750Y168000D02*X300500Y167250D01*
X298250Y168000D02*X299750D01*
X297500Y167250D02*X298250Y168000D01*
X297500Y167250D02*Y165750D01*
X298250Y165000D01*
X300500Y168000D02*Y165750D01*
X301250Y165000D01*
X298250D02*X299750D01*
X300500Y165750D01*
X303800Y171000D02*Y165750D01*
X304550Y165000D01*
X303050Y168750D02*X304550D01*
X306050Y169500D02*Y168750D01*
Y167250D02*Y165000D01*
X307550Y167250D02*Y165750D01*
Y167250D02*X308300Y168000D01*
X309800D01*
X310550Y167250D01*
Y165750D01*
X309800Y165000D02*X310550Y165750D01*
X308300Y165000D02*X309800D01*
X307550Y165750D02*X308300Y165000D01*
X313100Y167250D02*Y165000D01*
Y167250D02*X313850Y168000D01*
X314600D01*
X315350Y167250D01*
Y165000D01*
X312350Y168000D02*X313100Y167250D01*
X320600Y171000D02*Y165000D01*
X322850Y171000D02*X323600Y170250D01*
Y165750D01*
X322850Y165000D02*X323600Y165750D01*
X319850Y165000D02*X322850D01*
X319850Y171000D02*X322850D01*
X326150Y167250D02*Y165000D01*
Y167250D02*X326900Y168000D01*
X328400D01*
X325400D02*X326150Y167250D01*
X332450Y168000D02*X333200Y167250D01*
X330950Y168000D02*X332450D01*
X330200Y167250D02*X330950Y168000D01*
X330200Y167250D02*Y165750D01*
X330950Y165000D01*
X333200Y168000D02*Y165750D01*
X333950Y165000D01*
X330950D02*X332450D01*
X333200Y165750D01*
X335750Y168000D02*Y165750D01*
X336500Y165000D01*
X337250D01*
X338000Y165750D01*
Y168000D02*Y165750D01*
X338750Y165000D01*
X339500D01*
X340250Y165750D01*
Y168000D02*Y165750D01*
X342050Y169500D02*Y168750D01*
Y167250D02*Y165000D01*
X344300Y167250D02*Y165000D01*
Y167250D02*X345050Y168000D01*
X345800D01*
X346550Y167250D01*
Y165000D01*
X343550Y168000D02*X344300Y167250D01*
X350600Y168000D02*X351350Y167250D01*
X349100Y168000D02*X350600D01*
X348350Y167250D02*X349100Y168000D01*
X348350Y167250D02*Y165750D01*
X349100Y165000D01*
X350600D01*
X351350Y165750D01*
X348350Y163500D02*X349100Y162750D01*
X350600D01*
X351350Y163500D01*
Y168000D02*Y163500D01*
M02*
