M48
INCH
T66C0.020
T65C0.043
T64C0.035
T63C0.128
T62C0.038
T61C0.048
T60C0.095
T59C0.073
T58C0.051
%
T66
X016450Y012050
X016950Y011650
X017450Y011200
X015950Y010750
X010950Y012050
X011450Y011650
X011950Y011200
X010450Y010750
X010450Y011650
T64
X018450Y008900
X017950Y007900
X017450Y008900
X016950Y007900
X016450Y008900
X015950Y007900
X015450Y008900
X012950Y008900
X011950Y008900
X010950Y008900
X009950Y008900
X014950Y007900
X012450Y007900
X011450Y007900
X010450Y007900
X009450Y007900
T62
X028550Y007600
X025950Y007700
X023950Y007700
X028550Y011600
X021850Y011100
X021850Y010100
X021850Y009100
T65
X014500Y002950
X015500Y002950
T61
X025950Y010300
X023950Y010300
T58
X006545Y004920
X010485Y000980
X008515Y000980
X009500Y004920
X011470Y005900
X007530Y005900
X023455Y004920
X012455Y004920
X021485Y000980
X019515Y000980
X020500Y004920
X017545Y004920
X022470Y005900
X018530Y005900
T59
X001025Y002000
X001025Y003970
X003975Y002000
X003975Y003970
X026025Y002000
X026025Y003970
X028975Y002000
X028975Y003970
T60
X006545Y002950
X023455Y002950
X012455Y002950
X017545Y002950
T63
X018950Y011400
X008950Y011400
M30
