G04 start of page 2 for group 0 idx 0 *
G04 Title: (unknown), component *
G04 Creator: pcb 20110918 *
G04 CreationDate: Wed 29 Oct 2014 07:27:39 PM GMT UTC *
G04 For: ndholmes *
G04 Format: Gerber/RS-274X *
G04 PCB-Dimensions: 300000 125000 *
G04 PCB-Coordinate-Origin: lower left *
%MOIN*%
%FSLAX25Y25*%
%LNTOP*%
%ADD34C,0.0430*%
%ADD33C,0.0350*%
%ADD32C,0.1280*%
%ADD31C,0.0380*%
%ADD30C,0.0480*%
%ADD29C,0.0950*%
%ADD28C,0.0730*%
%ADD27C,0.0510*%
%ADD26C,0.0200*%
%ADD25C,0.0360*%
%ADD24C,0.0750*%
%ADD23C,0.1440*%
%ADD22C,0.0680*%
%ADD21C,0.0600*%
%ADD20C,0.0800*%
%ADD19C,0.1700*%
%ADD18C,0.1000*%
%ADD17C,0.0700*%
%ADD16C,0.0900*%
%ADD15C,0.0850*%
%ADD14C,0.0400*%
%ADD13C,0.0100*%
%ADD12C,0.0250*%
%ADD11C,0.0001*%
G54D11*G36*
X238170Y69000D02*X248500D01*
Y1500D01*
X238170D01*
Y20176D01*
X239104Y20562D01*
X240446Y21385D01*
X241643Y22407D01*
X242665Y23604D01*
X243488Y24946D01*
X244090Y26400D01*
X244457Y27931D01*
X244550Y29500D01*
X244457Y31069D01*
X244090Y32600D01*
X243488Y34054D01*
X242665Y35396D01*
X241643Y36593D01*
X240446Y37615D01*
X239104Y38438D01*
X238170Y38824D01*
Y42721D01*
X239784D01*
X240013Y42776D01*
X240230Y42866D01*
X240430Y42988D01*
X240609Y43141D01*
X240762Y43320D01*
X240884Y43520D01*
X240974Y43737D01*
X241029Y43966D01*
X241043Y44200D01*
Y47818D01*
X241015Y47932D01*
X240970Y48042D01*
X240909Y48142D01*
X240832Y48232D01*
X240742Y48309D01*
X240642Y48370D01*
X240532Y48415D01*
X240418Y48443D01*
X240300Y48452D01*
X240182Y48443D01*
X240068Y48415D01*
X239958Y48370D01*
X239858Y48309D01*
X239768Y48232D01*
X239691Y48142D01*
X239630Y48042D01*
X239585Y47932D01*
X239557Y47818D01*
X239550Y47700D01*
Y44200D01*
X238170Y44205D01*
Y54200D01*
X239550D01*
Y50700D01*
X239536Y50582D01*
X239564Y50468D01*
X239609Y50358D01*
X239671Y50258D01*
X239747Y50168D01*
X239837Y50091D01*
X239938Y50030D01*
X240047Y49985D01*
X240162Y49957D01*
X240279Y49948D01*
X240397Y49957D01*
X240512Y49985D01*
X240621Y50030D01*
X240721Y50091D01*
X240811Y50168D01*
X240888Y50258D01*
X240950Y50358D01*
X240995Y50468D01*
X241022Y50582D01*
X241029Y50700D01*
Y54434D01*
X240974Y54663D01*
X240884Y54880D01*
X240762Y55080D01*
X240609Y55259D01*
X240430Y55412D01*
X240230Y55534D01*
X240013Y55624D01*
X239784Y55679D01*
X239550Y55693D01*
X238170D01*
Y69000D01*
G37*
G36*
Y1500D02*X234535D01*
Y19470D01*
X234550Y19469D01*
X236119Y19593D01*
X237650Y19960D01*
X238170Y20176D01*
Y1500D01*
G37*
G36*
X234535Y69000D02*X238170D01*
Y55693D01*
X235932D01*
X235818Y55665D01*
X235708Y55620D01*
X235608Y55559D01*
X235518Y55482D01*
X235441Y55392D01*
X235380Y55292D01*
X235335Y55182D01*
X235307Y55068D01*
X235298Y54950D01*
X235307Y54832D01*
X235335Y54718D01*
X235380Y54608D01*
X235441Y54508D01*
X235518Y54418D01*
X235608Y54341D01*
X235708Y54280D01*
X235818Y54235D01*
X235932Y54207D01*
X236050Y54200D01*
X238170D01*
Y44205D01*
X235932Y44214D01*
X235818Y44186D01*
X235708Y44141D01*
X235608Y44079D01*
X235518Y44003D01*
X235441Y43913D01*
X235380Y43812D01*
X235335Y43703D01*
X235307Y43588D01*
X235298Y43471D01*
X235307Y43353D01*
X235335Y43238D01*
X235380Y43129D01*
X235441Y43029D01*
X235518Y42939D01*
X235608Y42862D01*
X235708Y42800D01*
X235818Y42755D01*
X235932Y42728D01*
X236050Y42721D01*
X238170D01*
Y38824D01*
X237650Y39040D01*
X236119Y39407D01*
X234550Y39531D01*
X234535Y39530D01*
Y69000D01*
G37*
G36*
X230933Y20174D02*X231450Y19960D01*
X232981Y19593D01*
X234535Y19470D01*
Y1500D01*
X230933D01*
Y20174D01*
G37*
G36*
Y54200D02*X233050D01*
X233168Y54186D01*
X233282Y54214D01*
X233392Y54259D01*
X233492Y54321D01*
X233582Y54397D01*
X233659Y54487D01*
X233720Y54588D01*
X233765Y54697D01*
X233793Y54812D01*
X233802Y54929D01*
X233793Y55047D01*
X233765Y55162D01*
X233720Y55271D01*
X233659Y55371D01*
X233582Y55461D01*
X233492Y55538D01*
X233392Y55600D01*
X233282Y55645D01*
X233168Y55672D01*
X233050Y55679D01*
X230933D01*
Y57119D01*
X231140Y57980D01*
X231200Y59000D01*
X231140Y60020D01*
X230933Y60881D01*
Y69000D01*
X234535D01*
Y39530D01*
X232981Y39407D01*
X231450Y39040D01*
X230933Y38826D01*
Y42700D01*
X233050D01*
X233168Y42707D01*
X233282Y42735D01*
X233392Y42780D01*
X233492Y42841D01*
X233582Y42918D01*
X233659Y43008D01*
X233720Y43108D01*
X233765Y43218D01*
X233793Y43332D01*
X233802Y43450D01*
X233793Y43568D01*
X233765Y43682D01*
X233720Y43792D01*
X233659Y43892D01*
X233582Y43982D01*
X233492Y44059D01*
X233392Y44120D01*
X233282Y44165D01*
X233168Y44193D01*
X233050Y44200D01*
X230933D01*
Y54200D01*
G37*
G36*
Y60881D02*X230901Y61015D01*
X230509Y61960D01*
X229975Y62832D01*
X229310Y63610D01*
X228532Y64275D01*
X227660Y64809D01*
X226715Y65201D01*
X225720Y65440D01*
X224700Y65520D01*
X223680Y65440D01*
X222685Y65201D01*
X221740Y64809D01*
X220868Y64275D01*
X220090Y63610D01*
X219425Y62832D01*
X218891Y61960D01*
X218596Y61250D01*
X201088D01*
X201000Y61257D01*
X200647Y61229D01*
X200303Y61146D01*
X199975Y61011D01*
X199673Y60826D01*
X199673Y60826D01*
X199404Y60596D01*
X199347Y60529D01*
X192068Y53250D01*
X188740D01*
X189250Y53563D01*
X190052Y54248D01*
X190737Y55050D01*
X191288Y55949D01*
X191692Y56923D01*
X191938Y57949D01*
X192000Y59000D01*
X191938Y60051D01*
X191692Y61077D01*
X191288Y62051D01*
X190737Y62950D01*
X190052Y63752D01*
X189250Y64437D01*
X188351Y64988D01*
X187377Y65392D01*
X186351Y65638D01*
X185300Y65721D01*
X184249Y65638D01*
X183223Y65392D01*
X182422Y65060D01*
X178482Y69000D01*
X230933D01*
Y60881D01*
G37*
G36*
Y55679D02*X230288D01*
X230509Y56040D01*
X230901Y56985D01*
X230933Y57119D01*
Y55679D01*
G37*
G36*
X214840Y56750D02*X218596D01*
X218891Y56040D01*
X219425Y55168D01*
X220090Y54390D01*
X220868Y53725D01*
X221740Y53191D01*
X222685Y52799D01*
X223680Y52560D01*
X224700Y52480D01*
X225720Y52560D01*
X226715Y52799D01*
X227660Y53191D01*
X228057Y53434D01*
Y50582D01*
X228085Y50468D01*
X228130Y50358D01*
X228191Y50258D01*
X228268Y50168D01*
X228358Y50091D01*
X228458Y50030D01*
X228568Y49985D01*
X228682Y49957D01*
X228800Y49948D01*
X228918Y49957D01*
X229032Y49985D01*
X229142Y50030D01*
X229242Y50091D01*
X229332Y50168D01*
X229409Y50258D01*
X229470Y50358D01*
X229515Y50468D01*
X229543Y50582D01*
X229550Y50700D01*
Y54200D01*
X230933D01*
Y44200D01*
X229557D01*
Y47818D01*
X229529Y47932D01*
X229484Y48042D01*
X229423Y48142D01*
X229346Y48232D01*
X229256Y48309D01*
X229155Y48370D01*
X229046Y48415D01*
X228932Y48443D01*
X228814Y48452D01*
X228696Y48443D01*
X228581Y48415D01*
X228472Y48370D01*
X228372Y48309D01*
X228282Y48232D01*
X228205Y48142D01*
X228144Y48042D01*
X228098Y47932D01*
X228071Y47818D01*
X228064Y47700D01*
Y43965D01*
X228119Y43735D01*
X228209Y43517D01*
X228333Y43316D01*
X228486Y43136D01*
X228666Y42983D01*
X228867Y42859D01*
X229085Y42769D01*
X229315Y42714D01*
X229550Y42700D01*
X230933D01*
Y38826D01*
X229996Y38438D01*
X228654Y37615D01*
X227457Y36593D01*
X226435Y35396D01*
X225612Y34054D01*
X225010Y32600D01*
X224643Y31069D01*
X224519Y29500D01*
X224643Y27931D01*
X225010Y26400D01*
X225612Y24946D01*
X226435Y23604D01*
X227457Y22407D01*
X228654Y21385D01*
X229996Y20562D01*
X230933Y20174D01*
Y1500D01*
X214840D01*
Y3281D01*
X214850Y3280D01*
X215870Y3360D01*
X216865Y3599D01*
X217810Y3991D01*
X218682Y4525D01*
X219460Y5190D01*
X220125Y5968D01*
X220659Y6840D01*
X221051Y7785D01*
X221290Y8780D01*
X221350Y9800D01*
X221290Y10820D01*
X221051Y11815D01*
X220659Y12760D01*
X220125Y13632D01*
X219460Y14410D01*
X218682Y15075D01*
X217810Y15609D01*
X216865Y16001D01*
X215870Y16240D01*
X214850Y16320D01*
X214840Y16319D01*
Y56750D01*
G37*
G36*
X204990D02*X214840D01*
Y16319D01*
X213830Y16240D01*
X212835Y16001D01*
X211890Y15609D01*
X211018Y15075D01*
X210240Y14410D01*
X209575Y13632D01*
X209041Y12760D01*
X208649Y11815D01*
X208410Y10820D01*
X208330Y9800D01*
X208410Y8780D01*
X208649Y7785D01*
X209041Y6840D01*
X209575Y5968D01*
X210240Y5190D01*
X211018Y4525D01*
X211890Y3991D01*
X212835Y3599D01*
X213830Y3360D01*
X214840Y3281D01*
Y1500D01*
X204990D01*
Y42681D01*
X205000Y42680D01*
X206020Y42760D01*
X207015Y42999D01*
X207960Y43391D01*
X208832Y43925D01*
X209610Y44590D01*
X210275Y45368D01*
X210809Y46240D01*
X211201Y47185D01*
X211440Y48180D01*
X211500Y49200D01*
X211440Y50220D01*
X211201Y51215D01*
X210809Y52160D01*
X210275Y53032D01*
X209610Y53810D01*
X208832Y54475D01*
X207960Y55009D01*
X207015Y55401D01*
X206020Y55640D01*
X205000Y55720D01*
X204990Y55719D01*
Y56750D01*
G37*
G36*
X195140Y49958D02*X201932Y56750D01*
X204990D01*
Y55719D01*
X203980Y55640D01*
X202985Y55401D01*
X202040Y55009D01*
X201168Y54475D01*
X200390Y53810D01*
X199725Y53032D01*
X199191Y52160D01*
X198799Y51215D01*
X198560Y50220D01*
X198480Y49200D01*
X198560Y48180D01*
X198799Y47185D01*
X199191Y46240D01*
X199725Y45368D01*
X200390Y44590D01*
X201168Y43925D01*
X202040Y43391D01*
X202985Y42999D01*
X203980Y42760D01*
X204990Y42681D01*
Y1500D01*
X195140D01*
Y3281D01*
X195150Y3280D01*
X196170Y3360D01*
X197165Y3599D01*
X198110Y3991D01*
X198982Y4525D01*
X199760Y5190D01*
X200425Y5968D01*
X200959Y6840D01*
X201351Y7785D01*
X201590Y8780D01*
X201650Y9800D01*
X201590Y10820D01*
X201351Y11815D01*
X200959Y12760D01*
X200425Y13632D01*
X199760Y14410D01*
X198982Y15075D01*
X198110Y15609D01*
X197165Y16001D01*
X196170Y16240D01*
X195150Y16320D01*
X195140Y16319D01*
Y49958D01*
G37*
G36*
X175435Y42481D02*X175450Y42479D01*
X176501Y42562D01*
X177527Y42808D01*
X178501Y43212D01*
X179400Y43763D01*
X180202Y44448D01*
X180887Y45250D01*
X181438Y46149D01*
X181842Y47123D01*
X182088Y48149D01*
X182150Y49194D01*
X182173Y49174D01*
X182475Y48989D01*
X182803Y48854D01*
X183147Y48771D01*
X183500Y48750D01*
X193000D01*
X193353Y48771D01*
X193697Y48854D01*
X194025Y48989D01*
X194327Y49174D01*
X194596Y49404D01*
X194826Y49673D01*
X194826Y49674D01*
X194827Y49674D01*
X195091Y49909D01*
X195140Y49958D01*
Y16319D01*
X194130Y16240D01*
X193135Y16001D01*
X192190Y15609D01*
X191318Y15075D01*
X190540Y14410D01*
X189875Y13632D01*
X189341Y12760D01*
X188949Y11815D01*
X188710Y10820D01*
X188630Y9800D01*
X188710Y8780D01*
X188949Y7785D01*
X189341Y6840D01*
X189875Y5968D01*
X190540Y5190D01*
X191318Y4525D01*
X192190Y3991D01*
X193135Y3599D01*
X194130Y3360D01*
X195140Y3281D01*
Y1500D01*
X175435D01*
Y19470D01*
X175450Y19469D01*
X177019Y19593D01*
X178550Y19960D01*
X180004Y20562D01*
X181346Y21385D01*
X182543Y22407D01*
X183565Y23604D01*
X184388Y24946D01*
X184990Y26400D01*
X185357Y27931D01*
X185450Y29500D01*
X185357Y31069D01*
X184990Y32600D01*
X184388Y34054D01*
X183565Y35396D01*
X182543Y36593D01*
X181346Y37615D01*
X180004Y38438D01*
X178550Y39040D01*
X177019Y39407D01*
X175450Y39531D01*
X175435Y39530D01*
Y42481D01*
G37*
G36*
Y56014D02*X175475Y55989D01*
X175685Y55902D01*
X175450Y55921D01*
X175435Y55919D01*
Y56014D01*
G37*
G36*
X150000Y69000D02*X162479D01*
X162489Y68975D01*
X162674Y68673D01*
X162674Y68673D01*
X162904Y68404D01*
X162971Y68347D01*
X174909Y56409D01*
X175173Y56174D01*
X175435Y56014D01*
Y55919D01*
X174399Y55838D01*
X173373Y55592D01*
X172399Y55188D01*
X171500Y54637D01*
X170698Y53952D01*
X170013Y53150D01*
X169462Y52251D01*
X169058Y51277D01*
X168812Y50251D01*
X168729Y49200D01*
X168812Y48149D01*
X169058Y47123D01*
X169462Y46149D01*
X170013Y45250D01*
X170698Y44448D01*
X171500Y43763D01*
X172399Y43212D01*
X173373Y42808D01*
X174399Y42562D01*
X175435Y42481D01*
Y39530D01*
X173881Y39407D01*
X172350Y39040D01*
X170896Y38438D01*
X169554Y37615D01*
X168357Y36593D01*
X167335Y35396D01*
X166512Y34054D01*
X165910Y32600D01*
X165543Y31069D01*
X165419Y29500D01*
X165543Y27931D01*
X165910Y26400D01*
X166512Y24946D01*
X167335Y23604D01*
X168357Y22407D01*
X169554Y21385D01*
X170896Y20562D01*
X172350Y19960D01*
X173881Y19593D01*
X175435Y19470D01*
Y1500D01*
X150000D01*
Y24919D01*
X150091Y25067D01*
X150181Y25285D01*
X150236Y25515D01*
X150250Y25750D01*
X150247Y27255D01*
X150308Y27109D01*
X150740Y26405D01*
X151276Y25776D01*
X151905Y25240D01*
X152609Y24808D01*
X153373Y24492D01*
X154176Y24299D01*
X155000Y24234D01*
X155824Y24299D01*
X156627Y24492D01*
X157391Y24808D01*
X158095Y25240D01*
X158724Y25776D01*
X159260Y26405D01*
X159692Y27109D01*
X160008Y27873D01*
X160201Y28676D01*
X160250Y29500D01*
X160201Y30324D01*
X160008Y31127D01*
X159692Y31891D01*
X159260Y32595D01*
X158724Y33224D01*
X158095Y33760D01*
X157391Y34192D01*
X156627Y34508D01*
X155824Y34701D01*
X155000Y34766D01*
X154176Y34701D01*
X153373Y34508D01*
X152609Y34192D01*
X151905Y33760D01*
X151276Y33224D01*
X150740Y32595D01*
X150308Y31891D01*
X150239Y31725D01*
X150236Y33485D01*
X150181Y33715D01*
X150091Y33933D01*
X150000Y34081D01*
Y69000D01*
G37*
G36*
X128170D02*X150000D01*
Y34081D01*
X149967Y34134D01*
X149814Y34314D01*
X149634Y34467D01*
X149433Y34591D01*
X149215Y34681D01*
X148985Y34736D01*
X148750Y34750D01*
X141015Y34736D01*
X140785Y34681D01*
X140567Y34591D01*
X140366Y34467D01*
X140186Y34314D01*
X140033Y34134D01*
X139909Y33933D01*
X139819Y33715D01*
X139764Y33485D01*
X139750Y33250D01*
X139764Y25515D01*
X139819Y25285D01*
X139909Y25067D01*
X140033Y24866D01*
X140186Y24686D01*
X140366Y24533D01*
X140567Y24409D01*
X140785Y24319D01*
X141015Y24264D01*
X141250Y24250D01*
X148985Y24264D01*
X149215Y24319D01*
X149433Y24409D01*
X149634Y24533D01*
X149814Y24686D01*
X149967Y24866D01*
X150000Y24919D01*
Y1500D01*
X128170D01*
Y20176D01*
X129104Y20562D01*
X130446Y21385D01*
X131643Y22407D01*
X132665Y23604D01*
X133488Y24946D01*
X134090Y26400D01*
X134457Y27931D01*
X134550Y29500D01*
X134457Y31069D01*
X134090Y32600D01*
X133488Y34054D01*
X132665Y35396D01*
X131643Y36593D01*
X130446Y37615D01*
X129104Y38438D01*
X128170Y38824D01*
Y42721D01*
X129784D01*
X130013Y42776D01*
X130230Y42866D01*
X130430Y42988D01*
X130609Y43141D01*
X130762Y43320D01*
X130884Y43520D01*
X130974Y43737D01*
X131029Y43966D01*
X131043Y44200D01*
Y47818D01*
X131015Y47932D01*
X130970Y48042D01*
X130909Y48142D01*
X130832Y48232D01*
X130742Y48309D01*
X130642Y48370D01*
X130532Y48415D01*
X130418Y48443D01*
X130300Y48452D01*
X130182Y48443D01*
X130068Y48415D01*
X129958Y48370D01*
X129858Y48309D01*
X129768Y48232D01*
X129691Y48142D01*
X129630Y48042D01*
X129585Y47932D01*
X129557Y47818D01*
X129550Y47700D01*
Y44200D01*
X128170Y44205D01*
Y54200D01*
X129550D01*
Y50700D01*
X129536Y50582D01*
X129564Y50468D01*
X129609Y50358D01*
X129671Y50258D01*
X129747Y50168D01*
X129837Y50091D01*
X129938Y50030D01*
X130047Y49985D01*
X130162Y49957D01*
X130279Y49948D01*
X130397Y49957D01*
X130512Y49985D01*
X130621Y50030D01*
X130721Y50091D01*
X130811Y50168D01*
X130888Y50258D01*
X130950Y50358D01*
X130995Y50468D01*
X131022Y50582D01*
X131029Y50700D01*
Y54434D01*
X130974Y54663D01*
X130884Y54880D01*
X130762Y55080D01*
X130609Y55259D01*
X130430Y55412D01*
X130230Y55534D01*
X130013Y55624D01*
X129784Y55679D01*
X129550Y55693D01*
X128170D01*
Y69000D01*
G37*
G36*
Y1500D02*X124535D01*
Y19470D01*
X124550Y19469D01*
X126119Y19593D01*
X127650Y19960D01*
X128170Y20176D01*
Y1500D01*
G37*
G36*
X124535Y69000D02*X128170D01*
Y55693D01*
X125932D01*
X125818Y55665D01*
X125708Y55620D01*
X125608Y55559D01*
X125518Y55482D01*
X125441Y55392D01*
X125380Y55292D01*
X125335Y55182D01*
X125307Y55068D01*
X125298Y54950D01*
X125307Y54832D01*
X125335Y54718D01*
X125380Y54608D01*
X125441Y54508D01*
X125518Y54418D01*
X125608Y54341D01*
X125708Y54280D01*
X125818Y54235D01*
X125932Y54207D01*
X126050Y54200D01*
X128170D01*
Y44205D01*
X125932Y44214D01*
X125818Y44186D01*
X125708Y44141D01*
X125608Y44079D01*
X125518Y44003D01*
X125441Y43913D01*
X125380Y43812D01*
X125335Y43703D01*
X125307Y43588D01*
X125298Y43471D01*
X125307Y43353D01*
X125335Y43238D01*
X125380Y43129D01*
X125441Y43029D01*
X125518Y42939D01*
X125608Y42862D01*
X125708Y42800D01*
X125818Y42755D01*
X125932Y42728D01*
X126050Y42721D01*
X128170D01*
Y38824D01*
X127650Y39040D01*
X126119Y39407D01*
X124550Y39531D01*
X124535Y39530D01*
Y69000D01*
G37*
G36*
X120933Y20174D02*X121450Y19960D01*
X122981Y19593D01*
X124535Y19470D01*
Y1500D01*
X120933D01*
Y20174D01*
G37*
G36*
Y54200D02*X123050D01*
X123168Y54186D01*
X123282Y54214D01*
X123392Y54259D01*
X123492Y54321D01*
X123582Y54397D01*
X123659Y54487D01*
X123720Y54588D01*
X123765Y54697D01*
X123793Y54812D01*
X123802Y54929D01*
X123793Y55047D01*
X123765Y55162D01*
X123720Y55271D01*
X123659Y55371D01*
X123582Y55461D01*
X123492Y55538D01*
X123392Y55600D01*
X123282Y55645D01*
X123168Y55672D01*
X123050Y55679D01*
X120933D01*
Y57119D01*
X121140Y57980D01*
X121200Y59000D01*
X121140Y60020D01*
X120933Y60881D01*
Y69000D01*
X124535D01*
Y39530D01*
X122981Y39407D01*
X121450Y39040D01*
X120933Y38826D01*
Y42700D01*
X123050D01*
X123168Y42707D01*
X123282Y42735D01*
X123392Y42780D01*
X123492Y42841D01*
X123582Y42918D01*
X123659Y43008D01*
X123720Y43108D01*
X123765Y43218D01*
X123793Y43332D01*
X123802Y43450D01*
X123793Y43568D01*
X123765Y43682D01*
X123720Y43792D01*
X123659Y43892D01*
X123582Y43982D01*
X123492Y44059D01*
X123392Y44120D01*
X123282Y44165D01*
X123168Y44193D01*
X123050Y44200D01*
X120933D01*
Y54200D01*
G37*
G36*
Y60881D02*X120901Y61015D01*
X120509Y61960D01*
X119975Y62832D01*
X119310Y63610D01*
X118532Y64275D01*
X117660Y64809D01*
X116715Y65201D01*
X115720Y65440D01*
X114700Y65520D01*
X113680Y65440D01*
X112685Y65201D01*
X112187Y64995D01*
X111750Y65432D01*
Y69000D01*
X120933D01*
Y60881D01*
G37*
G36*
Y55679D02*X120288D01*
X120509Y56040D01*
X120901Y56985D01*
X120933Y57119D01*
Y55679D01*
G37*
G36*
X104840Y69000D02*X107250D01*
Y64588D01*
X107243Y64500D01*
X107271Y64147D01*
Y64147D01*
X107354Y63803D01*
X107489Y63475D01*
X107559Y63361D01*
X107674Y63173D01*
X107674Y63173D01*
X107904Y62904D01*
X107971Y62847D01*
X108881Y61937D01*
X108499Y61015D01*
X108260Y60020D01*
X108180Y59000D01*
X108260Y57980D01*
X108499Y56985D01*
X108891Y56040D01*
X109425Y55168D01*
X110090Y54390D01*
X110868Y53725D01*
X111740Y53191D01*
X112685Y52799D01*
X113680Y52560D01*
X114700Y52480D01*
X115720Y52560D01*
X116715Y52799D01*
X117660Y53191D01*
X118057Y53434D01*
Y50582D01*
X118085Y50468D01*
X118130Y50358D01*
X118191Y50258D01*
X118268Y50168D01*
X118358Y50091D01*
X118458Y50030D01*
X118568Y49985D01*
X118682Y49957D01*
X118800Y49948D01*
X118918Y49957D01*
X119032Y49985D01*
X119142Y50030D01*
X119242Y50091D01*
X119332Y50168D01*
X119409Y50258D01*
X119470Y50358D01*
X119515Y50468D01*
X119543Y50582D01*
X119550Y50700D01*
Y54200D01*
X120933D01*
Y44200D01*
X119557D01*
Y47818D01*
X119529Y47932D01*
X119484Y48042D01*
X119423Y48142D01*
X119346Y48232D01*
X119256Y48309D01*
X119155Y48370D01*
X119046Y48415D01*
X118932Y48443D01*
X118814Y48452D01*
X118696Y48443D01*
X118581Y48415D01*
X118472Y48370D01*
X118372Y48309D01*
X118282Y48232D01*
X118205Y48142D01*
X118144Y48042D01*
X118098Y47932D01*
X118071Y47818D01*
X118064Y47700D01*
Y43965D01*
X118119Y43735D01*
X118209Y43517D01*
X118333Y43316D01*
X118486Y43136D01*
X118666Y42983D01*
X118867Y42859D01*
X119085Y42769D01*
X119315Y42714D01*
X119550Y42700D01*
X120933D01*
Y38826D01*
X119996Y38438D01*
X118654Y37615D01*
X117457Y36593D01*
X116435Y35396D01*
X115612Y34054D01*
X115010Y32600D01*
X114643Y31069D01*
X114519Y29500D01*
X114643Y27931D01*
X115010Y26400D01*
X115612Y24946D01*
X116435Y23604D01*
X117457Y22407D01*
X118654Y21385D01*
X119996Y20562D01*
X120933Y20174D01*
Y1500D01*
X104840D01*
Y3281D01*
X104850Y3280D01*
X105870Y3360D01*
X106865Y3599D01*
X107810Y3991D01*
X108682Y4525D01*
X109460Y5190D01*
X110125Y5968D01*
X110659Y6840D01*
X111051Y7785D01*
X111290Y8780D01*
X111350Y9800D01*
X111290Y10820D01*
X111051Y11815D01*
X110659Y12760D01*
X110125Y13632D01*
X109460Y14410D01*
X108682Y15075D01*
X107810Y15609D01*
X106865Y16001D01*
X105870Y16240D01*
X104850Y16320D01*
X104840Y16319D01*
Y69000D01*
G37*
G36*
X94990D02*X104840D01*
Y16319D01*
X103830Y16240D01*
X102835Y16001D01*
X101890Y15609D01*
X101018Y15075D01*
X100240Y14410D01*
X99575Y13632D01*
X99041Y12760D01*
X98649Y11815D01*
X98410Y10820D01*
X98330Y9800D01*
X98410Y8780D01*
X98649Y7785D01*
X99041Y6840D01*
X99575Y5968D01*
X100240Y5190D01*
X101018Y4525D01*
X101890Y3991D01*
X102835Y3599D01*
X103830Y3360D01*
X104840Y3281D01*
Y1500D01*
X94990D01*
Y42681D01*
X95000Y42680D01*
X96020Y42760D01*
X97015Y42999D01*
X97960Y43391D01*
X98832Y43925D01*
X99610Y44590D01*
X100275Y45368D01*
X100809Y46240D01*
X101201Y47185D01*
X101440Y48180D01*
X101500Y49200D01*
X101440Y50220D01*
X101201Y51215D01*
X100809Y52160D01*
X100275Y53032D01*
X99610Y53810D01*
X98832Y54475D01*
X97960Y55009D01*
X97015Y55401D01*
X96020Y55640D01*
X95000Y55720D01*
X94990Y55719D01*
Y69000D01*
G37*
G36*
X85140D02*X94990D01*
Y55719D01*
X93980Y55640D01*
X92985Y55401D01*
X92040Y55009D01*
X91168Y54475D01*
X90390Y53810D01*
X89725Y53032D01*
X89191Y52160D01*
X88799Y51215D01*
X88560Y50220D01*
X88480Y49200D01*
X88560Y48180D01*
X88799Y47185D01*
X89191Y46240D01*
X89725Y45368D01*
X90390Y44590D01*
X91168Y43925D01*
X92040Y43391D01*
X92985Y42999D01*
X93980Y42760D01*
X94990Y42681D01*
Y1500D01*
X85140D01*
Y3281D01*
X85150Y3280D01*
X86170Y3360D01*
X87165Y3599D01*
X88110Y3991D01*
X88982Y4525D01*
X89760Y5190D01*
X90425Y5968D01*
X90959Y6840D01*
X91351Y7785D01*
X91590Y8780D01*
X91650Y9800D01*
X91590Y10820D01*
X91351Y11815D01*
X90959Y12760D01*
X90425Y13632D01*
X89760Y14410D01*
X88982Y15075D01*
X88110Y15609D01*
X87165Y16001D01*
X86170Y16240D01*
X85150Y16320D01*
X85140Y16319D01*
Y69000D01*
G37*
G36*
X65440D02*X73050D01*
Y65104D01*
X72340Y64809D01*
X71468Y64275D01*
X70690Y63610D01*
X70025Y62832D01*
X69491Y61960D01*
X69099Y61015D01*
X68860Y60020D01*
X68780Y59000D01*
X68860Y57980D01*
X69099Y56985D01*
X69491Y56040D01*
X70025Y55168D01*
X70690Y54390D01*
X71468Y53725D01*
X72340Y53191D01*
X73285Y52799D01*
X74280Y52560D01*
X75300Y52480D01*
X76320Y52560D01*
X77315Y52799D01*
X78260Y53191D01*
X79132Y53725D01*
X79910Y54390D01*
X80575Y55168D01*
X81109Y56040D01*
X81501Y56985D01*
X81740Y57980D01*
X81800Y59000D01*
X81740Y60020D01*
X81501Y61015D01*
X81109Y61960D01*
X80575Y62832D01*
X79910Y63610D01*
X79132Y64275D01*
X78260Y64809D01*
X77550Y65104D01*
Y69000D01*
X85140D01*
Y16319D01*
X84130Y16240D01*
X83135Y16001D01*
X82190Y15609D01*
X81318Y15075D01*
X80540Y14410D01*
X79875Y13632D01*
X79341Y12760D01*
X78949Y11815D01*
X78710Y10820D01*
X78630Y9800D01*
X78710Y8780D01*
X78949Y7785D01*
X79341Y6840D01*
X79875Y5968D01*
X80540Y5190D01*
X81318Y4525D01*
X82190Y3991D01*
X83135Y3599D01*
X84130Y3360D01*
X85140Y3281D01*
Y1500D01*
X65440D01*
Y19470D01*
X65450Y19469D01*
X67019Y19593D01*
X68550Y19960D01*
X70004Y20562D01*
X71346Y21385D01*
X72543Y22407D01*
X73565Y23604D01*
X74388Y24946D01*
X74990Y26400D01*
X75357Y27931D01*
X75450Y29500D01*
X75357Y31069D01*
X74990Y32600D01*
X74388Y34054D01*
X73565Y35396D01*
X72543Y36593D01*
X71346Y37615D01*
X70004Y38438D01*
X68550Y39040D01*
X67019Y39407D01*
X65450Y39531D01*
X65440Y39530D01*
Y42681D01*
X65450Y42680D01*
X66470Y42760D01*
X67465Y42999D01*
X68410Y43391D01*
X69282Y43925D01*
X70060Y44590D01*
X70725Y45368D01*
X71259Y46240D01*
X71651Y47185D01*
X71890Y48180D01*
X71950Y49200D01*
X71890Y50220D01*
X71651Y51215D01*
X71259Y52160D01*
X70725Y53032D01*
X70060Y53810D01*
X69282Y54475D01*
X68410Y55009D01*
X67465Y55401D01*
X66470Y55640D01*
X65450Y55720D01*
X65440Y55719D01*
Y69000D01*
G37*
G36*
X52000D02*X65440D01*
Y55719D01*
X64430Y55640D01*
X63435Y55401D01*
X62490Y55009D01*
X61618Y54475D01*
X60840Y53810D01*
X60175Y53032D01*
X59641Y52160D01*
X59249Y51215D01*
X59010Y50220D01*
X58930Y49200D01*
X59010Y48180D01*
X59249Y47185D01*
X59641Y46240D01*
X60175Y45368D01*
X60840Y44590D01*
X61618Y43925D01*
X62490Y43391D01*
X63435Y42999D01*
X64430Y42760D01*
X65440Y42681D01*
Y39530D01*
X63881Y39407D01*
X62350Y39040D01*
X60896Y38438D01*
X59554Y37615D01*
X58357Y36593D01*
X57335Y35396D01*
X56512Y34054D01*
X55910Y32600D01*
X55543Y31069D01*
X55419Y29500D01*
X55543Y27931D01*
X55910Y26400D01*
X56512Y24946D01*
X57335Y23604D01*
X58357Y22407D01*
X59554Y21385D01*
X60896Y20562D01*
X62350Y19960D01*
X63881Y19593D01*
X65440Y19470D01*
Y1500D01*
X52000D01*
Y69000D01*
G37*
G36*
X289464Y123500D02*X298500D01*
Y52500D01*
X289464D01*
Y71210D01*
X289583Y71259D01*
X289784Y71383D01*
X289964Y71536D01*
X290117Y71716D01*
X290241Y71917D01*
X290331Y72135D01*
X290386Y72365D01*
X290400Y72600D01*
X290386Y79635D01*
X290331Y79865D01*
X290241Y80083D01*
X290117Y80284D01*
X289964Y80464D01*
X289784Y80617D01*
X289583Y80741D01*
X289464Y80790D01*
Y113564D01*
X289549Y113589D01*
X289655Y113639D01*
X289753Y113706D01*
X289839Y113787D01*
X289911Y113880D01*
X289966Y113984D01*
X290141Y114412D01*
X290270Y114855D01*
X290357Y115309D01*
X290400Y115769D01*
Y116231D01*
X290357Y116691D01*
X290270Y117145D01*
X290141Y117588D01*
X289971Y118018D01*
X289915Y118122D01*
X289842Y118216D01*
X289755Y118297D01*
X289657Y118364D01*
X289550Y118414D01*
X289464Y118440D01*
Y123500D01*
G37*
G36*
Y52500D02*X285500D01*
Y71107D01*
X289135Y71114D01*
X289365Y71169D01*
X289464Y71210D01*
Y52500D01*
G37*
G36*
X285500Y123500D02*X289464D01*
Y118440D01*
X289436Y118448D01*
X289318Y118462D01*
X289200Y118459D01*
X289083Y118437D01*
X288972Y118396D01*
X288868Y118339D01*
X288774Y118266D01*
X288693Y118180D01*
X288626Y118082D01*
X288575Y117975D01*
X288542Y117861D01*
X288527Y117743D01*
X288531Y117624D01*
X288553Y117508D01*
X288596Y117397D01*
X288717Y117101D01*
X288806Y116793D01*
X288866Y116479D01*
X288896Y116160D01*
Y115840D01*
X288866Y115521D01*
X288806Y115207D01*
X288717Y114899D01*
X288599Y114601D01*
X288557Y114491D01*
X288535Y114375D01*
X288531Y114257D01*
X288546Y114140D01*
X288579Y114027D01*
X288629Y113920D01*
X288696Y113822D01*
X288776Y113736D01*
X288870Y113664D01*
X288973Y113607D01*
X289084Y113567D01*
X289200Y113545D01*
X289318Y113541D01*
X289435Y113556D01*
X289464Y113564D01*
Y80790D01*
X289365Y80831D01*
X289135Y80886D01*
X288900Y80900D01*
X285500Y80893D01*
Y111100D01*
X285731D01*
X286191Y111143D01*
X286645Y111230D01*
X287088Y111359D01*
X287518Y111529D01*
X287622Y111585D01*
X287716Y111658D01*
X287797Y111745D01*
X287864Y111843D01*
X287914Y111950D01*
X287948Y112064D01*
X287962Y112182D01*
X287959Y112300D01*
X287936Y112417D01*
X287896Y112528D01*
X287839Y112632D01*
X287766Y112726D01*
X287680Y112807D01*
X287582Y112874D01*
X287475Y112925D01*
X287361Y112958D01*
X287243Y112973D01*
X287124Y112969D01*
X287008Y112947D01*
X286897Y112904D01*
X286601Y112783D01*
X286293Y112694D01*
X285979Y112634D01*
X285660Y112604D01*
X285500D01*
Y119396D01*
X285660D01*
X285979Y119366D01*
X286293Y119306D01*
X286601Y119217D01*
X286899Y119099D01*
X287009Y119057D01*
X287125Y119035D01*
X287243Y119031D01*
X287360Y119046D01*
X287473Y119079D01*
X287580Y119129D01*
X287678Y119196D01*
X287764Y119276D01*
X287836Y119370D01*
X287893Y119473D01*
X287933Y119584D01*
X287955Y119700D01*
X287959Y119818D01*
X287944Y119935D01*
X287911Y120049D01*
X287861Y120155D01*
X287794Y120253D01*
X287713Y120339D01*
X287620Y120411D01*
X287516Y120466D01*
X287088Y120641D01*
X286645Y120770D01*
X286191Y120857D01*
X285731Y120900D01*
X285500D01*
Y123500D01*
G37*
G36*
X281536Y71210D02*X281635Y71169D01*
X281865Y71114D01*
X282100Y71100D01*
X285500Y71107D01*
Y52500D01*
X281536D01*
Y71210D01*
G37*
G36*
Y123500D02*X285500D01*
Y120900D01*
X285269D01*
X284809Y120857D01*
X284355Y120770D01*
X283912Y120641D01*
X283482Y120471D01*
X283378Y120415D01*
X283284Y120342D01*
X283203Y120255D01*
X283136Y120157D01*
X283086Y120050D01*
X283052Y119936D01*
X283038Y119818D01*
X283041Y119700D01*
X283063Y119583D01*
X283104Y119472D01*
X283161Y119368D01*
X283234Y119274D01*
X283320Y119193D01*
X283418Y119126D01*
X283525Y119075D01*
X283639Y119042D01*
X283757Y119027D01*
X283876Y119031D01*
X283992Y119053D01*
X284103Y119096D01*
X284399Y119217D01*
X284707Y119306D01*
X285021Y119366D01*
X285340Y119396D01*
X285500D01*
Y112604D01*
X285340D01*
X285021Y112634D01*
X284707Y112694D01*
X284399Y112783D01*
X284101Y112901D01*
X283991Y112943D01*
X283875Y112965D01*
X283757Y112969D01*
X283640Y112954D01*
X283527Y112921D01*
X283420Y112871D01*
X283322Y112804D01*
X283236Y112724D01*
X283164Y112630D01*
X283107Y112527D01*
X283067Y112416D01*
X283045Y112300D01*
X283041Y112182D01*
X283056Y112065D01*
X283089Y111951D01*
X283139Y111845D01*
X283206Y111747D01*
X283287Y111661D01*
X283380Y111589D01*
X283484Y111534D01*
X283912Y111359D01*
X284355Y111230D01*
X284809Y111143D01*
X285269Y111100D01*
X285500D01*
Y80893D01*
X281865Y80886D01*
X281635Y80831D01*
X281536Y80790D01*
Y113560D01*
X281564Y113552D01*
X281682Y113538D01*
X281800Y113541D01*
X281917Y113564D01*
X282028Y113604D01*
X282132Y113661D01*
X282226Y113734D01*
X282307Y113820D01*
X282374Y113918D01*
X282425Y114025D01*
X282458Y114139D01*
X282473Y114257D01*
X282469Y114376D01*
X282447Y114492D01*
X282404Y114603D01*
X282283Y114899D01*
X282194Y115207D01*
X282134Y115521D01*
X282104Y115840D01*
Y116160D01*
X282134Y116479D01*
X282194Y116793D01*
X282283Y117101D01*
X282401Y117399D01*
X282443Y117509D01*
X282465Y117625D01*
X282469Y117743D01*
X282454Y117860D01*
X282421Y117973D01*
X282371Y118080D01*
X282304Y118178D01*
X282224Y118264D01*
X282130Y118336D01*
X282027Y118393D01*
X281916Y118433D01*
X281800Y118455D01*
X281682Y118459D01*
X281565Y118444D01*
X281536Y118436D01*
Y123500D01*
G37*
G36*
X259500D02*X281536D01*
Y118436D01*
X281451Y118411D01*
X281345Y118361D01*
X281247Y118294D01*
X281161Y118213D01*
X281089Y118120D01*
X281034Y118016D01*
X280859Y117588D01*
X280730Y117145D01*
X280643Y116691D01*
X280600Y116231D01*
Y115769D01*
X280643Y115309D01*
X280730Y114855D01*
X280859Y114412D01*
X281029Y113982D01*
X281085Y113878D01*
X281158Y113784D01*
X281245Y113703D01*
X281343Y113636D01*
X281450Y113586D01*
X281536Y113560D01*
Y80790D01*
X281417Y80741D01*
X281216Y80617D01*
X281036Y80464D01*
X280883Y80284D01*
X280759Y80083D01*
X280669Y79865D01*
X280614Y79635D01*
X280600Y79400D01*
X280614Y72365D01*
X280669Y72135D01*
X280759Y71917D01*
X280883Y71716D01*
X281036Y71536D01*
X281216Y71383D01*
X281417Y71259D01*
X281536Y71210D01*
Y52500D01*
X259500D01*
Y71483D01*
X260363Y71551D01*
X261205Y71753D01*
X262005Y72084D01*
X262705Y72514D01*
X262735Y72514D01*
X262965Y72569D01*
X263183Y72659D01*
X263384Y72783D01*
X263564Y72936D01*
X263717Y73116D01*
X263841Y73317D01*
X263931Y73535D01*
X263986Y73765D01*
X263988Y73798D01*
X264416Y74495D01*
X264747Y75295D01*
X264949Y76137D01*
X265000Y77000D01*
Y99000D01*
X265000Y99000D01*
X265000Y99002D01*
Y103000D01*
X264993Y103118D01*
X264986Y107235D01*
X264931Y107465D01*
X264841Y107683D01*
X264717Y107884D01*
X264564Y108064D01*
X264384Y108217D01*
X264183Y108341D01*
X263965Y108431D01*
X263735Y108486D01*
X263500Y108500D01*
X259795Y108494D01*
X259500Y108517D01*
Y123500D01*
G37*
G36*
X239492Y54200D02*X239550D01*
Y52500D01*
X239492D01*
Y54200D01*
G37*
G36*
Y123500D02*X259500D01*
Y108517D01*
X259192Y108493D01*
X255265Y108486D01*
X255035Y108431D01*
X254817Y108341D01*
X254616Y108217D01*
X254436Y108064D01*
X254283Y107884D01*
X254159Y107683D01*
X254069Y107465D01*
X254014Y107235D01*
X254000Y107000D01*
X254007Y103111D01*
X254000Y103000D01*
Y77000D01*
X254051Y76137D01*
X254253Y75295D01*
X254584Y74495D01*
X255014Y73795D01*
X255014Y73765D01*
X255069Y73535D01*
X255159Y73317D01*
X255283Y73116D01*
X255436Y72936D01*
X255616Y72783D01*
X255817Y72659D01*
X256035Y72569D01*
X256265Y72514D01*
X256298Y72512D01*
X256995Y72084D01*
X257795Y71753D01*
X258637Y71551D01*
X259500Y71483D01*
Y52500D01*
X241029D01*
Y54434D01*
X240974Y54663D01*
X240884Y54880D01*
X240762Y55080D01*
X240609Y55259D01*
X240430Y55412D01*
X240230Y55534D01*
X240013Y55624D01*
X239784Y55679D01*
X239550Y55693D01*
X239492D01*
Y71333D01*
X239500Y71333D01*
X240387Y71402D01*
X241251Y71610D01*
X242073Y71950D01*
X242831Y72415D01*
X243507Y72993D01*
X244085Y73669D01*
X244550Y74427D01*
X244890Y75249D01*
X245098Y76113D01*
X245150Y77000D01*
Y87500D01*
X245098Y88387D01*
X244890Y89251D01*
X244550Y90073D01*
X244085Y90831D01*
X243507Y91507D01*
X242831Y92085D01*
X242292Y92416D01*
X240005Y94703D01*
X239866Y94866D01*
X239492Y95185D01*
Y97484D01*
X239500Y97483D01*
X240363Y97551D01*
X241205Y97753D01*
X242005Y98084D01*
X242743Y98537D01*
X243401Y99099D01*
X243963Y99757D01*
X244416Y100495D01*
X244747Y101295D01*
X244949Y102137D01*
X245000Y103000D01*
X244949Y103863D01*
X244747Y104705D01*
X244416Y105505D01*
X243963Y106243D01*
X243401Y106901D01*
X242743Y107463D01*
X242005Y107916D01*
X241205Y108247D01*
X240363Y108449D01*
X239500Y108517D01*
X239492Y108516D01*
Y123500D01*
G37*
G36*
Y55693D02*X235932D01*
X235818Y55665D01*
X235708Y55620D01*
X235608Y55559D01*
X235518Y55482D01*
X235441Y55392D01*
X235380Y55292D01*
X235335Y55182D01*
X235307Y55068D01*
X235298Y54950D01*
X235307Y54832D01*
X235335Y54718D01*
X235380Y54608D01*
X235441Y54508D01*
X235518Y54418D01*
X235608Y54341D01*
X235708Y54280D01*
X235818Y54235D01*
X235932Y54207D01*
X236050Y54200D01*
X239492D01*
Y52500D01*
X229550D01*
Y54200D01*
X233050D01*
X233168Y54186D01*
X233282Y54214D01*
X233392Y54259D01*
X233492Y54321D01*
X233582Y54397D01*
X233659Y54487D01*
X233720Y54588D01*
X233765Y54697D01*
X233793Y54812D01*
X233802Y54929D01*
X233793Y55047D01*
X233765Y55162D01*
X233720Y55271D01*
X233659Y55371D01*
X233582Y55461D01*
X233492Y55538D01*
X233392Y55600D01*
X233282Y55645D01*
X233168Y55672D01*
X233050Y55679D01*
X230288D01*
X230509Y56040D01*
X230901Y56985D01*
X231140Y57980D01*
X231200Y59000D01*
X231140Y60020D01*
X230901Y61015D01*
X230509Y61960D01*
X229975Y62832D01*
X229310Y63610D01*
X229092Y63797D01*
Y85550D01*
X233743D01*
X233850Y85443D01*
Y77000D01*
X233902Y76113D01*
X234110Y75249D01*
X234450Y74427D01*
X234915Y73669D01*
X235493Y72993D01*
X236169Y72415D01*
X236927Y71950D01*
X237749Y71610D01*
X238613Y71402D01*
X239492Y71333D01*
Y55693D01*
G37*
G36*
X229092Y123500D02*X239492D01*
Y108516D01*
X238637Y108449D01*
X237795Y108247D01*
X236995Y107916D01*
X236257Y107463D01*
X235599Y106901D01*
X235037Y106243D01*
X234584Y105505D01*
X234253Y104705D01*
X234051Y103863D01*
X233983Y103000D01*
X234051Y102137D01*
X234253Y101295D01*
X234584Y100495D01*
X235037Y99757D01*
X235599Y99099D01*
X236257Y98537D01*
X236995Y98084D01*
X237795Y97753D01*
X238637Y97551D01*
X239492Y97484D01*
Y95185D01*
X239213Y95423D01*
X238482Y95871D01*
X237689Y96199D01*
X236855Y96400D01*
X236855Y96400D01*
X236000Y96467D01*
X235787Y96450D01*
X229092D01*
Y123500D01*
G37*
G36*
X218500Y85550D02*X229092D01*
Y63797D01*
X228532Y64275D01*
X227660Y64809D01*
X226715Y65201D01*
X225720Y65440D01*
X224700Y65520D01*
X223680Y65440D01*
X222685Y65201D01*
X221740Y64809D01*
X220868Y64275D01*
X220090Y63610D01*
X219425Y62832D01*
X218891Y61960D01*
X218596Y61250D01*
X218500D01*
Y85550D01*
G37*
G36*
X222113Y123500D02*X229092D01*
Y96450D01*
X222113D01*
Y98853D01*
X222156Y98860D01*
X222268Y98897D01*
X222373Y98952D01*
X222468Y99022D01*
X222551Y99106D01*
X222619Y99202D01*
X222670Y99308D01*
X222818Y99716D01*
X222922Y100137D01*
X222984Y100567D01*
X223005Y101000D01*
X222984Y101433D01*
X222922Y101863D01*
X222818Y102284D01*
X222675Y102694D01*
X222622Y102800D01*
X222553Y102896D01*
X222470Y102981D01*
X222375Y103051D01*
X222269Y103106D01*
X222157Y103143D01*
X222113Y103151D01*
Y106630D01*
X222183Y106659D01*
X222384Y106783D01*
X222564Y106936D01*
X222717Y107116D01*
X222841Y107317D01*
X222931Y107535D01*
X222986Y107765D01*
X223000Y108000D01*
X222986Y114235D01*
X222931Y114465D01*
X222841Y114683D01*
X222717Y114884D01*
X222564Y115064D01*
X222384Y115217D01*
X222183Y115341D01*
X222113Y115370D01*
Y123500D01*
G37*
G36*
Y96450D02*X218500D01*
Y96495D01*
X218933Y96516D01*
X219363Y96578D01*
X219784Y96682D01*
X220194Y96825D01*
X220300Y96878D01*
X220396Y96947D01*
X220481Y97030D01*
X220551Y97125D01*
X220606Y97231D01*
X220643Y97343D01*
X220663Y97460D01*
X220664Y97579D01*
X220646Y97696D01*
X220610Y97809D01*
X220557Y97915D01*
X220488Y98012D01*
X220405Y98096D01*
X220309Y98167D01*
X220204Y98221D01*
X220092Y98259D01*
X219975Y98278D01*
X219856Y98279D01*
X219739Y98261D01*
X219626Y98223D01*
X219355Y98124D01*
X219075Y98056D01*
X218789Y98014D01*
X218500Y98000D01*
Y104000D01*
X218789Y103986D01*
X219075Y103944D01*
X219355Y103876D01*
X219628Y103780D01*
X219739Y103742D01*
X219856Y103725D01*
X219974Y103725D01*
X220091Y103745D01*
X220203Y103782D01*
X220307Y103836D01*
X220402Y103906D01*
X220485Y103991D01*
X220554Y104087D01*
X220607Y104192D01*
X220643Y104305D01*
X220660Y104421D01*
X220659Y104539D01*
X220640Y104656D01*
X220603Y104768D01*
X220548Y104873D01*
X220478Y104968D01*
X220394Y105051D01*
X220298Y105119D01*
X220192Y105170D01*
X219784Y105318D01*
X219363Y105422D01*
X218933Y105484D01*
X218500Y105505D01*
Y106507D01*
X221735Y106514D01*
X221965Y106569D01*
X222113Y106630D01*
Y103151D01*
X222040Y103163D01*
X221921Y103164D01*
X221804Y103146D01*
X221691Y103110D01*
X221585Y103057D01*
X221488Y102988D01*
X221404Y102905D01*
X221333Y102809D01*
X221279Y102704D01*
X221241Y102592D01*
X221222Y102475D01*
X221221Y102356D01*
X221239Y102239D01*
X221277Y102126D01*
X221376Y101855D01*
X221444Y101575D01*
X221486Y101289D01*
X221500Y101000D01*
X221486Y100711D01*
X221444Y100425D01*
X221376Y100145D01*
X221280Y99872D01*
X221242Y99761D01*
X221225Y99644D01*
X221225Y99526D01*
X221245Y99409D01*
X221282Y99297D01*
X221336Y99193D01*
X221406Y99098D01*
X221491Y99015D01*
X221587Y98946D01*
X221692Y98893D01*
X221805Y98857D01*
X221921Y98840D01*
X222039Y98841D01*
X222113Y98853D01*
Y96450D01*
G37*
G36*
X218500Y123500D02*X222113D01*
Y115370D01*
X221965Y115431D01*
X221735Y115486D01*
X221500Y115500D01*
X218500Y115493D01*
Y123500D01*
G37*
G36*
X214887Y86919D02*X215287Y86577D01*
X216018Y86129D01*
X216811Y85801D01*
X217645Y85600D01*
X218500Y85550D01*
Y61250D01*
X214887D01*
Y86919D01*
G37*
G36*
Y106630D02*X215035Y106569D01*
X215265Y106514D01*
X215500Y106500D01*
X218500Y106507D01*
Y105505D01*
X218067Y105484D01*
X217637Y105422D01*
X217216Y105318D01*
X216806Y105175D01*
X216700Y105122D01*
X216604Y105053D01*
X216519Y104970D01*
X216449Y104875D01*
X216394Y104769D01*
X216357Y104657D01*
X216337Y104540D01*
X216336Y104421D01*
X216354Y104304D01*
X216390Y104191D01*
X216443Y104085D01*
X216512Y103988D01*
X216595Y103904D01*
X216691Y103833D01*
X216796Y103779D01*
X216908Y103741D01*
X217025Y103722D01*
X217144Y103721D01*
X217261Y103739D01*
X217374Y103777D01*
X217645Y103876D01*
X217925Y103944D01*
X218211Y103986D01*
X218500Y104000D01*
Y98000D01*
X218211Y98014D01*
X217925Y98056D01*
X217645Y98124D01*
X217372Y98220D01*
X217261Y98258D01*
X217144Y98275D01*
X217026Y98275D01*
X216909Y98255D01*
X216797Y98218D01*
X216693Y98164D01*
X216598Y98094D01*
X216515Y98009D01*
X216446Y97913D01*
X216393Y97808D01*
X216357Y97695D01*
X216340Y97579D01*
X216341Y97461D01*
X216360Y97344D01*
X216397Y97232D01*
X216452Y97127D01*
X216522Y97032D01*
X216606Y96949D01*
X216702Y96881D01*
X216808Y96830D01*
X217216Y96682D01*
X217637Y96578D01*
X218067Y96516D01*
X218500Y96495D01*
Y96450D01*
X217645Y96400D01*
X216811Y96199D01*
X216018Y95871D01*
X215287Y95423D01*
X214887Y95081D01*
Y98849D01*
X214960Y98837D01*
X215079Y98836D01*
X215196Y98854D01*
X215309Y98890D01*
X215415Y98943D01*
X215512Y99012D01*
X215596Y99095D01*
X215667Y99191D01*
X215721Y99296D01*
X215759Y99408D01*
X215778Y99525D01*
X215779Y99644D01*
X215761Y99761D01*
X215723Y99874D01*
X215624Y100145D01*
X215556Y100425D01*
X215514Y100711D01*
X215500Y101000D01*
X215514Y101289D01*
X215556Y101575D01*
X215624Y101855D01*
X215720Y102128D01*
X215758Y102239D01*
X215775Y102356D01*
X215775Y102474D01*
X215755Y102591D01*
X215718Y102703D01*
X215664Y102807D01*
X215594Y102902D01*
X215509Y102985D01*
X215413Y103054D01*
X215308Y103107D01*
X215195Y103143D01*
X215079Y103160D01*
X214961Y103159D01*
X214887Y103147D01*
Y106630D01*
G37*
G36*
Y123500D02*X218500D01*
Y115493D01*
X215265Y115486D01*
X215035Y115431D01*
X214887Y115370D01*
Y123500D01*
G37*
G36*
X201500D02*X214887D01*
Y115370D01*
X214817Y115341D01*
X214616Y115217D01*
X214436Y115064D01*
X214283Y114884D01*
X214159Y114683D01*
X214069Y114465D01*
X214014Y114235D01*
X214000Y114000D01*
X214014Y107765D01*
X214069Y107535D01*
X214159Y107317D01*
X214283Y107116D01*
X214436Y106936D01*
X214616Y106783D01*
X214817Y106659D01*
X214887Y106630D01*
Y103147D01*
X214844Y103140D01*
X214732Y103103D01*
X214627Y103048D01*
X214532Y102978D01*
X214449Y102894D01*
X214381Y102798D01*
X214330Y102692D01*
X214182Y102284D01*
X214078Y101863D01*
X214016Y101433D01*
X213995Y101000D01*
X214016Y100567D01*
X214078Y100137D01*
X214182Y99716D01*
X214325Y99306D01*
X214378Y99200D01*
X214447Y99104D01*
X214530Y99019D01*
X214625Y98949D01*
X214731Y98894D01*
X214843Y98857D01*
X214887Y98849D01*
Y95081D01*
X214634Y94866D01*
X214077Y94213D01*
X213629Y93482D01*
X213301Y92689D01*
X213100Y91855D01*
X213033Y91000D01*
X213100Y90145D01*
X213301Y89311D01*
X213629Y88518D01*
X214077Y87787D01*
X214634Y87134D01*
X214887Y86919D01*
Y61250D01*
X201500D01*
Y123500D01*
G37*
G54D12*X109500Y89500D02*Y120500D01*
G54D13*X114500Y84500D02*Y93500D01*
G54D12*Y116500D02*Y93500D01*
X119500Y89000D02*Y112000D01*
X104500Y79000D02*Y84500D01*
Y116500D02*X103000D01*
X99500Y113000D01*
Y104000D01*
G54D14*X175150Y49500D02*X175450Y49200D01*
G54D13*X176500Y58000D02*X183500Y51000D01*
G54D14*X185000Y59300D02*X185300Y59000D01*
G54D12*X169500Y116500D02*Y93500D01*
X174500Y89000D02*Y112000D01*
X169500Y74800D02*X185150Y59150D01*
X159500Y107500D02*Y94000D01*
X164500Y120500D02*Y83500D01*
X201000Y59000D02*X193500Y51500D01*
X183500Y51000D02*X193000D01*
X195250Y53250D01*
G54D13*X169500Y83000D02*Y95000D01*
G54D12*X159500Y79000D02*Y84000D01*
G54D13*Y94500D01*
G54D12*X169500Y84500D02*Y74800D01*
G54D13*X164500Y83500D02*Y74000D01*
G54D12*Y70000D01*
X176500Y58000D01*
G54D14*X234550Y49200D02*X235200D01*
G54D15*X239500Y77000D02*Y87500D01*
X236000Y91000D01*
G54D16*X259500Y103000D02*Y77000D01*
G54D14*X234500Y49200D02*X234700D01*
X234550D02*Y49550D01*
G54D12*X224700Y59000D02*X201000D01*
G54D14*X226000Y101000D02*X229500Y104500D01*
Y112500D01*
X233000Y116000D01*
G54D15*X236000Y91000D02*X218500D01*
G54D14*X125850Y49000D02*X126050Y49200D01*
G54D12*X116200Y59000D02*X116000D01*
G54D14*X125750Y49500D02*X126050Y49200D01*
G54D12*X114700Y59000D02*X114500D01*
G54D13*X104500Y84500D02*Y95500D01*
G54D12*Y107500D02*Y93500D01*
X99500Y104000D02*X96750Y101250D01*
G54D17*X94500Y84000D02*X99500Y89000D01*
G54D12*X76800Y81300D02*X99000Y103500D01*
G54D17*X94500Y79000D02*Y84000D01*
Y78500D02*Y66000D01*
G54D12*X75300Y59000D02*Y79800D01*
X81000Y85500D01*
X109500Y89000D02*Y83500D01*
G54D13*Y73500D01*
G54D12*X114500Y79000D02*Y84500D01*
X109500Y74500D02*Y64500D01*
X115000Y59000D01*
G54D18*X65450Y49200D03*
G54D19*X10250Y20000D03*
Y39700D03*
X39750Y20000D03*
Y39700D03*
X65450Y29500D03*
G54D18*X104850Y9800D03*
X85150D03*
X95000Y49200D03*
X114700Y59000D03*
X75300D03*
G54D19*X260250Y20000D03*
Y39700D03*
X289750Y20000D03*
Y39700D03*
G54D11*G36*
X255500Y107000D02*Y99000D01*
X263500D01*
Y107000D01*
X255500D01*
G37*
G54D20*X239500Y103000D03*
G54D11*G36*
X282100Y79400D02*Y72600D01*
X288900D01*
Y79400D01*
X282100D01*
G37*
G36*
X256500Y80000D02*Y74000D01*
X262500D01*
Y80000D01*
X256500D01*
G37*
G54D21*X239500Y77000D03*
G54D22*X285500Y116000D03*
G54D19*X234550Y29500D03*
G54D11*G36*
X229550Y54200D02*Y44200D01*
X239550D01*
Y54200D01*
X229550D01*
G37*
G36*
X215500Y114000D02*Y108000D01*
X221500D01*
Y114000D01*
X215500D01*
G37*
G54D23*X189500D03*
X89500D03*
G54D21*X218500Y101000D03*
Y91000D03*
G54D17*X184500Y89000D03*
X179500Y79000D03*
X174500Y89000D03*
X169500Y79000D03*
X164500Y89000D03*
X159500Y79000D03*
X154500Y89000D03*
X129500D03*
X119500D03*
X109500D03*
X99500D03*
X149500Y79000D03*
X124500D03*
X114500D03*
X104500D03*
X94500D03*
G54D11*G36*
X141250Y33250D02*Y25750D01*
X148750D01*
Y33250D01*
X141250D01*
G37*
G54D24*X155000Y29500D03*
G54D19*X124550D03*
G54D11*G36*
X119550Y54200D02*Y44200D01*
X129550D01*
Y54200D01*
X119550D01*
G37*
G54D19*X175450Y29500D03*
G54D18*X214850Y9800D03*
X195150D03*
X205000Y49200D03*
X175450D03*
X224700Y59000D03*
X185300D03*
G54D25*X164500Y120500D03*
X169500Y116500D03*
X174500Y112000D03*
X159500Y107500D03*
X109500Y120500D03*
X114500Y116500D03*
X119500Y112000D03*
X104500Y107500D03*
Y116500D03*
G54D26*G54D27*G54D28*G54D29*G54D27*G54D28*G54D30*G54D31*G54D29*G54D27*G54D31*G54D32*G54D31*G54D33*G54D34*G54D29*G54D27*G54D29*G54D27*M02*
