G04 start of page 6 for group -4063 idx -4063 *
G04 Title: (unknown), componentmask *
G04 Creator: pcb 20110918 *
G04 CreationDate: Tue 30 Sep 2014 08:46:46 PM GMT UTC *
G04 For: ndholmes *
G04 Format: Gerber/RS-274X *
G04 PCB-Dimensions: 300000 125000 *
G04 PCB-Coordinate-Origin: lower left *
%MOIN*%
%FSLAX25Y25*%
%LNTOPMASK*%
%ADD73C,0.0660*%
%ADD72C,0.0740*%
%ADD71C,0.0860*%
%ADD70C,0.1500*%
%ADD69C,0.0760*%
%ADD68C,0.0710*%
%ADD67C,0.1760*%
%ADD66C,0.0001*%
%ADD65C,0.1060*%
G54D65*X175450Y49200D03*
G54D66*G36*
X120750Y54500D02*Y43900D01*
X131350D01*
Y54500D01*
X120750D01*
G37*
G54D65*X96500Y49200D03*
X66950D03*
X185300Y59000D03*
X116200D03*
X76800D03*
G54D67*X126050Y29500D03*
G54D65*X106350Y9800D03*
X86650D03*
G54D67*X66950Y29500D03*
X10250Y20000D03*
Y39700D03*
X39750Y20000D03*
Y39700D03*
X234550Y29500D03*
G54D65*X214850Y9800D03*
X195150D03*
G54D66*G36*
X229250Y54500D02*Y43900D01*
X239850D01*
Y54500D01*
X229250D01*
G37*
G54D65*X205000Y49200D03*
G54D66*G36*
X141450Y33050D02*Y25950D01*
X148550D01*
Y33050D01*
X141450D01*
G37*
G54D68*X155000Y29500D03*
G54D67*X175450D03*
G54D65*X224700Y59000D03*
G54D67*X260250Y20000D03*
Y39700D03*
X289750Y20000D03*
Y39700D03*
G54D66*G36*
X281800Y79700D02*Y72300D01*
X289200D01*
Y79700D01*
X281800D01*
G37*
G54D69*X179500Y79000D03*
X169500D03*
X159500D03*
X149500D03*
X174500Y89000D03*
X164500D03*
X154500D03*
X129500D03*
X119500D03*
X109500D03*
X124500Y79000D03*
X114500D03*
X104500D03*
X99500Y89000D03*
X94500Y79000D03*
G54D70*X89500Y114000D03*
G54D69*X184500Y89000D03*
G54D70*X189500Y114000D03*
G54D71*X222500Y100500D03*
G54D72*X285500Y116000D03*
G54D66*G36*
X238200Y104800D02*Y96200D01*
X246800D01*
Y104800D01*
X238200D01*
G37*
G36*
X264700Y106300D02*Y99700D01*
X271300D01*
Y106300D01*
X264700D01*
G37*
G54D73*X268000Y83000D03*
M02*
