G04 start of page 9 for group -4078 idx -4078 *
G04 Title: (unknown), bottomsilk *
G04 Creator: pcb 20110918 *
G04 CreationDate: Tue 30 Sep 2014 08:46:46 PM GMT UTC *
G04 For: ndholmes *
G04 Format: Gerber/RS-274X *
G04 PCB-Dimensions: 300000 125000 *
G04 PCB-Coordinate-Origin: lower left *
%MOIN*%
%FSLAX25Y25*%
%LNBOTTOMSILK*%
%ADD85C,0.0100*%
G54D85*X500Y500D02*X299500D01*
Y124500D01*
X500D01*
Y500D01*
X5500Y108500D02*Y112500D01*
Y111000D02*X6000Y110500D01*
X7000D01*
X7500Y111000D01*
Y112500D01*
X9200Y108500D02*Y112000D01*
X9700Y112500D01*
X8700Y110000D02*X9700D01*
X11200Y108500D02*Y112000D01*
X11700Y112500D01*
X10700Y110000D02*X11700D01*
X13200Y111000D02*Y114000D01*
X12700Y110500D02*X13200Y111000D01*
X13700Y110500D01*
X14700D01*
X15200Y111000D01*
Y112000D01*
X14700Y112500D02*X15200Y112000D01*
X13700Y112500D02*X14700D01*
X13200Y112000D02*X13700Y112500D01*
X16400Y110000D02*X16900D01*
X16400Y111000D02*X16900D01*
X18100Y112000D02*X21100Y109000D01*
X22300Y112000D02*X25300Y109000D01*
X26500Y110500D02*Y112000D01*
X27000Y112500D01*
X27500D01*
X28000Y112000D01*
Y110500D02*Y112000D01*
X28500Y112500D01*
X29000D01*
X29500Y112000D01*
Y110500D02*Y112000D01*
X30700Y110500D02*Y112000D01*
X31200Y112500D01*
X31700D01*
X32200Y112000D01*
Y110500D02*Y112000D01*
X32700Y112500D01*
X33200D01*
X33700Y112000D01*
Y110500D02*Y112000D01*
X34900Y110500D02*Y112000D01*
X35400Y112500D01*
X35900D01*
X36400Y112000D01*
Y110500D02*Y112000D01*
X36900Y112500D01*
X37400D01*
X37900Y112000D01*
Y110500D02*Y112000D01*
X39100Y112500D02*X39600D01*
X40800Y109500D02*Y110000D01*
Y111000D02*Y112500D01*
X43300Y110500D02*X43800Y111000D01*
X42300Y110500D02*X43300D01*
X41800Y111000D02*X42300Y110500D01*
X41800Y111000D02*Y112000D01*
X42300Y112500D01*
X43800Y110500D02*Y112000D01*
X44300Y112500D01*
X42300D02*X43300D01*
X43800Y112000D01*
X46000Y112500D02*X47500D01*
X48000Y112000D01*
X47500Y111500D02*X48000Y112000D01*
X46000Y111500D02*X47500D01*
X45500Y111000D02*X46000Y111500D01*
X45500Y111000D02*X46000Y110500D01*
X47500D01*
X48000Y111000D01*
X45500Y112000D02*X46000Y112500D01*
X49700Y110500D02*X51200D01*
X49200Y111000D02*X49700Y110500D01*
X49200Y111000D02*Y112000D01*
X49700Y112500D01*
X51200D01*
X53900Y110500D02*X54400Y111000D01*
X52900Y110500D02*X53900D01*
X52400Y111000D02*X52900Y110500D01*
X52400Y111000D02*Y112000D01*
X52900Y112500D01*
X54400Y110500D02*Y112000D01*
X54900Y112500D01*
X52900D02*X53900D01*
X54400Y112000D01*
X56100Y108500D02*Y112000D01*
X56600Y112500D01*
X58100D02*X59600D01*
X57600Y112000D02*X58100Y112500D01*
X57600Y111000D02*Y112000D01*
Y111000D02*X58100Y110500D01*
X59100D01*
X59600Y111000D01*
X57600Y111500D02*X59600D01*
Y111000D02*Y111500D01*
X62800Y108500D02*Y112500D01*
X62300D02*X62800Y112000D01*
X61300Y112500D02*X62300D01*
X60800Y112000D02*X61300Y112500D01*
X60800Y111000D02*Y112000D01*
Y111000D02*X61300Y110500D01*
X62300D01*
X62800Y111000D01*
X64000Y112500D02*X64500D01*
X66200Y110500D02*X67700D01*
X65700Y111000D02*X66200Y110500D01*
X65700Y111000D02*Y112000D01*
X66200Y112500D01*
X67700D01*
X68900Y111000D02*Y112000D01*
Y111000D02*X69400Y110500D01*
X70400D01*
X70900Y111000D01*
Y112000D01*
X70400Y112500D02*X70900Y112000D01*
X69400Y112500D02*X70400D01*
X68900Y112000D02*X69400Y112500D01*
X72600Y111000D02*Y112500D01*
Y111000D02*X73100Y110500D01*
X73600D01*
X74100Y111000D01*
Y112500D01*
Y111000D02*X74600Y110500D01*
X75100D01*
X75600Y111000D01*
Y112500D01*
X72100Y110500D02*X72600Y111000D01*
X5500Y87000D02*X6500D01*
X6000D02*Y91000D01*
X5500D02*X6500D01*
X7700Y89500D02*Y90500D01*
Y89500D02*X8200Y89000D01*
X9200D01*
X9700Y89500D01*
Y90500D01*
X9200Y91000D02*X9700Y90500D01*
X8200Y91000D02*X9200D01*
X7700Y90500D02*X8200Y91000D01*
X10900Y89000D02*Y90500D01*
X11400Y91000D01*
X11900D01*
X12400Y90500D01*
Y89000D02*Y90500D01*
X12900Y91000D01*
X13400D01*
X13900Y90500D01*
Y89000D02*Y90500D01*
X16600Y89000D02*X17100Y89500D01*
X15600Y89000D02*X16600D01*
X15100Y89500D02*X15600Y89000D01*
X15100Y89500D02*Y90500D01*
X15600Y91000D01*
X17100Y89000D02*Y90500D01*
X17600Y91000D01*
X15600D02*X16600D01*
X17100Y90500D01*
X22600Y87000D02*X23100Y87500D01*
X21100Y87000D02*X22600D01*
X20600Y87500D02*X21100Y87000D01*
X20600Y87500D02*Y88500D01*
X21100Y89000D01*
X22600D01*
X23100Y89500D01*
Y90500D01*
X22600Y91000D02*X23100Y90500D01*
X21100Y91000D02*X22600D01*
X20600Y90500D02*X21100Y91000D01*
X24800Y89000D02*X26300D01*
X24300Y89500D02*X24800Y89000D01*
X24300Y89500D02*Y90500D01*
X24800Y91000D01*
X26300D01*
X29000Y89000D02*X29500Y89500D01*
X28000Y89000D02*X29000D01*
X27500Y89500D02*X28000Y89000D01*
X27500Y89500D02*Y90500D01*
X28000Y91000D01*
X29500Y89000D02*Y90500D01*
X30000Y91000D01*
X28000D02*X29000D01*
X29500Y90500D01*
X31200Y87000D02*Y90500D01*
X31700Y91000D01*
X33200D02*X34700D01*
X32700Y90500D02*X33200Y91000D01*
X32700Y89500D02*Y90500D01*
Y89500D02*X33200Y89000D01*
X34200D01*
X34700Y89500D01*
X32700Y90000D02*X34700D01*
Y89500D02*Y90000D01*
X37900Y87000D02*Y91000D01*
X37400D02*X37900Y90500D01*
X36400Y91000D02*X37400D01*
X35900Y90500D02*X36400Y91000D01*
X35900Y89500D02*Y90500D01*
Y89500D02*X36400Y89000D01*
X37400D01*
X37900Y89500D01*
X40900Y89000D02*X42400D01*
X40900Y91000D02*X42900D01*
X40900Y87000D02*Y91000D01*
Y87000D02*X42900D01*
X44600Y89500D02*Y91000D01*
Y89500D02*X45100Y89000D01*
X45600D01*
X46100Y89500D01*
Y91000D01*
X44100Y89000D02*X44600Y89500D01*
X48800Y89000D02*X49300Y89500D01*
X47800Y89000D02*X48800D01*
X47300Y89500D02*X47800Y89000D01*
X47300Y89500D02*Y90500D01*
X47800Y91000D01*
X48800D01*
X49300Y90500D01*
X47300Y92000D02*X47800Y92500D01*
X48800D01*
X49300Y92000D01*
Y89000D02*Y92000D01*
X50500Y88000D02*Y88500D01*
Y89500D02*Y91000D01*
X52000Y89500D02*Y91000D01*
Y89500D02*X52500Y89000D01*
X53000D01*
X53500Y89500D01*
Y91000D01*
X51500Y89000D02*X52000Y89500D01*
X55200Y91000D02*X56700D01*
X54700Y90500D02*X55200Y91000D01*
X54700Y89500D02*Y90500D01*
Y89500D02*X55200Y89000D01*
X56200D01*
X56700Y89500D01*
X54700Y90000D02*X56700D01*
Y89500D02*Y90000D01*
X58400Y91000D02*X59900D01*
X57900Y90500D02*X58400Y91000D01*
X57900Y89500D02*Y90500D01*
Y89500D02*X58400Y89000D01*
X59400D01*
X59900Y89500D01*
X57900Y90000D02*X59900D01*
Y89500D02*Y90000D01*
X61600Y89500D02*Y91000D01*
Y89500D02*X62100Y89000D01*
X63100D01*
X61100D02*X61600Y89500D01*
X64300Y88000D02*Y88500D01*
Y89500D02*Y91000D01*
X65800Y89500D02*Y91000D01*
Y89500D02*X66300Y89000D01*
X66800D01*
X67300Y89500D01*
Y91000D01*
X65300Y89000D02*X65800Y89500D01*
X70000Y89000D02*X70500Y89500D01*
X69000Y89000D02*X70000D01*
X68500Y89500D02*X69000Y89000D01*
X68500Y89500D02*Y90500D01*
X69000Y91000D01*
X70000D01*
X70500Y90500D01*
X68500Y92000D02*X69000Y92500D01*
X70000D01*
X70500Y92000D01*
Y89000D02*Y92000D01*
X6000Y98500D02*X7500D01*
X5500Y98000D02*X6000Y98500D01*
X5500Y95000D02*Y98000D01*
Y95000D02*X6000Y94500D01*
X7500D01*
X8700D02*Y98500D01*
Y96500D02*X10700Y94500D01*
X8700Y96500D02*X10700Y98500D01*
X11900Y94500D02*X13900D01*
X12900D02*Y98500D01*
X15100Y96500D02*X17100D01*
X18800Y94500D02*Y98500D01*
X20300Y94500D02*X20800Y95000D01*
Y98000D01*
X20300Y98500D02*X20800Y98000D01*
X18300Y98500D02*X20300D01*
X18300Y94500D02*X20300D01*
X22500Y98500D02*X24000D01*
X22000Y98000D02*X22500Y98500D01*
X22000Y95000D02*Y98000D01*
Y95000D02*X22500Y94500D01*
X24000D01*
X25700Y98500D02*X27200D01*
X25200Y98000D02*X25700Y98500D01*
X25200Y95000D02*Y98000D01*
Y95000D02*X25700Y94500D01*
X27200D01*
X28900D02*Y98500D01*
X28400Y94500D02*X30400D01*
X30900Y95000D01*
Y96000D01*
X30400Y96500D02*X30900Y96000D01*
X28900Y96500D02*X30400D01*
X32100Y95000D02*Y98500D01*
Y95000D02*X32600Y94500D01*
X34100D01*
X34600Y95000D01*
Y98500D01*
X32100Y96500D02*X34600D01*
X35800Y94500D02*Y98500D01*
Y94500D02*Y95000D01*
X38300Y97500D01*
Y94500D02*Y98500D01*
X39500Y96500D02*X41000D01*
X39500Y98500D02*X41500D01*
X39500Y94500D02*Y98500D01*
Y94500D02*X41500D01*
X42700D02*Y98500D01*
X44700D01*
X47700Y96500D02*Y97500D01*
X48700Y98500D01*
X49700Y97500D01*
Y96500D02*Y97500D01*
X51400Y98500D02*X52400D01*
X51900Y94500D02*Y98500D01*
X50900Y95500D02*X51900Y94500D01*
X53600Y98500D02*X54100D01*
X55300Y98000D02*X55800Y98500D01*
X55300Y95000D02*Y98000D01*
Y95000D02*X55800Y94500D01*
X56800D01*
X57300Y95000D01*
Y98000D01*
X56800Y98500D02*X57300Y98000D01*
X55800Y98500D02*X56800D01*
X55300Y97500D02*X57300Y95500D01*
X6000Y105500D02*X7500D01*
X5500Y105000D02*X6000Y105500D01*
X5500Y102000D02*Y105000D01*
Y102000D02*X6000Y101500D01*
X7500D01*
X9200Y105500D02*X10700D01*
X8700Y105000D02*X9200Y105500D01*
X8700Y102000D02*Y105000D01*
Y102000D02*X9200Y101500D01*
X10700D01*
X13700Y105500D02*X15700D01*
X16200Y105000D01*
Y104000D02*Y105000D01*
X15700Y103500D02*X16200Y104000D01*
X14200Y103500D02*X15700D01*
X14200Y101500D02*Y105500D01*
X13700Y101500D02*X15700D01*
X16200Y102000D01*
Y103000D01*
X15700Y103500D02*X16200Y103000D01*
X17400Y101500D02*Y102000D01*
X18400Y103000D01*
X19400Y102000D01*
Y101500D02*Y102000D01*
X18400Y103000D02*Y105500D01*
X20600Y103500D02*X22600D01*
X25800Y101500D02*X26300Y102000D01*
X24300Y101500D02*X25800D01*
X23800Y102000D02*X24300Y101500D01*
X23800Y102000D02*Y103000D01*
X24300Y103500D01*
X25800D01*
X26300Y104000D01*
Y105000D01*
X25800Y105500D02*X26300Y105000D01*
X24300Y105500D02*X25800D01*
X23800Y105000D02*X24300Y105500D01*
X27500Y102000D02*Y105500D01*
Y102000D02*X28000Y101500D01*
X29500D01*
X30000Y102000D01*
Y105500D01*
X27500Y103500D02*X30000D01*
X33000Y102000D02*X33500Y101500D01*
X35000D01*
X35500Y102000D01*
Y103000D01*
X33000Y105500D02*X35500Y103000D01*
X33000Y105500D02*X35500D01*
X36700Y105000D02*X37200Y105500D01*
X36700Y102000D02*Y105000D01*
Y102000D02*X37200Y101500D01*
X38200D01*
X38700Y102000D01*
Y105000D01*
X38200Y105500D02*X38700Y105000D01*
X37200Y105500D02*X38200D01*
X36700Y104500D02*X38700Y102500D01*
X40400Y105500D02*X41400D01*
X40900Y101500D02*Y105500D01*
X39900Y102500D02*X40900Y101500D01*
X42600Y103500D02*X44600Y101500D01*
X42600Y103500D02*X45100D01*
X44600Y101500D02*Y105500D01*
M02*
