M48
INCH
T64C0.020
T63C0.048
T62C0.128
T61C0.035
T60C0.038
T59C0.043
T58C0.073
T57C0.095
T56C0.051
%
T64
X012450Y009600
X011900Y007100
T61
X017950Y007900
X016950Y007900
X015950Y007900
X014950Y007900
X017450Y008900
X016450Y008900
X015450Y008900
X012950Y008900
X011950Y008900
X010950Y008900
X012450Y007900
X011450Y007900
X010450Y007900
X009950Y008900
X009450Y007900
X018450Y008900
T60
X028550Y007600
X028550Y011600
X026800Y010300
X026800Y008300
T59
X014500Y002950
X015500Y002950
T63
X022250Y010050
X024250Y010050
T56
X017545Y004920
X012605Y004920
X009650Y004920
X006695Y004920
X018530Y005900
X011620Y005900
X007680Y005900
X010635Y000980
X008665Y000980
X021485Y000980
X019515Y000980
X023455Y004920
X020500Y004920
X022470Y005900
T58
X001025Y002000
X001025Y003970
X003975Y002000
X003975Y003970
X026025Y002000
X026025Y003970
X028975Y002000
X028975Y003970
T57
X012605Y002950
X006695Y002950
X023455Y002950
X017545Y002950
T62
X008950Y011400
X018950Y011400
M30
